<?xml version="1.0" encoding="UTF-8"?>
<svg id="Layer_8" xmlns="http://www.w3.org/2000/svg" version="1.1" viewBox="0 0 512 512">
  <!-- Generator: Adobe Illustrator 29.5.1, SVG Export Plug-In . SVG Version: 2.1.0 Build 141)  -->
  <defs>
    <style>
      .st0 {
        fill: #1bbcb6;
      }
    </style>
  </defs>
  <path class="st0" d="M.8,232.5s0,0,0,0c1.7-29.6,19.8-47.6,51.1-50.8,11.3-1.1,22.4-1.9,33.5-2.3,4.8-.2,7.5-5.8,4.5-9.6-2.8-3.7-5.3-7.1-7.5-10.3-8.8-12.8-12.7-28.7-11.7-47.1l1.1-20.1c.1-1.9,1.2-3.6,2.8-4.6l3.2-1.9c4.1-2.5,8.8-6,13.8-10.5l15.3-13.7c5.2-6,11-12,17.9-18.3l4.8-4.3c2.2-2,5.5-2,7.7,0l50.1,46c3.5,3.2,9.2,1,9.7-3.7,2.5-21.1,6-37.4,10.5-49.3C216.3,9.4,239.5-1,276.7,1.1c28.1,1.6,48.3,15.3,58.5,39.8,7.2,17.5,11.1,36.3,11.6,56,0,.9.8,1.7,1.7,1.8h0c.7,0,7.2,0,23.8-13,9.5-7.5,18.1-14.5,25.3-20.6,8.9-7.6,22.1-8.3,32-1.8,11.9,7.9,21,16.1,27.6,25,9,12.3,13.1,27.9,12,46.3-1,18.4-6.4,34.3-16.1,49.8-.8,1.2-1.6,2.4-2.4,3.6-2.8,4-.3,9.9,4.5,10.2l51.4,2.9c3.1.2,5.6,2.9,5.4,6.1l-6,107.4c-.2,3.2-2.9,5.6-6.1,5.4l-81.8-4.6c-3.2-.2-5.9,2.3-6.1,5.4l-.4,7.8c0,1.3.3,2.5,1,3.6l36.8,53.9c3.4,5,5.1,11,4.8,17l-.6,10.9c-.9,16.1-8,30.8-20.1,41.5-12.1,10.7-27.5,16-43.7,14.9-17.9-1.2-32.8-6.8-44.5-16.8-4.2-3.7-9-8.1-14.2-13.3-3.1-3.1-8.4-1.8-9.9,2.3-.7,2.1-1.5,4.3-2.4,6.6-7.4,20.4-9.3,29.9-9.5,34.3l-.2,2.9c0,1.5-.8,2.9-1.9,4l-21.6,19.3c-1.1,1-2.6,1.5-4.1,1.4l-86.9-4.9c-3.2-.2-5.6-2.9-5.4-6.1l3.4-60.2c.3-4.8-5.1-7.8-9.2-5.3-24.4,14.7-48.7,21.5-72.5,20-32.6-1.9-57.7-30-55.8-62.8,1-18.3,6.7-33.6,16.8-45.4,6.6-7.8,15.7-17,27.7-28.1,2.1-1.9,2.6-5.3.3-7-2.3-1.7-4.6-2.4-6.7-2.8-11.8-2.2-24.1-4.9-36.6-8.1-13.5-3.3-26.1-8.8-37.3-16.6-6.2-4.3-16.9-10.2-19.3-26.4,0-.3,0-.7,0-1l.8-24s0,0,0,0h0Z"/>
</svg>