<?xml version="1.0" encoding="UTF-8"?>
<svg id="refined_design" xmlns="http://www.w3.org/2000/svg" version="1.1" xmlns:xlink="http://www.w3.org/1999/xlink" viewBox="0 0 106.4 106.4">
  <!-- Generator: Adobe Illustrator 29.5.1, SVG Export Plug-In . SVG Version: 2.1.0 Build 141)  -->
  <defs>
    <style>
      .st0 {
        mask: url(#mask);
      }

      .st1 {
        fill: #333;
      }

      .st2 {
        filter: url(#luminosity-noclip);
      }
    </style>
    <filter id="luminosity-noclip" x="0" y="0" width="106.4" height="106.4" color-interpolation-filters="sRGB" filterUnits="userSpaceOnUse">
      <feFlood flood-color="#fff" result="bg"/>
      <feBlend in="SourceGraphic" in2="bg"/>
    </filter>
    <mask id="mask" x="0" y="0" width="106.4" height="106.4" maskUnits="userSpaceOnUse">
      <g class="st2">
        <path d="M28.9,85.4c2-.5,4-1.4,5.8-2.6,1.8-1.3,3.6-2.5,5.2-3.8,1.7-1.3,3.5-1.4,5.7-.4,0,3.9.1,6.9.4,9.2.3,2.2,1.4,4.3,3.3,6.3,3.9,3.9,7.8,3.9,11.6,0s5.8-9.7,5.8-17.5l11.6,11.6,9.6-9.6v-4.1c-1-1-2.2-2.9-3.8-5.8-1.6-2.9-2.8-4.9-3.8-5.8,3.9,0,6.9-.1,9.2-.4,2.2-.3,4.3-1.4,6.3-3.3,3.9-3.9,3.9-7.8,0-11.6l-2-2-13.4-1.7-4.1-4.1,11.6-11.6-11.6-11.6-11.6,11.6c1-2.9,1.1-5.7.3-8.4-.8-2.7-2.1-5-4.1-7-1.9-1.9-4-3-6.1-3.2-2.1-.2-4.7.2-7.6,1.2,0,1.9,0,4.5-.3,7.6-.2,3.1-.8,5.1-1.7,6.1l-1.7,1.7c-2.9-2.9-6.2-5-9.8-6.3-3.6-1.3-6.8-.4-9.8,2.5-3.9,3.9-5.1,7.2-3.6,10,1.5,2.8,4.6,6.7,9.5,11.5l-17.5,1.7c0,1.6,0,3,.3,4.4,0,1.2,0,2.4,0,3.8s0,2.5-.3,3.5l2,2c1.9,1.9,4,3.1,6.3,3.3,2.2.3,5.3.4,9.2.4-2.9,2.9-5.7,6.2-8.3,9.8-2.6,3.6-2.5,6.8.4,9.8,2.5,2.5,4.8,3.5,6.8,3.1Z"/>
      </g>
    </mask>
  </defs>
  <g class="st0">
    <path class="st1" d="M5.7,38.1C2.5,44.7.6,51.1.1,57.6c-.5,6.4.4,12.6,2.7,18.6,2.3,6,5.9,11.5,10.9,16.5,5,5,10.5,8.6,16.5,10.9,6,2.3,12.2,3.2,18.6,2.7,6.4-.5,12.9-2.3,19.4-5.6,6.5-3.2,12.8-7.8,18.7-13.8,5.9-5.9,10.5-12.2,13.8-18.7,3.2-6.5,5.1-13,5.6-19.4.5-6.4-.4-12.6-2.7-18.6-2.3-6-5.9-11.5-10.9-16.5-5-5-10.5-8.6-16.5-10.9C70.2.5,64-.4,57.6.1c-6.4.5-12.9,2.3-19.4,5.6-6.5,3.2-12.8,7.8-18.7,13.8-5.9,5.9-10.5,12.2-13.8,18.7Z"/>
  </g>
</svg>