<?xml version="1.0" encoding="UTF-8"?><svg xmlns="http://www.w3.org/2000/svg" viewBox="0 0 3250 130"><defs><style>.aj{isolation:isolate;}.ak{fill:none;stroke:#333;stroke-miterlimit:10;stroke-width:4px;}</style></defs><g class="aj"><g id="j"><path class="ak" d="M.68,51.15c42.06,33.13,110.16,15.91,135.15-32.09,6.64-12.59,1.31-15.65-9.67-10.38-13.16,6.22-24.19,18.13-29.32,32.14-.58,1.72-.97,3.48-1.03,5.26-.1,3.38,1.34,5.94,4.16,7.47,1.72.95,3.92,1.53,6.37,1.88,51.16,5.01,104.04-11.59,144.5-44.61,1.84-1.51,3.16-2.72,4.53-4.17,1.61-1.74,2.13-2.9,1.48-3.12-.66-.14-1.41.23-2.07.54-2.1,1.04-5.46,3.66-7.82,6.84-10.18,14.24-8.15,36.16,1.28,50.61,3.78,5.95,9.56,11.33,15.74,14.34,30.22,13.18,94.47,1.83,111.05-24.75,2.56-3.87,4.18-11.5-2.12-9.93-1.22.37-2.61,1.17-3.98,2.35-2.56,2.27-4.85,5.58-6.05,8.96-7.58,21.22,11.11,38.85,30.36,44.01,3.65,1.05,7.37,1.74,11.1,2.22,33.98,4,66.24-3.13,98.41-13.57,63.42-21.38,136.11-54.84,225.99-35.08,6.48,1.2,12.54,2.28,18.11,3.12,93.73,12.51,186.54,33.04,276.67,62.75,3.14,1.19,5.75,2.64,6.95,3.88,3.69,4.25-6.61,1.86-6.52-5.16,0-3.67,2.75-6.58,5.81-8.31,32.81-15.69,92.94,6.19,125.19,17.89,14.55,6.43,15.6-1.86,21.5-12.88,6.05-11.74,14.48-23.74,23.75-34.08,80.49-96.43,258.74-31.05,199.41,7.68-5.06,1.94-3.83-2.77-1.71-6.81.95-1.79,2.03-3.46,3.29-5.19,36.4-49.2,112.73,11.76,165.47,8.76,19.9-1.48,39.22-12.98,58.12-18.78,18.96-6.3,36.2-4.49,47.64,12.61,9.63,13.8,13.5,34.16,31.77,39.42,63.96,17.78,164.43-15.03,229.29-36.83,2.94-1.37,4.87-2.69,4.81-4.98-.53-3.78-5.53-6.27-9.01-7.8-22.6-9.54-55.93,6.08-60.48,31.69-.24,2.62.29,4.89,1.6,6.57,1.61,2.1,4.45,3.26,7.92,3.73,74.22,2.86,148.98-25.6,205.45-75.91.91-.81,1.8-1.62,2.62-2.38,2.19-2.02,3.86-3.69,4.74-4.45,1.07-.93,1-.53.36,1.34-.48,1.34-.86,2.63-1.26,4.08-3.01,9.72,1.11,21.1,9.49,26.77,42.8,24.61,105.68,5.72,150.69-11.27,2.43-1.14,4.12-2.38,4.66-3.6.58-1.24-.04-2.44-1.61-3.32-23.27-9.54-37.53,31.76-11.78,45.58,11.22,6.03,24.7,6.43,36.84,3.54,18.9-4.37,34.96-16.38,52.7-23.65,70.36-30.39,142.43,41.76,213.21,29.17,15.5-2.76,30.53-9.03,45.77-13.3,13.45-3.61,25.33-6.6,38.09-3.18,1.12.33,2.21.73,3.27,1.2,4.37,1.87,7.9,5.33,11.93,6.91,2.43.98,5.14,1.02,7.65.18,98.76-69.5,240.31-60.84,327.1,26.49.6.61,1.2,1.21,1.79,1.8,2.31,2.32,4.45,4.28,6.32,5.15.29.14.57.25.84.34,1.94.63,3.59-.04,5.19-1.82,1.04-1.14,2.06-2.72,3.16-4.5,13.65-25.77,56.69-31,74.63-7.73,1.33,1.78,1.92,3.15,1.73,3.65-.2.6-1.46.02-3.2-1.74-23.9-24.18,3.09-67.29,33.96-54.56,2.03.68,4.04,1.36,5.98,1.85,3.77.98,7.28,1.12,10.59-.03,2.23-.75,4.37-2.05,6.51-3.65,34.51-29.61,88.81-30.12,123.5-.88"/></g></g></svg>