<?xml version="1.0" encoding="UTF-8"?>
<svg id="Layer_6" xmlns="http://www.w3.org/2000/svg" version="1.1" xmlns:xlink="http://www.w3.org/1999/xlink" viewBox="0 0 811.6 830">
  <!-- Generator: Adobe Illustrator 29.5.1, SVG Export Plug-In . SVG Version: 2.1.0 Build 141)  -->
  <defs>
    <style>
      .st0 {
        fill: #5170a9;
      }

      .st1 {
        fill: none;
        stroke: #c2ab8f;
        stroke-miterlimit: 10;
        stroke-width: 23px;
      }

      .st2 {
        mask: url(#mask);
      }

      .st3 {
        fill: #f0f7fa;
      }

      .st4 {
        fill: #2d9ce2;
      }

      .st5 {
        fill: #fff9ed;
      }

      .st6 {
        fill: #333;
      }

      .st7 {
        fill: #75d6ff;
      }

      .st8 {
        fill: #28304d;
      }

      .st9 {
        filter: url(#luminosity-noclip);
      }
    </style>
    <filter id="luminosity-noclip" x=".4" y="196.7" width="802.1" height="497.2" color-interpolation-filters="sRGB" filterUnits="userSpaceOnUse">
      <feFlood flood-color="#fff" result="bg"/>
      <feBlend in="SourceGraphic" in2="bg"/>
    </filter>
    <mask id="mask" x=".4" y="196.7" width="802.1" height="497.2" maskUnits="userSpaceOnUse">
      <g class="st9">
        <path d="M795.3,493.8c18.3-190.6-208.8-297.1-359.3-297.1s-200.2,34.1-278.2,102.1c-61,53.2-10.6,139.9,60,94,57.7-37.5,133.1-55.7,219.8-53.1,91.2,2.7,164.1,26,216.7,64.4,42.4,30.9,71.6,71.6,86.7,119.3,22.9,4.7,52-4.7,54.3-29.6Z"/>
      </g>
    </mask>
  </defs>
  <path class="st4" d="M523.1,32.9c-5.8,1.4-11.4,3.9-16.7,7.5-5.3,3.6-10.3,7.2-15,10.8-4.7,3.6-10.1,4-16.3,1.2,0-11.1-.4-19.9-1.2-26.3-.8-6.4-4-12.4-9.6-17.9-11.1-11.1-22.2-11.1-33.3,0-11.1,11.1-16.7,27.8-16.7,50l-33.3-33.3-27.5,27.5v11.7c2.8,2.8,6.4,8.3,10.8,16.7,4.4,8.3,8,13.9,10.8,16.7-11.1,0-19.9.4-26.3,1.2-6.4.8-12.4,4-17.9,9.6-11.1,11.1-11.1,22.2,0,33.3l5.8,5.8,38.3,5,11.7,11.7-33.3,33.3,33.3,33.3,33.3-33.3c-2.8,8.3-3,16.4-.8,24.2,2.2,7.8,6.1,14.4,11.7,20,5.5,5.5,11.4,8.6,17.5,9.2,6.1.5,13.3-.6,21.7-3.3,0-5.6.3-12.8.8-21.7.6-8.9,2.2-14.7,5-17.5l5-5c8.3,8.3,17.6,14.3,27.9,17.9,10.3,3.6,19.6,1.3,27.9-7.1,11.1-11.1,14.6-20.7,10.4-28.8-4.2-8.1-13.2-19-27.1-32.9l50-5c0-4.5-.3-8.6-.8-12.5,0-3.3,0-7,0-10.8,0-3.9.3-7.2.8-10l-5.8-5.8c-5.6-5.6-11.5-8.8-17.9-9.6-6.4-.8-15.1-1.3-26.3-1.2,8.3-8.3,16.2-17.7,23.8-27.9,7.5-10.3,7.1-19.6-1.2-27.9-7.2-7.2-13.8-10.2-19.6-8.8Z"/>
  <ellipse class="st5" cx="431.8" cy="506" rx="371.8" ry="313.1"/>
  <path class="st0" d="M746.5,667.7c-.5,20.2,46.4-149,48.8-173.9,18.3-190.6-208.8-297.1-359.3-297.1S42.2,305.2,69.2,520.5c2.4,18.9,29,115.8,28.2,94.5,10.4-184.3,147.5-281,340.1-275.3,231.1,6.9,344.4,145.8,309,328.1Z"/>
  <path class="st8" d="M753.4,254.8c-55.8-77.4-149.5-121.9-278.6-132.2-127.1-10.1-229.2,20.3-303.6,90.3-74.5,70.2-106.1,167.7-116.4,240.2-.3,1.9-.5,3.8-.8,5.7,0,.2,0,.4,0,.6-.9,6.9-1.6,13.9-2.1,21-.1,1.7-.3,3.4-.4,5.1-.1,1.7-.2,3.4-.3,5.1-.4,7.9-.5,15.3-.4,21.9h.1c.7,45.5,9.5,87.3,26.5,125.3,17.8,39.6,43.2,73.7,76.2,102.1,33,28.4,72.9,50.5,119.6,66.3,46.7,15.7,98.5,23.6,155.4,23.6s108.7-7.9,155.5-23.6c46.7-15.8,86.6-37.9,119.6-66.3,13.7-11.8,26-24.5,37-38.2,27.1-32.8,43.9-69,54.4-106.7,0,.2,0,.5,0,.7,1.5-5.3,2.8-10.7,4-16.1,5.8-25.3,9-51.1,10.6-77,6.6-78.1-1.6-172-56.3-247.9ZM779.7,550.4c-13.2,75-53.2,146.3-112.5,190.4-29,21.6-63.5,38.4-103.6,50.6-40.1,12.2-85.1,18.2-134.9,18.2-74.4,0-155-13.4-218.1-55.1-121.7-80.4-167-261.2-97-389.8,3.9-7.2,8.2-14.2,12.8-21,25.3-37.2,68-77.7,139.6-103.4h0c0,0,.2,0,.2,0,53.4-19.1,122.8-29.9,213.2-25,154,8.5,231.4,84.3,269.2,146.5,33.8,55.6,42.6,123.6,31.1,188.6Z"/>
  <g>
    <path class="st3" d="M163.7,326.7c-8.6,9.2-15.9,18.4-22,27.5-38.3,56.4-46.7,122-39.7,180.4,3.4-22.9,10.4-44.6,21.2-64.9,8.3-15.6,18.4-30,30.3-43.3l10.3-99.7Z"/>
    <path class="st3" d="M381.4,326l-2.9-90.8c-35.8,3.4-66.8,9.8-93.7,18.3l1.2,91.2c2.6-.9,5.3-1.7,7.9-2.6,27-8.2,56.2-13.5,87.5-16.2Z"/>
    <path class="st3" d="M592.9,352.3l1.5-94.9c-27.1-10.4-56.8-17.5-88.8-21.2l1.3,93.4c19.9,3,38.8,7.1,56.8,12.6,10.1,3.1,19.9,6.4,29.3,10.1Z"/>
    <path class="st3" d="M611.2,360.1c20.5,9.3,39.3,20.2,56,32.7,7.4,5.5,14.4,11.3,21,17.4l-4.2-98.1c-20.8-19-44.6-34.8-71.3-47l-1.5,95Z"/>
    <path class="st3" d="M488.4,327.2l-1.3-92.7c-2.9-.2-5.8-.5-8.8-.7-29.5-1.6-56.5-1.5-81.5,0l2.9,90.9c9.5-.5,19.1-.8,29-.8,20.7,0,40.6,1.1,59.6,3.2Z"/>
    <path class="st3" d="M732.8,371.4c-8.7-14.3-18.6-27.5-29.5-39.7l4.2,98.8c10.4,12.2,19.3,25.3,26.7,39.3,2.2,4.2,4.3,8.5,6.2,12.8,1.8,4,3.3,7.5,5.3,13.1.2.5.4,1,.5,1.5,7,19.9,10.8,40.9,11.5,63,12.2-46.4,14.3-91.6,4-125.1-7.1-21.9-16.7-43.3-29-63.6Z"/>
    <path class="st3" d="M174.1,406c5.2-4.5,10.5-8.9,16.1-13.1,22.4-16.7,48.2-30.5,77.3-41.6l-1.2-91.2c-34.1,13-61,29.4-82,47.2l-10.2,98.8Z"/>
  </g>
  <path class="st6" d="M281,536.2c-18,0-32.5-5.2-43.3-15.6-10.9-10.4-16.3-24.2-16.3-41.2s5.4-30.8,16.3-41.2c10.9-10.4,25.3-15.6,43.3-15.6s32.4,5.2,43.3,15.6c10.9,10.4,16.3,24.2,16.3,41.2s-5.4,30.8-16.3,41.2c-10.9,10.4-25.3,15.6-43.3,15.6Z"/>
  <path class="st6" d="M533.1,536.2c-18,0-32.5-5.2-43.3-15.6-10.9-10.4-16.3-24.2-16.3-41.2s5.4-30.8,16.3-41.2c10.9-10.4,25.3-15.6,43.3-15.6s32.4,5.2,43.3,15.6c10.9,10.4,16.3,24.2,16.3,41.2s-5.4,30.8-16.3,41.2c-10.9,10.4-25.3,15.6-43.3,15.6Z"/>
  <g class="st2">
    <path class="st1" d="M298.6,327.3c-10.1,48.4-52.6,82.5-94,109.3-36.8,23.8-75.2,45.4-114.8,64.2-27.9,13.3-56.4,25.3-86,34.3M45.6,544c35.1,8.3,72.6-.7,104.2-18.3,31.5-17.5,57.8-43,82.3-69.5,25.3-27.4,49-56.1,71.1-86.1,11.6-15.7,22.8-32,30.4-50M191.7,555.1c90.6-47.7,157.7-137.8,177.4-238.3M202.5,462.9c79.4-22.9,155.7-56.6,226-100.1,25-15.4,49.9-32.7,65.8-57.4M69.2,520.5c27.8,12.8,94.8-9.2,120-20.7,10.7-4.9,20.5-11.4,30.2-18,77-52.5,148.4-113.2,212.7-180.6M19.2,499.3c81.7-4.1,165.9-10,239-46.9,32.2-16.2,61.1-38,89.9-59.6,41.7-31.4,83.4-62.7,125.2-94.1M123.1,458.3c97,1.6,197.6,2.5,286.3-36.8,37.3-16.5,71.3-39.6,105-62.7,22.1-15.1,44.8-30.8,58.9-53.6M92.8,427.3c28.7,1.5,57.6,0,86.3-1.9,116-7.7,232.7-22.3,341.9-62.2,25.2-9.2,50.4-20,71.1-37.1M669.4,389.3c5.1,32.7,10.7,65.8,25,95.7,14.3,29.8,53.8,65.8,85.5,75.1M685,388.6c-20.8,73.4-14.5,154,17.2,223.3M720,418.6c-19.1,72.7-10.2,152.4,24.6,219.1M734.7,461.5c-5.5,25.7-5.4,52.3-5.2,78.6.2,24.4.5,49.7,10.3,72,6,13.8,30.8,59.6,58.3,71.1"/>
  </g>
  <path class="st6" d="M703.8,273.7c-33-28.5-72.9-50.6-119.6-66.3-46.7-15.8-98.6-23.6-155.5-23.6s-108.7,7.9-155.5,23.6c-31.4,10.6-59.6,24.1-84.8,40.4,2.6-2.7,5.3-5.3,8-7.9,66.4-62.6,159.1-89.7,275.3-80.4,117.8,9.4,202.4,48.7,251.5,116.9,10.9,15.2,19.7,31.2,26.7,47.8-13.3-18.4-28.7-35.3-46.4-50.5Z"/>
  <path class="st7" d="M471.9,159.5c117.8,9.4,202.4,48.7,251.5,116.9,10.9,15.2,19.7,31.2,26.7,47.8-13.3-18.4-28.7-35.3-46.4-50.5-33-28.5-72.9-50.6-119.6-66.3-46.7-15.8-98.6-23.6-155.5-23.6s-108.7,7.9-155.5,23.6c-31.4,10.6-59.6,24.1-84.8,40.4,2.6-2.7,5.3-5.3,8-7.9,66.4-62.6,159.1-89.7,275.3-80.4Z"/>
</svg>