<?xml version="1.0" encoding="UTF-8"?>
<svg id="Layer_7" xmlns="http://www.w3.org/2000/svg" version="1.1" viewBox="0 0 793.2 830">
  <!-- Generator: Adobe Illustrator 29.5.1, SVG Export Plug-In . SVG Version: 2.1.0 Build 141)  -->
  <defs>
    <style>
      .st0 {
        fill: #ffb0a1;
      }

      .st1 {
        fill: #fff9ed;
      }

      .st2 {
        fill: #333;
      }

      .st3 {
        fill: none;
        stroke: #9e3a26;
        stroke-miterlimit: 10;
        stroke-width: 23.2px;
      }

      .st4 {
        fill: #86c8bd;
      }
    </style>
  </defs>
  <ellipse class="st1" cx="411.3" cy="506" rx="371.8" ry="313.1"/>
  <path class="st2" d="M766.1,475.5c0,.7-1.3,1.8-2.8,2.1,1.6,24.2.1,48.7-4.1,72.9-13.2,75-53.2,146.3-112.5,190.4-29,21.6-63.5,38.4-103.6,50.6-40.1,12.2-85.1,18.2-134.9,18.2-74.4,0-155-13.4-218.1-55.1-69.6-46-114.2-124.7-126.5-207.8-9.3,1.3-19.3.4-27.5-2.3-1.5-.6-2.8-1.7-4.1-3,3.3,34.5,11.6,66.7,24.9,96.5,17.8,39.6,43.2,73.7,76.2,102.1,33,28.4,72.9,50.5,119.6,66.3,46.7,15.7,98.5,23.6,155.4,23.6s108.7-7.9,155.5-23.6c46.7-15.8,86.6-37.9,119.6-66.3,13.7-11.8,26-24.5,37-38.2,27.1-32.8,43.9-69,54.4-106.7,0,.2,0,.5,0,.7,1.5-5.3,2.8-10.7,4-16.1,5.8-25.3,9-51.1,10.6-77,1.3-15.4,2-31.5,1.9-47.9-10.8,3.4-19.8,9.4-25,20.6Z"/>
  <path class="st2" d="M260.5,536.2c-18,0-32.5-5.2-43.3-15.6-10.9-10.4-16.3-24.2-16.3-41.2s5.4-30.8,16.3-41.2c10.9-10.4,25.3-15.6,43.3-15.6s32.4,5.2,43.3,15.6c10.9,10.4,16.3,24.2,16.3,41.2s-5.4,30.8-16.3,41.2c-10.9,10.4-25.3,15.6-43.3,15.6Z"/>
  <path class="st2" d="M512.5,536.2c-18,0-32.5-5.2-43.3-15.6-10.9-10.4-16.3-24.2-16.3-41.2s5.4-30.8,16.3-41.2c10.9-10.4,25.3-15.6,43.3-15.6s32.4,5.2,43.3,15.6c10.9,10.4,16.3,24.2,16.3,41.2s-5.4,30.8-16.3,41.2c-10.9,10.4-25.3,15.6-43.3,15.6Z"/>
  <path class="st0" d="M265.5,632.6c0,21.9-6.3,39.4-19,52.6-12.6,13.2-29.3,19.8-50,19.8s-37.4-6.6-50-19.8c-12.6-13.2-19-30.7-19-52.6s6.3-39.4,19-52.6c12.7-13.2,29.3-19.8,50-19.8s37.4,6.6,50,19.8c12.7,13.2,19,30.8,19,52.6Z"/>
  <path class="st0" d="M651.7,632.6c0,21.9-6.3,39.4-19,52.6-12.6,13.2-29.3,19.8-50,19.8s-37.4-6.6-50-19.8c-12.6-13.2-19-30.7-19-52.6s6.3-39.4,19-52.6c12.7-13.2,29.3-19.8,50-19.8s37.4,6.6,50,19.8c12.7,13.2,19,30.8,19,52.6Z"/>
  <path class="st3" d="M127.5,560.2c-34.1,0-51.6-35.9-49.5-51.9,2.1-15.9,14.2-29.2,28.6-34.6,5.6-2.1,11.9-3.1,17.6-1.1,15.4,5.3,16.2,31.7,2.4,40.8-13.7,9.1-33.5,1.3-41.7-13.5-8.2-14.7-6.5-33.7,0-49.3,3.3-7.8,8.2-15.4,15.5-19.2,7.3-3.7,17.5-2.2,21.7,5.2,4.9,8.6-.9,20.4-9.4,24.9-12.7,6.7-29.3.9-38.1-10.9-8.9-11.7-11-27.8-9.1-42.6,2.2-16.5,9.4-32.7,21.9-43,12.5-10.3,30.4-13.7,44.7-6.5,14.3,7.3,22.9,26.1,17.4,41.7-1.3,3.7-3.3,7.1-6.1,9.8-7,6.7-18.1,7.1-26.8,2.9-8.6-4.2-15-12.2-19.9-20.8-8-14.1-12.4-31.4-8-47.1,4.4-15.8,19.5-28.7,35-26.2,15.4,2.5,26.1,23.8,16.9,37-10.9,15.4-36.1,7.3-45.7-9-13-22-7.3-52.7,9.8-71.4,17.1-18.6,40.1-28,64.7-25.5,9.4,1,16.1,4.4,22.9,11.1,6.9,6.7,9.6,17.7,4.1,25.7-7.4,10.8-17.7,10.1-27.5,1.6-16.9-14.5-22.1-42-11.8-62.2,10.3-20.2,34.9-31,55.8-24.4,9,2.9,18.3,10.8,17.1,20.6-.9,7.8-8.1,13.3-15.4,15-19.4,4.7-40.5-14.3-39.1-35.1,1.6-23.3,24.9-38,46.4-43.9,17.6-4.9,36-6.7,54.2-5.4,12.2.9,25.1,3.5,34,12.4,8.9,8.9,11.4,25.6,2.4,34.3-9.5,9.1-26.7,3.2-31.8-9.1-5.1-12.4.2-27.5,9.9-36.3,9.7-8.8,22.9-12.3,35.7-13.3,10.3-.8,21.2-.1,30.1,5.3,9,5.4,15.4,16.5,13.1,27.1-2.9,13-17.2,19.7-30,19.7-3.9,0-8-.6-11.1-3.1-8.9-7.3-2-22.4,6.5-30.1,16.1-14.8,36.9-24,58.3-25.8,14.1-1.2,31.3-1.2,44.8,3.4,14.2,4.8,24.2,52.6,6.8,53.1-7.5.2-26.3-28.6-11.2-46.3,9.4-11.1,36-9.4,50.1-7.9,21.1,2.2,41.7,9.1,60.1,20.2,11.2,6.7,22.9,17.8,21,31.2-2.1,15.2-19.3,21.5-33.6,24.7-9.3,2.1-23.1.6-22.9-9.4,0-4.5,3.6-8.1,7.1-10.8,30.6-23.4,74.8-15.7,106.4,6,6.9,4.7,13.7,10.4,16.6,18.5,2.9,8.1.3,18.8-7.4,21.9-10.4,4.2-21-9.8-18.2-21.1,2.8-11.3,9.5-16.9,20.2-20.3,17.5-5.6,37.3-5.5,54.2,2.3,22.9,10.5,29.5,44,15.5,65.6-2.5,3.8-15.1,16.4-19.1,18.4-13.7,6.8-22.8,12.3-26.8,4-4-8.3,1-25.8,19.8-34.6,17.7-8.3,34.2-9.6,44,0,16.3,16.1,15.7,37.6,13.4,49.6-8.5,43.7-23.6,66.5-34.6,58.5-11-8-6.3-31.9,11.9-36.1,18.2-4.2,35.9,2.7,49,16.5,15.4,16.3,21.4,59,8.2,77.3-13.2,18.3-30.8,27-49.8,15.8-7.7-4.5-13.3-14.1-9.6-22.6,2.8-6.4,11.2-12.8,15.2-13.8,30.3-7.3,40.4,7.8,54.2,36.8,4.1,8.7,4.9,28-1.8,38.3-4.1,6.3-9.7,11.1-16.5,13.9-25.5,10.6-73.4,12.7-67.5-10.1,5.9-22.8,43.2,1.7,45.9,23.3,2.7,21.6,1.2,49.9-30.8,69.3M738.7,528.1c23.4-7.1,37.5-37.2,26.2-60.2-11.3-23-47-29.1-61.6-9.3-3.1,4.2-5.3,9.7-4,15,2,8.3,11.8,12.9,19.8,11.3,8-1.6,14.2-7.9,18.9-14.7,11.8-17.3,15.6-42.6,2.8-60.2-12.8-17.6-57.2-21.1-51.4,1.7s46.7-2.1,64-23.6c4.6-5.7,7.2-12.6,7.7-20.1.9-12.2-9.1-28.8-16.9-34.4-26-18.8-42.1-27.2-65.2-6.2-3.1,2.8-7.3,12.4-6.7,19.4.8,9.2,10.3,14.9,19.3,15.1,22.1.6,33.3-15.5,36.1-37.9,2.8-22.4-23-56.9-44.4-63.8-18.2-5.8-37-3.3-50.9,9.1-13.9,12.4-6.6,35.7,7,37.4,13.5,1.7,15.8-25.5,2.2-67.9M713.9,414.8c2.3-12,3-33.5-13.4-49.6-9.7-9.6-26.3-8.3-44,0-18.8,8.8-23.7,26.3-19.8,34.6,4,8.3,13.1,2.7,26.8-4,4-2,16.6-14.6,19.1-18.4,14-21.6,7.4-55.1-15.5-65.6-16.9-7.7-36.7-7.8-54.2-2.3-10.7,3.4-17.4,9-20.2,20.3-2.8,11.3,7.8,25.3,18.2,21.1,7.7-3.1,10.3-13.9,7.4-21.9-2.9-8.1-9.7-13.8-16.6-18.5-31.6-21.7-75.9-29.4-106.4-6-3.5,2.7-7,6.3-7.1,10.8-.2,10,13.6,11.5,22.9,9.4,14.3-3.2,31.5-9.5,33.6-24.7,1.9-13.4-9.8-24.5-21-31.2-18.4-11-39-17.9-60.1-20.2M702.8,217.1c-14.1-1.5-40.7-3.2-50.1,7.9-15.1,17.8,3.7,46.5,11.2,46.3,17.4-.4,7.4-48.2-6.8-53.1-13.5-4.6-30.7-4.5-44.8-3.4-21.4,1.8-42.2,11-58.3,25.8-8.5,7.8-15.4,22.9-6.5,30.1,3.1,2.5,7.2,3.1,11.1,3.1,12.7,0,27.1-6.6,30-19.7,2.3-10.6-4.1-21.7-13.1-27.1-9-5.4-19.8-6.1-30.1-5.3-12.8,1-26,4.5-35.7,13.3-9.7,8.8-15,23.9-9.9,36.3,5.1,12.4,22.3,18.2,31.8,9.1,9.1-8.7,6.5-25.4-2.4-34.3-8.9-8.9-21.8-11.5-34-12.4-18.2-1.3-36.5.6-54.2,5.4-21.5,6-44.8,20.6-46.4,43.9-1.4,20.9,19.7,39.9,39.1,35.1,7.3-1.8,14.5-7.2,15.4-15,1.2-9.8-8.1-17.8-17.1-20.6-20.9-6.6-45.5,4.1-55.8,24.4-10.3,20.2-5,47.7,11.8,62.2,9.8,8.4,20.2,9.2,27.5-1.6,5.5-8,2.7-18.9-4.1-25.7-6.9-6.7-13.6-10.2-22.9-11.1-24.5-2.5-47.6,6.9-64.7,25.5M51.6,282.8c-17.1,18.6-22.7,49.4-9.8,71.4,9.6,16.3,34.8,24.5,45.7,9,9.3-13.2-1.4-34.5-16.9-37-15.4-2.5-30.6,10.4-35,26.2-4.4,15.8,0,33,8,47.1,4.9,8.6,11.3,16.6,19.9,20.8,8.6,4.2,19.7,3.8,26.8-2.9,2.8-2.6,4.8-6.1,6.1-9.8,5.5-15.6-3.2-34.4-17.4-41.7-14.3-7.3-32.2-3.8-44.7,6.5-12.5,10.3-19.7,26.5-21.9,43-1.9,14.8.2,30.9,9.1,42.6,8.9,11.7,25.4,17.6,38.1,10.9,8.5-4.5,14.3-16.3,9.4-24.9-4.2-7.3-14.4-8.9-21.7-5.2-7.3,3.7-12.2,11.3-15.5,19.2-6.6,15.6-8.3,34.5,0,49.3,8.2,14.7,28,22.5,41.7,13.5,13.7-9.1,13-35.5-2.4-40.8-5.7-2-12-.9-17.6,1.1-14.4,5.3-26.5,18.7-28.6,34.6-2.1,15.9,7.7,33.3,22.6,37,14.9,3.7,31.8,3,47.1-11.3M169.9,101.6c-23.9,8.4-43.3,32.8-42.2,58.4.8,18.9,19.2,38,36.1,29.5,14.4-7.3,15-31.1,2.6-40.6-12.5-9.5-31.9-5.2-43.2,6.6-11.3,11.8-15.5,29.1-15.1,45.3.2,9.9,2.1,20,7.7,27.7,5.6,7.8,15.6,12.7,25,10.1,3.7-1,7.1-3.1,9.9-5.8,12.2-11.2,13.4-31.9,4.3-45-9.1-13.1-26.6-18.6-42.5-15.3-15.8,3.2-29.9,14.1-39.5,27.6-8.7,12.2-14.3,27.4-12,41.9,2.3,14.5,14.1,27.4,28.5,27.5,9.7,0,20.3-7.6,20-17.5-.2-8.4-8.5-14.6-16.7-14.8-8.2-.2-16.1,4.3-22.7,9.6-13.2,10.6-23.5,26.6-23.3,43.4.3,16.9,14.1,33.1,30.5,31.5,16.4-1.5,28.2-25.2,17.1-37.2-4.1-4.4-10.1-6.5-16.1-7.3-15.2-2.1-32.2,4-41.5,17-9.3,13.1-8.9,33,2.5,43.2,11.4,10.2,26.6,17.7,46.9,12.2M269.4,253.3c-24.5-6.2-54.2,3.4-67.5,25.2-9.8,16.2-5.1,42.3,13.7,44.5,16,1.9,29.7-17.6,24.6-32.4-5.1-14.8-23.7-22-39.6-18.4-16,3.6-29,15.7-37.7,29.4-5.3,8.3-9.3,17.8-8.9,27.4.4,9.6,6,19.2,15.2,22.2,3.6,1.2,7.6,1.3,11.5.7,16.4-2.6,28.8-19.1,28.5-35.1-.3-16-11.9-30.2-26.9-36.3-15-6.1-32.7-4.8-48.2,1.1-14,5.3-27.1,14.8-33.2,28.2-6.1,13.4-3.4,30.7,8.5,38.7,8,5.4,21.1,4.9,26.4-3.5,4.5-7.2,1-16.9-5.7-21.6-6.8-4.7-15.8-5.4-24.2-4.6-16.9,1.5-34.3,9.1-43.4,23.3-9.1,14.2-6.6,35.3,7.9,43.1,14.5,7.8,37.4-5.4,34.8-21.5-1-5.9-4.8-11-9.4-15-11.5-10.2-29-14.5-44-8.8-15,5.7-25.7,22.6-21.9,37.4,3.8,14.8,12.4,29.5,32.3,36.1M609.5,178.7c-19.7-15.9-50.7-19.6-71.8-5.2-15.7,10.6-22.2,36.3-6.1,46.2,13.8,8.4,34.4-3.6,35.9-19.2,1.5-15.6-12.3-29.8-28.3-33.2-16-3.4-32.9,2.1-46.5,11-8.3,5.4-15.9,12.3-19.5,21.2-3.7,8.9-2.6,19.9,4.6,26.5,2.8,2.6,6.4,4.4,10.1,5.4,15.9,4.5,34.2-5.3,40.5-20,6.4-14.7,1.8-32.4-9.3-44.2-11.1-11.8-27.7-18-44.3-19.1-14.9-1-30.8,2.2-41.9,11.8-11.1,9.6-15.9,26.4-8.4,38.7,5,8.2,17.2,13.3,25.4,7.8,7.1-4.7,8-14.9,3.8-22-4.2-7.1-12.1-11.4-20.1-14.3-16-5.6-35-6.1-49.2,3-14.2,9.1-20.7,29.4-10.8,42.5,9.9,13.1,36.3,10.7,40.6-5,1.6-5.8.2-12-2.3-17.5-6.2-14.1-20.3-25.3-36.3-26.4-16-1-32.8,9.8-35.5,24.9-2.7,15.1-2.7,33.9,14.3,46.3s39,11.6,46.4,1-2.2-30.8-4.2-32.1M415,287.8c-14.6-20.7-43.4-32.7-67.7-24.7-18,5.9-31.3,28.8-18.5,42.7,10.9,11.9,34,6,39.7-8.6,5.7-14.6-3.7-32.1-18.2-39.7-14.5-7.6-32.3-7-47.7-2.2-9.4,2.9-18.6,7.5-24.6,15-5.9,7.5-7.9,18.5-2.9,26.8,2,3.3,4.9,5.9,8.2,8,14.1,8.7,34.3,4.2,44.5-8.2,10.1-12.4,10.6-30.7,3.2-45-7.4-14.4-21.7-24.9-37.3-30.5-14.1-5-30.2-6.3-43.6-.2-13.3,6.2-22.5,21.1-18.7,34.9,2.6,9.3,12.9,17.5,22.3,14.5,8.1-2.5,11.7-12.2,9.7-20.1-2.1-8-8.5-14.3-15.4-19.2-13.8-9.8-32-15.4-48.1-10.5-16.1,4.9-28,22.6-22,37.9,6,15.4,32,20.2,40.4,6.3,3.1-5.1,3.5-11.5,2.6-17.5-2.2-15.2-12.6-29.9-27.7-35.3-15.1-5.4-34.2.4-40.9,14.2-6.7,13.8-9.7,30.4,1.1,48.4M368.2,146.1c-22.1-12.3-53.3-10.6-71.7,7.1-13.6,13.2-15.7,39.6,1.8,46.5,15,6,33.2-9.4,32.1-25-1.2-15.6-17.3-27.3-33.6-27.9-16.3-.6-32.1,7.7-44,18.8-7.2,6.7-13.5,14.8-15.6,24.2-2.1,9.4.9,20.1,9,25.4,3.2,2.1,7,3.2,10.9,3.6,16.5,1.7,32.8-11.1,36.5-26.6,3.8-15.6-3.8-32.2-16.7-42-12.9-9.7-30.3-13-46.9-11.3-14.9,1.6-30,7.4-39.3,18.8-9.3,11.4-11.2,28.8-1.7,39.6,6.4,7.3,19.2,10.1,26.4,3.4,6.2-5.8,5.3-16.1,0-22.3-5.3-6.3-13.9-9.2-22.2-10.6-16.7-2.8-35.5,0-47.9,11.4-12.4,11.4-15.4,32.5-3.4,43.7,12,11.2,37.6,4.4,39.1-11.9.6-6-1.9-11.9-5.2-16.9-8.6-12.8-24.3-21.5-40.3-19.8-16,1.7-30.6,15.2-30.7,30.6,0,15.3,4.4,31.6,22,43.2M423.3,134.1c-5.9-24.8-52.6-42.4-75.8-31.8-17.2,7.9-28,32.1-13.7,44.5,12.2,10.6,34.5,2.2,38.6-12.9,4.1-15.1-7.2-31.5-22.4-37.5-15.2-6-32.8-3.4-47.7,3.1-9,3.9-17.7,9.5-22.8,17.6-5.1,8.1-5.9,19.2,0,26.9,2.3,3,5.6,5.4,9.1,7,15,7.1,34.6.4,43.3-13,8.7-13.4,7.2-31.7-1.8-45.1-8.9-13.5-24.3-22.4-40.5-26.2-14.5-3.5-30.8-3-43.3,4.6-12.6,7.6-20.1,23.4-14.7,36.8,3.6,9,14.7,15.9,23.8,11.9,7.7-3.4,10.3-13.4,7.4-21.1-2.9-7.7-10-13.3-17.4-17.4-14.8-8.2-33.5-11.8-49-5.2-15.5,6.6-25.3,25.5-17.7,40.1,7.6,14.6,34,16.6,40.9,1.8,2.5-5.5,2.2-11.8.7-17.6-3.8-14.9-15.8-28.3-31.4-32-15.6-3.7-33.9,4.2-39.1,18.6-5.2,14.4-1.8,41.6,10.9,58.3M586.9,150.2c0-30.5-30.9-48-56.2-44.5-18.8,2.6-36,22.7-25.9,38.7,8.6,13.6,32.4,12,40.6-1.4,8.2-13.3,2.1-32.2-10.7-42.3-12.9-10.1-30.5-12.6-46.6-10.7-9.8,1.2-19.7,4-26.9,10.4-7.2,6.3-11.1,16.7-7.6,25.8,1.4,3.6,3.8,6.7,6.7,9.3,12.3,11.1,33,10.3,45.2,0,12.2-10.4,15.9-28.3,11.2-43.7-4.7-15.5-16.9-28.4-31.3-36.7-12.9-7.5-28.6-11.7-42.8-8-14.2,3.7-26,16.7-24.7,31,.9,9.6,9.5,19.5,19.4,18.3,8.4-1.1,13.7-9.9,13.1-18.1-.6-8.2-5.8-15.6-11.7-21.7-11.8-12.1-28.7-20.9-45.4-19-10,1.1-33,9.9-28.4,33.4,3.1,16.2,27.8,25.6,38.6,13.4,4-4.5,5.5-10.7,5.7-16.7.6-15.4-7-31.7-20.9-39.7-13.9-8-33.7-5.7-42.8,6.7-9.1,12.3-14.8,28.1-7.6,47.9s52.9,10.2,58.8-17.9M715.1,316.7c28,21,55.4-9.6,53.5-26.2-3-25.1-17.8-51.3-42.4-58.2-18.3-5.1-42.1,6.5-39.2,25.1,2.4,16,24.9,23.9,37.8,15,12.9-8.9,14.8-28.7,7.1-43.1-7.7-14.4-22.9-23.8-38.4-28.4-9.4-2.8-19.6-4.2-28.8-1.2-9.1,2.9-16.9,10.9-17.3,20.6-.2,3.8.8,7.7,2.4,11.2,6.9,15.1,26.1,22.7,41.5,18,15.3-4.6,25.9-19.6,27.8-35.6,1.9-16.1-4.1-32.7-14-46.1-8.9-12-21.6-22.1-36.1-24.4-14.5-2.3-30.5,4.9-35,18.6-3,9.2,1,21.7,10.5,24.5,8.1,2.4,16.5-3.6,19.2-11.3,2.7-7.8.9-16.6-2.1-24.6-6-15.8-18-30.6-34.1-35.6-16.1-5-35.8,3.1-39.4,19.2-3.6,16.1,15.2,34.6,30.1,27.8,5.5-2.5,9.3-7.6,11.9-13,6.7-13.8,6.2-31.8-3.3-44.7-9.5-12.9-28.6-18.7-41.9-11-13.3,7.7-18.5,46-19.5,66.9M491.4,131.2c16.9,3.8,68.8,6.6,64.2-35.2-4.7-41.8-33.3-69.8-50.5-63.1-17.2,6.7,2.7,92.8,40.7,82.4,17.8-4.9,33.6-14.1,43.4-26.3,11-13.8,9.3-31.8-7.4-46-13.9-11.8-52.6-6.8-48.4,26.8,4.2,33.6,77.5,41.6,85.6,45.8"/>
  <path class="st4" d="M10.7,66.4c3.2-7.6,7.6-11.4,13.3-11.4s7,1,9.5,2.8l73.1,43.7-19.9-82.6c-1.3-5.7-.5-10.3,2.4-13.8,2.8-3.5,7.1-5.2,12.8-5.2h28.5c5.7,0,10,1.8,12.8,5.2,2.8,3.5,3.6,8.1,2.4,13.8l-19.9,82.6,73.1-43.7c3.2-1.9,6.3-2.8,9.5-2.8,6.3,0,10.8,3.8,13.3,11.4l9.5,27.5c1.9,5.1,1.6,9.5-1,13.3-2.5,3.8-6.6,6-12.3,6.6l-85.4,7.6,64.5,55.1c5.1,3.8,7.4,8.1,7.1,12.8-.3,4.7-3,8.7-8.1,11.9l-22.8,17.1c-3.2,2.5-6.6,3.8-10.4,3.8-5.7,0-10.1-3.5-13.3-10.4l-33.2-78.8-33.2,78.8c-3.2,7-7.6,10.4-13.3,10.4s-7.3-1.3-10.4-3.8l-22.8-17.1c-5.1-3.2-7.8-7.1-8.1-11.9-.3-4.7,2-9,7.1-12.8l64.5-55.1-85.4-7.6c-5.7-.6-9.8-2.8-12.3-6.6-2.5-3.8-2.8-8.2-.9-13.3l9.5-27.5Z"/>
</svg>