<?xml version="1.0" encoding="UTF-8"?>
<svg id="Layer_3" xmlns="http://www.w3.org/2000/svg" version="1.1" viewBox="0 0 760.9 830">
  <!-- Generator: Adobe Illustrator 29.5.1, SVG Export Plug-In . SVG Version: 2.1.0 Build 141)  -->
  <defs>
    <style>
      .st0 {
        fill: none;
        stroke: #ffd166;
        stroke-miterlimit: 10;
        stroke-width: 23.2px;
      }

      .st1 {
        fill: #fff9ed;
      }

      .st2 {
        fill: #1bbcb6;
      }

      .st3 {
        fill: #bfb8b2;
      }

      .st4 {
        fill: #333;
      }

      .st5 {
        fill: #666463;
      }

      .st6 {
        fill: #86c8bd;
      }
    </style>
  </defs>
  <path class="st2" d="M472.4,32.9c-5.8,1.4-11.4,3.9-16.7,7.5-5.3,3.6-10.3,7.2-15,10.8-4.7,3.6-10.1,4-16.3,1.2,0-11.1-.4-19.9-1.2-26.3-.8-6.4-4-12.4-9.6-17.9-11.1-11.1-22.2-11.1-33.3,0-11.1,11.1-16.7,27.8-16.7,50l-33.3-33.3-27.5,27.5v11.7c2.8,2.8,6.4,8.3,10.8,16.7,4.4,8.3,8,13.9,10.8,16.7-11.1,0-19.9.4-26.3,1.2-6.4.8-12.4,4-17.9,9.6-11.1,11.1-11.1,22.2,0,33.3l5.8,5.8,38.3,5,11.7,11.7-33.3,33.3,33.3,33.3,33.3-33.3c-2.8,8.3-3,16.4-.8,24.2,2.2,7.8,6.1,14.4,11.7,20,5.5,5.5,11.4,8.6,17.5,9.2,6.1.5,13.3-.6,21.7-3.3,0-5.6.3-12.8.8-21.7.6-8.9,2.2-14.7,5-17.5l5-5c8.3,8.3,17.6,14.3,27.9,17.9,10.3,3.6,19.6,1.3,27.9-7.1,11.1-11.1,14.6-20.7,10.4-28.8-4.2-8.1-13.2-19-27.1-32.9l50-5c0-4.5-.3-8.6-.8-12.5,0-3.3,0-7,0-10.8,0-3.9.3-7.2.8-10l-5.8-5.8c-5.6-5.6-11.5-8.8-17.9-9.6-6.4-.8-15.1-1.3-26.3-1.2,8.3-8.3,16.2-17.7,23.8-27.9,7.5-10.3,7.1-19.6-1.2-27.9-7.2-7.2-13.8-10.2-19.6-8.8Z"/>
  <ellipse class="st1" cx="381.1" cy="506" rx="371.8" ry="313.1"/>
  <path class="st3" d="M695.8,667.7c-.5,20.2,46.4-149,48.8-173.9,18.3-190.6-208.8-297.1-359.3-297.1S-8.6,305.2,18.4,520.5c2.4,18.9,29,115.8,28.2,94.5,10.4-184.3,147.5-281,340.1-275.3,231.1,6.9,344.4,145.8,309,328.1Z"/>
  <path class="st4" d="M702.7,254.8c-55.8-77.4-149.5-121.9-278.6-132.2-127.1-10.1-229.2,20.3-303.6,90.3C46,283.2,14.4,380.7,4.1,453.2c-.3,1.9-.5,3.8-.8,5.7,0,.2,0,.4,0,.6-.9,6.9-1.6,13.9-2.1,21-.1,1.7-.3,3.4-.4,5.1-.1,1.7-.2,3.4-.3,5.1-.4,7.9-.5,15.3-.4,21.9h.1c.7,45.5,9.5,87.3,26.5,125.3,17.8,39.6,43.2,73.7,76.2,102.1,33,28.4,72.9,50.5,119.6,66.3,46.7,15.7,98.5,23.6,155.4,23.6s108.7-7.9,155.5-23.6c46.7-15.8,86.6-37.9,119.6-66.3,13.7-11.8,26-24.5,37-38.2,27.1-32.8,43.9-69,54.4-106.7,0,.2,0,.5,0,.7,1.5-5.3,2.8-10.7,4-16.1,5.8-25.3,9-51.1,10.6-77,6.6-78.1-1.6-172-56.3-247.9ZM729,550.4c-13.2,75-53.2,146.3-112.5,190.4-29,21.6-63.5,38.4-103.6,50.6-40.1,12.2-85.1,18.2-134.9,18.2-74.4,0-155-13.4-218.1-55.1C38.2,674.2-7.1,493.4,62.9,364.8c3.9-7.2,8.2-14.2,12.8-21,25.3-37.2,68-77.7,139.6-103.4h0c0,0,.2,0,.2,0,53.4-19.1,122.8-29.9,213.2-25,154,8.5,231.4,84.3,269.2,146.5,33.8,55.6,42.6,123.6,31.1,188.6Z"/>
  <g>
    <path class="st5" d="M113,326.7c-8.6,9.2-15.9,18.4-22,27.5-38.3,56.4-46.7,122-39.7,180.4,3.4-22.9,10.4-44.6,21.2-64.9,8.3-15.6,18.4-30,30.3-43.3l10.3-99.7Z"/>
    <path class="st5" d="M330.6,326l-2.9-90.8c-35.8,3.4-66.8,9.8-93.7,18.3l1.2,91.2c2.6-.9,5.3-1.7,7.9-2.6,27-8.2,56.2-13.5,87.5-16.2Z"/>
    <path class="st5" d="M542.1,352.3l1.5-94.9c-27.1-10.4-56.8-17.5-88.8-21.2l1.3,93.4c19.9,3,38.8,7.1,56.8,12.6,10.1,3.1,19.9,6.4,29.3,10.1Z"/>
    <path class="st5" d="M560.5,360.1c20.5,9.3,39.3,20.2,56,32.7,7.4,5.5,14.4,11.3,21,17.4l-4.2-98.1c-20.8-19-44.6-34.8-71.3-47l-1.5,95Z"/>
    <path class="st5" d="M437.6,327.2l-1.3-92.7c-2.9-.2-5.8-.5-8.8-.7-29.5-1.6-56.5-1.5-81.5,0l2.9,90.9c9.5-.5,19.1-.8,29-.8,20.7,0,40.6,1.1,59.6,3.2Z"/>
    <path class="st5" d="M682.1,371.4c-8.7-14.3-18.6-27.5-29.5-39.7l4.2,98.8c10.4,12.2,19.3,25.3,26.7,39.3,2.2,4.2,4.3,8.5,6.2,12.8,1.8,4,3.3,7.5,5.3,13.1.2.5.4,1,.5,1.5,7,19.9,10.8,40.9,11.5,63,12.2-46.4,14.3-91.6,4-125.1-7.1-21.9-16.7-43.3-29-63.6Z"/>
    <path class="st5" d="M123.4,406c5.2-4.5,10.5-8.9,16.1-13.1,22.4-16.7,48.2-30.5,77.3-41.6l-1.2-91.2c-34.1,13-61,29.4-82,47.2l-10.2,98.8Z"/>
  </g>
  <path class="st4" d="M230.3,536.2c-18,0-32.5-5.2-43.3-15.6-10.9-10.4-16.3-24.2-16.3-41.2s5.4-30.8,16.3-41.2c10.9-10.4,25.3-15.6,43.3-15.6s32.4,5.2,43.3,15.6c10.9,10.4,16.3,24.2,16.3,41.2s-5.4,30.8-16.3,41.2c-10.9,10.4-25.3,15.6-43.3,15.6Z"/>
  <path class="st4" d="M482.3,536.2c-18,0-32.5-5.2-43.3-15.6-10.9-10.4-16.3-24.2-16.3-41.2s5.4-30.8,16.3-41.2c10.9-10.4,25.3-15.6,43.3-15.6s32.4,5.2,43.3,15.6c10.9,10.4,16.3,24.2,16.3,41.2s-5.4,30.8-16.3,41.2c-10.9,10.4-25.3,15.6-43.3,15.6Z"/>
  <path class="st0" d="M107.5,729.9c-15.3,14.4-32.2,15-47.1,11.3-14.9-3.7-24.6-21.1-22.6-37,2.1-15.9,14.2-29.2,28.6-34.6,5.6-2.1,11.9-3.1,17.6-1.1,15.4,5.3,16.2,31.7,2.4,40.8-13.7,9.1-33.5,1.3-41.7-13.5-8.2-14.7-6.5-33.7,0-49.3,3.3-7.8,8.2-15.4,15.5-19.2,7.3-3.7,17.5-2.2,21.7,5.2,4.9,8.6-.9,20.4-9.4,24.9-12.7,6.7-29.3.9-38.1-10.9-8.9-11.7-11-27.8-9.1-42.6,2.2-16.5,9.4-32.7,21.9-43,12.5-10.3,30.4-13.7,44.7-6.5,14.3,7.3,22.9,26.1,17.4,41.7-1.3,3.7-3.3,7.1-6.1,9.8-7,6.7-18.1,7.1-26.8,2.9-8.6-4.2-15-12.2-19.9-20.8-8-14.1-12.4-31.4-8-47.1,4.4-15.8,19.5-28.7,35-26.2,15.4,2.5,26.1,23.8,16.9,37-10.9,15.4-36.1,7.3-45.7-9-13-22-7.3-52.7,9.8-71.4,17.1-18.6,40.1-28,64.7-25.5,9.4,1,16.1,4.4,22.9,11.1,6.9,6.7,9.6,17.7,4.1,25.7-7.4,10.8-17.7,10.1-27.5,1.6-16.9-14.5-22.1-42-11.8-62.2,10.3-20.2,34.9-31,55.8-24.4,9,2.9,18.3,10.8,17.1,20.6-.9,7.8-8.1,13.3-15.4,15-19.4,4.7-40.5-14.3-39.1-35.1,1.6-23.3,24.9-38,46.4-43.9,17.6-4.9,36-6.7,54.2-5.4,12.2.9,25.1,3.5,34,12.4,8.9,8.9,11.4,25.6,2.4,34.3-9.5,9.1-26.7,3.2-31.8-9.1-5.1-12.4.2-27.5,9.9-36.3,9.7-8.8,22.9-12.3,35.7-13.3,10.3-.8,21.2-.1,30.1,5.3,9,5.4,15.4,16.5,13.1,27.1-2.9,13-17.2,19.7-30,19.7-3.9,0-8-.6-11.1-3.1-8.9-7.3-2-22.4,6.5-30.1,16.1-14.8,36.9-24,58.3-25.8,14.1-1.2,31.3-1.2,44.8,3.4,14.2,4.8,24.2,52.6,6.8,53.1-7.5.2-26.3-28.6-11.2-46.3,9.4-11.1,36-9.4,50.1-7.9,21.1,2.2,41.7,9.1,60.1,20.2,11.2,6.7,22.9,17.8,21,31.2-2.1,15.2-19.3,21.5-33.6,24.7-9.3,2.1-23.1.6-22.9-9.4,0-4.5,3.6-8.1,7.1-10.8,30.6-23.4,74.8-15.7,106.4,6,6.9,4.7,13.7,10.4,16.6,18.5,2.9,8.1.3,18.8-7.4,21.9-10.4,4.2-21-9.8-18.2-21.1,2.8-11.3,9.5-16.9,20.2-20.3,17.5-5.6,37.3-5.5,54.2,2.3,22.9,10.5,29.5,44,15.5,65.6-2.5,3.8-15.1,16.4-19.1,18.4-13.7,6.8-22.8,12.3-26.8,4-4-8.3,1-25.8,19.8-34.6,17.7-8.3,34.2-9.6,44,0,16.3,16.1,15.7,37.6,13.4,49.6-8.5,43.7-23.6,66.5-34.6,58.5-11-8-6.3-31.9,11.9-36.1,18.2-4.2,35.9,2.7,49,16.5,15.4,16.3,21.4,59,8.2,77.3-13.2,18.3-30.8,27-49.8,15.8-7.7-4.5-13.3-14.1-9.6-22.6,2.8-6.4,11.2-12.8,15.2-13.8,30.3-7.3,40.4,7.8,54.2,36.8,4.1,8.7,4.9,28-1.8,38.3-4.1,6.3-9.7,11.1-16.5,13.9-25.5,10.6-73.4,12.7-67.5-10.1,5.9-22.8,43.2,1.7,45.9,23.3,2.7,21.6-12.8,41.9-31.4,51.4-7.3,3.7-15.8,6.2-23.6,3.8-7.8-2.4-14.2-11.2-11.9-19.4,1.5-5.3,6-9,10.7-11.2,22.3-10.4,50.6,12.2,49.5,37.8-1.1,25.6-28,45.2-51.9,40.1"/>
  <path class="st6" d="M421.2,159.5c117.8,9.4,202.4,48.7,251.5,116.9,10.9,15.2,19.7,31.2,26.7,47.8-13.3-18.4-28.7-35.3-46.4-50.5-33-28.5-72.9-50.6-119.6-66.3-46.7-15.8-98.6-23.6-155.5-23.6s-108.7,7.9-155.5,23.6c-31.4,10.6-59.6,24.1-84.8,40.4,2.6-2.7,5.3-5.3,8-7.9,66.4-62.6,159.1-89.7,275.3-80.4Z"/>
</svg>