<?xml version="1.0" encoding="UTF-8"?>
<svg xmlns="http://www.w3.org/2000/svg" version="1.1" viewBox="0 0 304 80">
  <!-- Generator: Adobe Illustrator 29.5.1, SVG Export Plug-In . SVG Version: 2.1.0 Build 141)  -->
  <defs>
    <style>
      .st0 {
        isolation: isolate;
      }

      .st1 {
        fill: #333;
      }
    </style>
  </defs>
  <g class="st0">
    <g id="Layer_39">
      <g id="Logo">
        <path class="st1" d="M70.5,51.1c-.7,1.3-1.6,2.4-2.5,3.5-1.9,2.3-4.3,4.2-7.1,5.7.7-1.9,1.3-3.8,1.8-5.6.6-1.8,1.1-3.6,1.5-5.2.5-1.6.9-3.1,1.3-4.4.4-1.3.7-2.4,1.1-3.2l-1.1-.5c0,.2-.2.5-.3.7,0,.2-.2.5-.3.8-.4.9-.8,1.9-1.3,3-.5,1.1-1,2.3-1.6,3.4-.6,1.2-1.2,2.3-1.8,3.4-.7,1.1-1.3,2.1-2.1,3-.7.9-1.5,1.6-2.3,2.1s-1.7.8-2.6.8-1.2-.1-1.7-.4c-.6-.3-1.1-.6-1.5-1.1-.4-.5-.8-1.1-1-1.8-.3-.7-.4-1.6-.4-2.5s.1-1.4.4-2.5c.3-1.1.6-2.2,1-3.4.4-1.2.8-2.4,1.3-3.5.5-1.2.9-2.1,1.3-2.9l-1.2-.5c-.3.6-.6,1.5-1.1,2.5-.5,1.1-.9,2.2-1.4,3.5-.3.9-.6,1.7-.8,2.6s-.8,2.3-1.4,3.4c-1.7,3-4,5.9-5.2,6.6-2.3,1.4-3.3.5-3.6.2-1.3-1.2-.8-3.3,1.4-6.4,2.8-4,6-8.9,6-11.7s-.7-3.6-2-4.9c-1.7-1.7-4.5-2.6-7.5-2.6-3.6,0-6.9,1.2-9.8,3.3-.1-.4-.3-.8-.5-1.2-2-3.9-6.1-6.3-10.9-6.4-4.9-.2-9.4,2.1-11.8,6-5.6,9-2.4,15.2,2.9,23.6,3.4,5.4,4.1,10.9,4.5,14.2.3,2.2.4,3.3,1.3,3.6,0,0,.2,0,.3,0,.6,0,1.2-.6,1.9-1.5,2.6-3.6,4.5-5.2,5.2-5.5l-.6-1.1c-1,.5-3,2.4-5.6,5.9-.4.5-.6.8-.7.9-.1-.5-.3-1.5-.4-2.4-.4-3.4-1.1-9.1-4.7-14.8-5.3-8.3-8.1-13.9-2.9-22.2,2.2-3.5,6.3-5.6,10.7-5.4,4.3.1,7.9,2.3,9.8,5.8.2.5.4,1,.6,1.5-.5.5-1,.9-1.5,1.5-2.7,3-4.4,7-4.2,9.9,0,1.2.6,1.6,1,1.7.7.2,1.6-.2,2.6-1.4,2-2.4,4.1-7.1,3.5-11.1,2.2-1.8,5.3-3.3,9.5-3.4,2.7,0,5.1.7,6.6,2.2,1.1,1,1.6,2.4,1.6,4,0,2.8-4.2,8.7-5.8,11-2.6,3.7-3,6.4-1.2,8.1.9.8,2.6,1.5,5.2,0,1.3-.8,3.4-3.3,5.1-6.1,0,.9.2,1.6.4,2.4.3.8.7,1.5,1.2,2.1.5.6,1.1,1.1,1.9,1.4.7.3,1.5.5,2.4.5s1.8-.2,2.6-.7c.9-.5,1.7-1.1,2.5-1.9.8-.8,1.5-1.8,2.2-2.9.7-1.1,1.4-2.3,2-3.6-.5,1.6-1,3.3-1.5,5-.5,1.7-1.1,3.5-1.8,5.2-2,.9-4.1,1.6-6.4,2.2-.9.2-1.8.4-2.9.6-1,.2-2.1.4-3.1.7-1,.3-2,.6-3,1-1,.4-1.8.9-2.6,1.6-.7.6-1.3,1.4-1.8,2.4s-.7,2.1-.7,3.4.2,2,.6,2.9c.4.9.9,1.6,1.5,2.2.6.6,1.4,1.1,2.2,1.4.8.3,1.7.5,2.7.5,1.6,0,3.1-.5,4.5-1.5,1.4-1,2.7-2.3,3.9-4,1.2-1.7,2.3-3.6,3.3-5.7,1-2.2,1.9-4.4,2.8-6.7,1.4-.7,2.8-1.5,4.1-2.4,1.3-.9,2.5-2,3.7-3.2,1.1-1.2,2.2-2.6,3.2-4.2,1-1.5.1-2.5-.7-1.1ZM22.7,47.1c-1,1.5-1.8,2-2,2.1,0,0-.1-.2-.1-.6-.2-2.2,1-5.8,3.9-9,.2-.3.5-.5.8-.8.1,2.8-1,6-2.5,8.3ZM56.1,68.8c-.9,1.9-1.9,3.6-3,5.1-1.1,1.5-2.2,2.6-3.5,3.5-1.2.9-2.5,1.3-3.9,1.3s-1.5-.2-2.1-.5c-.7-.3-1.3-.7-1.8-1.2-.5-.5-.9-1.1-1.2-1.8-.3-.7-.4-1.4-.4-2.2,0-1.2.2-2.2.6-3,.4-.8,1-1.5,1.7-2.1.7-.6,1.5-1,2.4-1.4.9-.4,1.8-.7,2.8-.9.9-.2,1.9-.4,2.8-.6.9-.2,1.8-.3,2.6-.5,1-.2,1.9-.5,2.9-.8.9-.3,1.9-.6,2.8-1-.8,2.1-1.7,4.1-2.6,6.1Z"/>
        <path class="st1" d="M68.7,34.4v29h78.7v-29h-78.7ZM99.6,60.9h-6c-.3,0-.5-.2-.5-.5,0-.6.1-1.3.3-2,.2-.7.5-1.5.7-2.4.3-.9.5-2,.7-3.2.2-1.2.3-2.7.3-4.5,0-2.7-.3-4.9-.9-6.6-.6-1.6-1.5-2.5-2.7-2.5s-1.6.4-2.4,1.3c-.7.9-1.4,2.2-1.9,4.1-.1.7-.2,1.5-.3,2.3-.1.8-.2,1.7-.2,2.8s.1,2.6.3,3.7c.2,1.1.5,2,.7,2.8.3.8.5,1.6.7,2.2.2.7.3,1.3.3,1.9s-.2.5-.5.5h-6c-.3,0-.5-.2-.5-.5,0-.6.1-1.3.3-2,.2-.7.5-1.5.7-2.4.3-.9.5-2,.7-3.2.2-1.2.3-2.7.3-4.5,0-2.7-.3-4.9-.9-6.6-.6-1.6-1.5-2.5-2.7-2.5s-1.8.5-2.6,1.6c-.9,1-1.5,2.7-1.9,4.9-.1.9-.2,2-.2,3.2s.1,3,.3,4.2c.2,1.2.5,2.2.7,3.1.3.9.5,1.6.7,2.3.2.7.3,1.3.3,2s-.2.5-.5.5h-6c-.3,0-.5-.2-.5-.5,0-.6.1-1.3.3-2,.2-.7.5-1.4.7-2.3.3-.9.5-1.9.7-3.1.2-1.2.3-2.6.3-4.2s-.1-3-.3-4.2c-.2-1.2-.4-2.2-.7-3.1-.3-.9-.5-1.6-.7-2.3-.2-.7-.3-1.3-.3-2s.2-.5.5-.5h5.5c.3,0,.5.2.5.5s0,.9-.1,1.3c0,.4-.2.9-.3,1.4.7-1.1,1.5-2,2.4-2.6,1-.7,2-1,3.2-1s2.5.4,3.5,1.3c1,.9,1.5,2.1,1.7,3.6.7-1.5,1.5-2.7,2.5-3.5,1-.9,2.2-1.3,3.6-1.3s2.8.5,3.8,1.6c1,1.1,1.5,2.5,1.5,4.4s0,1.1-.1,1.6c0,.5-.2,1.1-.3,1.7-.1.6-.2,1.2-.3,1.9,0,.7-.1,1.4-.1,2.2,0,1.4.1,2.6.3,3.7.2,1.1.5,2,.7,2.8.3.8.5,1.6.7,2.2.2.7.3,1.3.3,1.9s-.2.5-.5.5ZM109.2,53.1c.2,1.2.5,2.2.7,3.1.3.9.5,1.6.7,2.3.2.7.3,1.3.3,2s-.2.5-.5.5h-6c-.3,0-.5-.2-.5-.5,0-.6.1-1.3.3-2,.2-.7.5-1.4.7-2.3.3-.9.5-1.9.7-3.1.2-1.2.3-2.6.3-4.2s-.1-3-.3-4.2c-.2-1.2-.4-2.2-.7-3.1-.3-.9-.5-1.6-.7-2.3-.2-.7-.3-1.3-.3-2s.2-.5.5-.5h6c.3,0,.5.2.5.5,0,.6-.1,1.3-.3,2-.2.7-.4,1.4-.7,2.3-.3.9-.5,1.9-.7,3.1-.2,1.2-.3,2.6-.3,4.2s.1,3,.3,4.2ZM134.5,60.9h-6c-.3,0-.5-.2-.5-.5,0-.6.1-1.3.3-2,.2-.7.5-1.4.7-2.3.3-.9.5-1.9.7-3.1.2-1.2.3-2.6.3-4.2,0-3-.4-5.4-1.2-7-.8-1.7-2-2.5-3.7-2.5s-2.4.5-3.3,1.5c-.9,1-1.6,2.4-2,4.2,0,.6-.1,1.2-.2,1.8,0,.6,0,1.3,0,2.1,0,1.6.1,3,.3,4.2.2,1.2.5,2.2.7,3.1.3.9.5,1.6.7,2.3.2.7.3,1.3.3,2s-.2.5-.5.5h-6c-.3,0-.5-.2-.5-.5,0-.6.1-1.3.3-2,.2-.7.5-1.4.7-2.3.3-.9.5-1.9.7-3.1.2-1.2.3-2.6.3-4.2s-.1-3-.3-4.2c-.2-1.2-.4-2.2-.7-3.1-.3-.9-.5-1.6-.7-2.3-.2-.7-.3-1.3-.3-2s.2-.5.5-.5h5.5c.3,0,.5.2.5.5s0,.9-.1,1.3c0,.4-.2.9-.3,1.4.7-1.1,1.6-1.9,2.7-2.6,1.1-.7,2.4-1,3.8-1s3.4.5,4.6,1.6c1.2,1.1,1.8,2.6,1.8,4.6s0,1-.1,1.5c0,.5-.2,1-.3,1.6s-.2,1.2-.3,1.8c0,.7-.1,1.4-.1,2.2,0,1.4.1,2.6.3,3.7.2,1.1.5,2,.7,2.8.3.8.5,1.6.7,2.2.2.7.3,1.3.3,1.9s-.2.5-.5.5ZM144.1,53.1c.2,1.2.5,2.2.7,3.1.3.9.5,1.6.7,2.3.2.7.3,1.3.3,2s-.2.5-.5.5h-6c-.3,0-.5-.2-.5-.5,0-.6.1-1.3.3-2,.2-.7.5-1.4.7-2.3.3-.9.5-1.9.7-3.1.2-1.2.3-2.6.3-4.2s-.1-3-.3-4.2c-.2-1.2-.4-2.2-.7-3.1-.3-.9-.5-1.6-.7-2.3-.2-.7-.3-1.3-.3-2s.2-.5.5-.5h6c.3,0,.5.2.5.5,0,.6-.1,1.3-.3,2-.2.7-.4,1.4-.7,2.3-.3.9-.5,1.9-.7,3.1-.2,1.2-.3,2.6-.3,4.2s.1,3,.3,4.2Z"/>
        <path class="st1" d="M107.4,31.8c-1.3,0-2.3-.4-3.1-1.1-.8-.7-1.2-1.7-1.2-2.9s.4-2.2,1.2-2.9c.8-.7,1.8-1.1,3.1-1.1s2.3.4,3.1,1.1c.8.7,1.2,1.7,1.2,2.9s-.4,2.2-1.2,2.9c-.8.7-1.8,1.1-3.1,1.1Z"/>
        <path class="st1" d="M142.2,31.8c-1.3,0-2.3-.4-3.1-1.1-.8-.7-1.2-1.7-1.2-2.9s.4-2.2,1.2-2.9c.8-.7,1.8-1.1,3.1-1.1s2.3.4,3.1,1.1c.8.7,1.2,1.7,1.2,2.9s-.4,2.2-1.2,2.9c-.8.7-1.8,1.1-3.1,1.1Z"/>
        <path class="st1" d="M152.8,60.9c-.3,0-.5-.2-.5-.5,0-.6.1-1.4.3-2.4.2-1,.5-2.2.8-3.6.3-1.4.5-3.1.8-5.1.2-2,.3-4.3.3-6.9s-.1-4.7-.3-6.6c-.2-1.9-.4-3.6-.7-5-.3-1.4-.5-2.6-.7-3.6-.2-1-.4-1.8-.4-2.5v-.2c0-.2,0-.4,0-.5s.2-.2.4-.2h6.5c.3,0,.5.2.5.5,0,1.8.2,3.7.5,5.8.3,2,.7,4,1.2,6,.5,2,1.1,3.9,1.7,5.7.7,1.8,1.3,3.4,2,4.8.7,1.4,1.3,2.5,1.9,3.3.6.8,1.2,1.2,1.6,1.2s1-.4,1.6-1.2c.6-.8,1.3-1.9,1.9-3.3.7-1.4,1.3-3,2-4.8.7-1.8,1.2-3.7,1.7-5.7.5-2,.9-4,1.2-6,.3-2,.5-3.9.5-5.8s.2-.5.5-.5h6.5c.2,0,.4,0,.4.2s0,.3,0,.5v.3c0,.7-.2,1.5-.4,2.5-.2,1-.5,2.2-.8,3.6-.3,1.4-.5,3.1-.7,5-.2,1.9-.3,4.1-.3,6.6s.1,5,.3,6.9c.2,2,.5,3.7.8,5.1.3,1.4.5,2.6.8,3.6.2,1,.3,1.8.3,2.4s-.2.5-.5.5h-6.5c-.3,0-.5-.2-.5-.5,0-.6.1-1.4.3-2.4.2-1,.5-2.2.8-3.6.3-1.4.5-3.1.8-5.1.2-2,.3-4.3.3-6.9s0-2.2,0-3.2c0-1-.1-2-.2-2.9-.8,1.5-1.7,3.2-2.5,5-.9,1.8-1.6,3.7-2.3,5.8-.7,2-1.2,4.2-1.7,6.4-.4,2.3-.6,4.6-.6,7s-.2.5-.5.5h-6.5c-.3,0-.5-.2-.5-.5,0-2.4-.2-4.7-.6-7-.4-2.3-1-4.4-1.7-6.4-.7-2-1.4-3.9-2.3-5.8-.8-1.8-1.7-3.5-2.6-5,0,.9-.1,1.9-.2,2.9s0,2.1,0,3.2c0,2.6.1,5,.3,6.9.2,2,.5,3.7.8,5.1.3,1.4.5,2.6.8,3.6.2,1,.3,1.8.3,2.4s-.2.5-.5.5h-6.5Z"/>
        <path class="st1" d="M197.9,37.9c-1.2,0-2.2.3-2.9.8-.7.5-1.2,1.2-1.5,2,.8,0,1.4.3,1.9.8.5.5.7,1.1.7,1.9s-.3,1.5-.8,2c-.5.5-1.1.8-1.9.8s-1.6-.3-2.2-1c-.6-.7-.9-1.5-.9-2.6s.2-1.5.5-2.2c.3-.7.9-1.4,1.6-1.9.7-.6,1.6-1,2.6-1.4s2.3-.5,3.7-.5,2.3.1,3.4.4c1.1.3,2,.7,2.8,1.3.8.6,1.5,1.2,1.9,2,.5.8.7,1.7.7,2.8s0,.9-.1,1.4c0,.5-.2,1-.3,1.5-.1.5-.2,1.1-.3,1.8,0,.7-.1,1.4-.1,2.2,0,1.4.1,2.6.3,3.7.2,1.1.5,2,.7,2.8.3.8.5,1.6.7,2.2.2.7.3,1.3.3,1.9s-.2.5-.5.5h-5.5c-.3,0-.5-.2-.5-.5,0-.5,0-1,.1-1.5,0-.5.2-1.1.4-1.7-.8,1.2-1.8,2.2-3,3-1.2.8-2.7,1.2-4.4,1.2s-3.9-.6-5.1-1.8c-1.3-1.2-1.9-2.6-1.9-4.4s.3-2.1.8-3.1,1.4-1.9,2.7-2.7c1.2-.8,2.8-1.5,4.8-2,1.9-.6,4.3-.9,7.1-1.1-.1-1.2-.3-2.3-.5-3.3s-.6-1.9-1.1-2.6c-.5-.8-1-1.3-1.7-1.8-.7-.4-1.6-.6-2.6-.6ZM203.7,52.6c0-.6.1-1.2.2-1.8,0-.6,0-1.3,0-2s0-.5,0-.7c0-.2,0-.4,0-.7-2,.2-3.8.5-5.2,1-1.4.5-2.5,1-3.4,1.7-.9.6-1.5,1.3-1.8,2.1-.4.8-.6,1.6-.6,2.4,0,1.3.4,2.4,1.2,3.1.8.7,1.9,1.1,3.1,1.1s2.9-.5,4-1.6,1.9-2.6,2.4-4.5Z"/>
        <path class="st1" d="M212.3,52.4c.4,0,.7.2,1,.6.3.4.5.8.8,1.4.3.5.6,1.1.9,1.8.3.6.7,1.2,1.2,1.8.5.5,1,1,1.7,1.4.7.4,1.4.6,2.4.6s2.2-.3,2.8-1c.6-.6,1-1.4,1-2.3s-.3-1.7-.9-2.5c-.6-.7-1.3-1.5-2.2-2.2-.9-.7-1.8-1.4-2.8-2.1-1-.7-1.9-1.5-2.8-2.3-.9-.8-1.6-1.6-2.2-2.6-.6-.9-.9-2-.9-3.1s.5-2.8,1.6-3.8c1.1-1,2.6-1.6,4.6-1.6s1.3,0,1.9.2c.6.1,1,.3,1.5.5.4.2.8.3,1.2.5.4.1.7.2,1,.2s.6-.1.8-.3c.2-.2.3-.4.4-.7.1-.3.2-.5.4-.7.1-.2.3-.3.6-.3.5,0,.7.3.7.8v7.2c0,.5-.2.8-.7.8s-1-.3-1.4-1c-.4-.7-.8-1.4-1.3-2.1-.5-.8-1.1-1.5-1.7-2.1-.7-.7-1.5-1-2.5-1s-1.6.3-2,.8c-.5.5-.7,1.1-.7,1.8s.3,1.6.9,2.2c.6.7,1.3,1.4,2.2,2,.9.7,1.8,1.3,2.8,2,1,.7,1.9,1.4,2.8,2.2.9.8,1.6,1.7,2.2,2.6.6.9.9,2,.9,3.2s-.2,1.8-.6,2.6c-.4.8-.9,1.4-1.6,2-.7.5-1.5.9-2.4,1.2-.9.3-1.9.4-3,.4s-1.5,0-2.2-.2c-.6-.1-1.2-.3-1.7-.5-.5-.2-.9-.3-1.3-.5-.4-.1-.7-.2-1.1-.2s-.6.1-.8.3c-.2.2-.3.4-.4.7-.1.3-.2.5-.4.7-.1.2-.3.3-.6.3-.5,0-.7-.3-.7-.8v-8c0-.5.2-.8.7-.8Z"/>
        <path class="st1" d="M250,53.6c0,.3-.1.8-.4,1.7-.3.8-.7,1.7-1.4,2.6-.7.9-1.5,1.7-2.7,2.4-1.1.7-2.5,1.1-4.2,1.1s-2.9-.3-4.1-.9c-1.2-.6-2.3-1.4-3.2-2.5-.9-1.1-1.6-2.4-2.1-3.9-.5-1.5-.7-3.2-.7-5.1s.3-3.6.8-5.2c.5-1.5,1.2-2.9,2.1-4s2-2,3.2-2.5c1.2-.6,2.6-.9,4.1-.9s2.1.2,3,.5c.9.3,1.7.8,2.4,1.3.7.6,1.2,1.2,1.6,1.9.4.7.6,1.5.6,2.3s-.3,2-.9,2.7c-.6.7-1.3,1-2.2,1s-1.4-.3-1.9-.8c-.5-.5-.8-1.2-.8-2s.2-1.4.7-1.9c.5-.5,1.2-.8,2-.7-.4-.7-.9-1.4-1.6-1.9-.7-.5-1.5-.8-2.5-.8s-1.8.3-2.5.8c-.8.5-1.4,1.2-1.9,2.2-.5.9-.9,2-1.2,3.3-.3,1.3-.4,2.7-.4,4.2s.2,3.2.5,4.5c.3,1.3.8,2.3,1.4,3.1.6.8,1.2,1.4,2,1.8.8.4,1.6.6,2.5.6s2.2-.3,3-.9c.8-.6,1.5-1.2,2-1.9.6-.7,1-1.3,1.4-1.9.4-.6.7-.9,1-.9s.5.2.5.6Z"/>
        <path class="st1" d="M273,43.8c-.5-1.5-1.2-2.9-2.2-3.9-.9-1.1-2.1-1.9-3.4-2.5-1.3-.6-2.7-.9-4.3-.9s-3,.3-4.3.9c-1.3.6-2.4,1.4-3.4,2.5-.9,1.1-1.7,2.4-2.2,3.9-.5,1.5-.8,3.3-.8,5.1s.3,3.6.8,5.1c.5,1.5,1.2,2.9,2.2,3.9.9,1.1,2.1,1.9,3.4,2.5,1.3.6,2.7.9,4.3.9s3-.3,4.3-.9c1.3-.6,2.4-1.4,3.4-2.5.9-1.1,1.7-2.4,2.2-3.9.5-1.5.8-3.2.8-5.1s-.3-3.6-.8-5.1ZM272.7,50.4h-3.7c1.2,1.2,1.8,2.5,1.8,3.7s-.6,1.8-1.8,1.8-1.1-.2-1.5-.5c-.4-.3-.9-.8-1.5-1.4-.5.2-.8.5-.8,1,0,.5-.1.9-.2,1.4,0,.5-.3.9-.5,1.3-.2.4-.8.6-1.6.6s-1.5-.5-1.6-1.5c-.2-1-.2-1.9-.2-2.9-.6.6-1.1,1.1-1.5,1.4-.4.3-.9.5-1.5.5h-.6c-.1-.2-.3-.4-.5-.6s-.4-.4-.6-.6c-.2-.2-.5-.4-.7-.6l2.5-3c-1.5,0-2.6-.1-3.3-.3-.7-.2-1-.9-1-2.2s.4-1.6,1.1-1.9c.8-.4,1.6-.6,2.5-.6v-.6c0-.3-.2-.7-.7-1.2-.5-.5-.8-.9-1.1-1.2.3-.6.6-1.1,1-1.4.4-.3.9-.5,1.5-.5s1.2.2,1.7.5c.6.3,1,.8,1.3,1.4v-3.7h3.7v3.7h1.3l2.4-1.8h.6c1.2,0,1.8.6,1.8,1.8s-.2,1.1-.5,1.5c-.3.4-.8.9-1.4,1.5.3,0,.8.1,1.5.3.7.2,1.2.3,1.5.3l.6.6v3Z"/>
        <path class="st1" d="M288,52.4c.4,0,.7.2,1,.6.3.4.5.8.8,1.4.3.5.6,1.1.9,1.8.3.6.7,1.2,1.2,1.8.5.5,1,1,1.7,1.4.7.4,1.4.6,2.4.6s2.2-.3,2.8-1c.6-.6,1-1.4,1-2.3s-.3-1.7-.9-2.5c-.6-.7-1.3-1.5-2.2-2.2-.9-.7-1.8-1.4-2.8-2.1-1-.7-1.9-1.5-2.8-2.3-.9-.8-1.6-1.6-2.2-2.6-.6-.9-.9-2-.9-3.1s.5-2.8,1.6-3.8c1.1-1,2.6-1.6,4.6-1.6s1.3,0,1.9.2c.6.1,1,.3,1.5.5.4.2.8.3,1.2.5.4.1.7.2,1,.2s.6-.1.8-.3c.2-.2.3-.4.4-.7.1-.3.2-.5.4-.7.1-.2.3-.3.6-.3.5,0,.7.3.7.8v7.2c0,.5-.2.8-.7.8s-1-.3-1.4-1c-.4-.7-.8-1.4-1.3-2.1-.5-.8-1.1-1.5-1.7-2.1s-1.5-1-2.5-1-1.6.3-2,.8c-.5.5-.7,1.1-.7,1.8s.3,1.6.9,2.2c.6.7,1.3,1.4,2.2,2,.9.7,1.8,1.3,2.8,2,1,.7,1.9,1.4,2.8,2.2.9.8,1.6,1.7,2.2,2.6.6.9.9,2,.9,3.2s-.2,1.8-.6,2.6c-.4.8-.9,1.4-1.6,2-.7.5-1.5.9-2.4,1.2-.9.3-1.9.4-3,.4s-1.5,0-2.2-.2c-.6-.1-1.2-.3-1.7-.5-.5-.2-.9-.3-1.3-.5-.4-.1-.7-.2-1.1-.2s-.6.1-.8.3c-.2.2-.3.4-.4.7-.1.3-.2.5-.4.7-.1.2-.3.3-.6.3-.5,0-.7-.3-.7-.8v-8c0-.5.2-.8.7-.8Z"/>
        <path class="st1" d="M283.5,54c0,2.4-.7,5.5-2.1,7.5-.4.6-1.7,1.4-2.3.6-.9-1.3-1.1-5.5-1.1-7.1,0-2.3,0-7.5,0-14.9h4.7c0,2.5,0,4.4,0,6.2-1,2.7-2.2,6-1.8,9,.3,2,1,.9,1.2-.3.1-.5.3-2.8.7-2.9.5-.1.6,1.7.6,2Z"/>
        <path class="st1" d="M277.9,35.1c0-2.5,0-5.1,0-8-1.1-8.8-1.4-13.1-1.4-15.2,0-2.8,0-8.5,1.8-10.7,1.1-1.5,4-1.9,4.8,0,1,2.4,1,7.3,1,10,0,2.1-.2,5.9-1.4,14.5,0,3.7,0,6.8,0,9.3h-4.7Z"/>
        <path class="st1" d="M287.2,37.6c0,.3,0,.4-.2.6-.1.1-.3.2-.6.2h-10.8c-.2,0-.4,0-.6-.2-.1-.1-.2-.3-.2-.6s0-.4.2-.6c.1-.1.3-.2.6-.2h10.8c.3,0,.4,0,.6.2s.2.3.2.6Z"/>
      </g>
    </g>
  </g>
</svg>