<?xml version="1.0" encoding="UTF-8"?><svg xmlns="http://www.w3.org/2000/svg" xmlns:xlink="http://www.w3.org/1999/xlink" viewBox="0 0 498.69 429.81"><defs><style>.i{fill:url(#g);mix-blend-mode:screen;opacity:.21;}.j{mix-blend-mode:overlay;opacity:.54;}.j,.k,.l{fill:#bcbec0;}.m{isolation:isolate;}.n{filter:url(#f);}.o{fill:none;stroke:#333;stroke-width:5.45px;}.p{fill:#333;}.k{opacity:.53;}.k,.l{mix-blend-mode:multiply;}.q{mask:url(#e);}.l{opacity:.17;}.r{fill:#eadda7;}.s{fill:#ffd166;}</style><filter id="f" x="0" y="-5.45" width="498.69" height="389.4" color-interpolation-filters="sRGB" filterUnits="userSpaceOnUse"><feFlood flood-color="#fff" result="bg"/><feBlend in="SourceGraphic" in2="bg"/></filter><mask id="e" x="0" y="-5.45" width="498.69" height="389.4" maskUnits="userSpaceOnUse"><g class="n"><path d="M342.61,0c1.35,0,2.36.42,3.04,1.24.67.83.86,1.91.56,3.26l-4.73,19.58,17.33-10.35c.75-.45,1.5-.67,2.25-.67,1.5,0,2.55.9,3.15,2.7l2.25,6.53c.45,1.2.37,2.25-.23,3.15-.6.9-1.58,1.43-2.92,1.58l-20.25,1.8,15.3,13.05c1.2.9,1.76,1.91,1.69,3.04-.08,1.12-.71,2.06-1.91,2.81l-5.4,4.05c-.75.6-1.58.9-2.47.9-1.35,0-2.4-.82-3.15-2.48l-7.88-18.67-7.88,18.67c-.75,1.65-1.8,2.48-3.15,2.48-.9,0-1.73-.3-2.48-.9l-5.4-4.05c-1.2-.75-1.84-1.69-1.91-2.81-.08-1.12.49-2.14,1.69-3.04l15.3-13.05-20.25-1.8c-1.35-.15-2.33-.67-2.92-1.58-.6-.9-.67-1.95-.22-3.15l2.25-6.53c.75-1.8,1.8-2.7,3.15-2.7.9,0,1.65.23,2.25.67l17.33,10.35-4.72-19.58c-.3-1.35-.11-2.44.56-3.26C333.5.42,334.51,0,335.86,0h6.75M342.61-5.45h-6.75c-2.97,0-5.54,1.15-7.25,3.23-1.74,2.14-2.33,4.94-1.67,7.91v.04s.02.04.02.04l1.68,6.96-6.01-3.59c-1.49-1.02-3.29-1.55-5.23-1.55-1.7,0-5.91.59-8.18,6.06l-.07.16-.06.16-2.23,6.47c-1.03,2.82-.74,5.66.83,8.01,1.48,2.23,3.92,3.64,6.87,3.97h.05s.05.01.05.01l7.32.65-5.31,4.53c-3.49,2.7-3.82,5.94-3.7,7.65.18,2.79,1.69,5.24,4.24,6.92l5.18,3.89c1.69,1.33,3.7,2.03,5.8,2.03,3.51,0,6.47-2.07,8.11-5.67l.03-.07.03-.07,2.85-6.77,2.85,6.77.03.07.03.07c1.64,3.61,4.59,5.68,8.11,5.68,2.1,0,4.1-.7,5.8-2.03l5.19-3.89c2.54-1.67,4.04-4.12,4.24-6.92.11-1.72-.22-4.96-3.7-7.65l-5.31-4.53,7.32-.65h.05s.05-.01.05-.01c2.93-.32,5.37-1.73,6.87-3.97,1.56-2.35,1.85-5.19.83-8l-2.22-6.45c-1.35-4-4.45-6.39-8.31-6.39-1.75,0-3.45.49-5.05,1.45l-6.18,3.69,1.68-6.96v-.05s.02-.05.02-.05c.66-2.97.07-5.77-1.66-7.89-1.72-2.09-4.29-3.24-7.26-3.24h0ZM458.92,286.01c.9,0,1.72.3,2.47.9l5.4,4.05c1.2.75,1.83,1.69,1.91,2.81.07,1.12-.49,2.14-1.69,3.04l-15.3,13.05,20.25,1.8c1.35.15,2.32.67,2.92,1.58.6.9.67,1.95.23,3.15l-2.25,6.53c-.6,1.8-1.65,2.7-3.15,2.7-.75,0-1.5-.23-2.25-.67l-17.33-10.35,4.73,19.58c.3,1.35.11,2.44-.56,3.26-.68.82-1.69,1.24-3.04,1.24h-6.75c-1.35,0-2.36-.42-3.04-1.24-.67-.83-.87-1.91-.56-3.26l4.72-19.58-17.33,10.35c-.6.45-1.35.67-2.25.67-1.35,0-2.4-.9-3.15-2.7l-2.25-6.53c-.45-1.2-.38-2.25.22-3.15.6-.9,1.58-1.43,2.92-1.58l20.25-1.8-15.3-13.05c-1.2-.9-1.76-1.91-1.69-3.04.07-1.12.71-2.06,1.91-2.81l5.4-4.05c.75-.6,1.58-.9,2.48-.9,1.35,0,2.4.82,3.15,2.48l7.88,18.67,7.88-18.67c.75-1.65,1.8-2.48,3.15-2.48M458.92,280.56c-3.52,0-6.48,2.07-8.11,5.68l-.03.07-.03.07-2.85,6.77-2.85-6.77-.03-.07-.03-.07c-1.64-3.6-4.6-5.67-8.11-5.67-2.11,0-4.11.7-5.8,2.03l-5.18,3.89c-2.55,1.67-4.06,4.13-4.24,6.93-.12,1.7.22,4.94,3.7,7.64l5.31,4.53-7.32.65h-.05s-.05.01-.05.01c-2.94.32-5.38,1.73-6.87,3.98-1.56,2.33-1.85,5.17-.82,8l2.23,6.47.06.16.07.16c2.27,5.47,6.48,6.06,8.18,6.06,1.94,0,3.74-.54,5.23-1.55l6.01-3.59-1.68,6.96v.04s-.02.04-.02.04c-.67,2.97-.08,5.78,1.66,7.9,1.72,2.09,4.29,3.24,7.26,3.24h6.75c2.96,0,5.54-1.15,7.25-3.23,1.74-2.13,2.33-4.93,1.67-7.9v-.05s-.02-.05-.02-.05l-1.68-6.96,6.19,3.7c1.6.96,3.3,1.45,5.05,1.45,3.86,0,6.96-2.39,8.31-6.39l2.22-6.45c1.03-2.82.74-5.65-.82-8-1.5-2.25-3.94-3.66-6.87-3.98h-.05s-.05-.01-.05-.01l-7.32-.65,5.31-4.53c3.47-2.69,3.81-5.93,3.7-7.64-.19-2.81-1.69-5.26-4.24-6.93l-5.19-3.89c-1.7-1.33-3.7-2.03-5.8-2.03h0ZM75.89,59.48c.63,0,1.32.19,2.07.56l6.21,3.02c1.17.53,1.85,1.33,2.07,2.39.21,1.06-.1,2.12-.95,3.18l-13.05,15.59,20.05-1.59c.3-.04.58-.06.84-.06,1.07,0,1.9.34,2.5,1.02.74.85.95,1.96.64,3.34l-.95,6.68c-.11.96-.48,1.75-1.11,2.39-.57.57-1.28.86-2.12.86-.56,0-1.18-.13-1.86-.38l-18.77-7.64,7.64,18.77c.64,1.7.48,3.02-.48,3.98-.64.64-1.43,1.01-2.39,1.11l-6.68.95c-.41.1-.81.14-1.17.14-.85,0-1.58-.26-2.17-.78-.85-.74-1.17-1.85-.96-3.34l1.59-20.05-15.59,13.05c-.85.68-1.7,1.02-2.54,1.02-.21,0-.43-.02-.64-.06-1.06-.21-1.85-.9-2.39-2.07l-3.02-6.21c-.74-1.8-.64-3.18.32-4.14.64-.64,1.33-1.01,2.07-1.11l19.57-4.93-17.18-10.5c-1.17-.74-1.8-1.64-1.91-2.7-.1-1.06.32-2.07,1.27-3.02l4.77-4.77c.86-.86,1.77-1.29,2.71-1.29.1,0,.21,0,.31.02,1.06.11,1.96.74,2.7,1.91l10.5,17.18,4.93-19.57c.21-.85.58-1.54,1.11-2.07.59-.59,1.28-.88,2.06-.88M75.89,54.03c-2.25,0-4.29.86-5.92,2.48-1.24,1.24-2.09,2.78-2.55,4.6l-1.76,6.98-3.74-6.11-.03-.04-.03-.04c-1.64-2.56-4.03-4.13-6.75-4.4-.3-.03-.58-.04-.86-.04-1.68,0-4.18.5-6.57,2.88l-4.77,4.77c-2.1,2.1-3.11,4.73-2.84,7.41.28,2.74,1.84,5.15,4.42,6.77l.04.02.04.02,6.11,3.74-6.79,1.71c-1.77.33-3.42,1.22-4.8,2.6-1.2,1.2-3.76,4.59-1.5,10.07l.06.16.07.15,3,6.15c1.27,2.73,3.48,4.53,6.25,5.08.55.11,1.13.17,1.7.17,1.46,0,3.67-.39,5.95-2.22l.04-.03.04-.04,5.63-4.71-.55,6.96c-.56,4.37,1.5,6.9,2.8,8.03,1.58,1.39,3.57,2.12,5.75,2.12.7,0,1.41-.08,2.14-.23l6.41-.92c2.14-.26,4.05-1.18,5.54-2.67,2.49-2.49,3.11-6.04,1.73-9.74l-.03-.07-.03-.07-2.77-6.8,6.8,2.77.07.03.07.03c1.29.49,2.56.73,3.78.73,2.3,0,4.37-.85,5.97-2.46,1.48-1.49,2.4-3.4,2.66-5.54l.92-6.42c.62-2.98-.05-5.77-1.9-7.89-1.63-1.86-3.98-2.89-6.6-2.89-.46,0-.94.03-1.42.09l-6.96.55,4.71-5.63.04-.04.03-.04c1.85-2.3,2.58-5.02,2.05-7.66-.56-2.77-2.36-4.98-5.08-6.24l-6.13-2.99c-1.51-.75-3.01-1.13-4.48-1.13h0Z"/></g></mask><linearGradient id="g" x1="253.75" y1="253.87" x2="310.5" y2="267.57" gradientTransform="translate(-25.95 26.04) rotate(-5.94)" gradientUnits="userSpaceOnUse"><stop offset="0" stop-color="#fff" stop-opacity=".7"/><stop offset=".2" stop-color="#fbfbfb" stop-opacity=".69"/><stop offset=".35" stop-color="#efefef" stop-opacity=".65"/><stop offset=".49" stop-color="#dbdada" stop-opacity=".59"/><stop offset=".61" stop-color="#bebdbd" stop-opacity=".5"/><stop offset=".73" stop-color="#999798" stop-opacity=".38"/><stop offset=".85" stop-color="#6c696a" stop-opacity=".23"/><stop offset=".96" stop-color="#383435" stop-opacity=".07"/><stop offset="1" stop-color="#231f20" stop-opacity="0"/></linearGradient></defs><g class="m"><g id="d"><path class="s" d="M276.83,93.83l-.09,2.28c-17-2.82-34.76-3.46-52.89-1.57-100.45,10.46-174.09,93.75-164.48,186.03,9.61,92.29,98.83,158.62,199.27,148.16,6.31-.66,12.51-1.6,18.59-2.82l.02-5.26c84.62-20.26,144.86-93.81,139.03-176.44-5.3-75.23-63.72-134.8-139.47-150.38Z"/><path class="p" d="M329.57,185.98c-.46.16-1,.23-1.62.23-1.21,0-2.22-.3-3.01-.92-.78-.61-1.8-1.52-3.01-2.74-.97.36-1.52,1-1.65,1.93-.12.92-.27,1.86-.46,2.83-.19.97-.51,1.86-1,2.64-.49.79-1.52,1.19-3.11,1.19-1.82,0-2.89-.97-3.19-2.93-.3-1.95-.46-3.84-.46-5.66-1.21,1.22-2.22,2.13-3.01,2.74-.79.61-1.79.92-3.01.92h-1.28c-.24-.36-.58-.77-1-1.19l-1.19-1.19c-.49-.36-.97-.79-1.46-1.28l4.93-6.04c-3.04,0-5.23-.21-6.57-.64-1.34-.43-2.01-1.85-2.01-4.3,0-1.82.77-3.11,2.29-3.84,1.52-.73,3.2-1.1,5.03-1.1v-1.1c0-.61-.46-1.43-1.38-2.47-.27-.3-.52-.59-.77-.85-.59-.04-1.18-.06-1.77-.06-16.15,0-29.24,13.09-29.24,29.24s13.09,29.24,29.24,29.24,29.24-13.09,29.24-29.24c0-1.87-.18-3.68-.51-5.46l-.04.03Z"/><path class="p" d="M173.79,234.66c-.5.2-1.08.29-1.76.29-1.22,0-2.22-.3-3.01-.92-.79-.61-1.8-1.52-3.01-2.74-.97.36-1.52,1-1.65,1.93-.12.92-.27,1.86-.46,2.83-.19.97-.51,1.86-1,2.64-.49.79-1.52,1.19-3.11,1.19-1.82,0-2.89-.97-3.19-2.92-.3-1.95-.46-3.84-.46-5.66-1.21,1.22-2.22,2.13-3.01,2.74-.79.61-1.79.92-3.01.92h-1.28c-.24-.36-.58-.77-1-1.19l-1.19-1.19c-.49-.36-.97-.79-1.46-1.28l4.93-6.04c-3.04,0-5.23-.21-6.57-.64-1.34-.43-2.01-1.85-2.01-4.3,0-1.82.77-3.11,2.29-3.84,1.52-.73,3.2-1.1,5.03-1.1v-1.1c0-.61-.46-1.43-1.38-2.47-.6-.69-1.14-1.28-1.62-1.78-.31,0-.61-.02-.92-.02-16.15,0-29.24,13.09-29.24,29.24s13.09,29.24,29.24,29.24,29.24-13.09,29.24-29.24c0-1.57-.13-3.11-.36-4.63l-.05.03Z"/><g class="q"><path class="o" d="M28.63,293.8C57.78,260.32-.4,234.95,2.86,206.12c3.68-32.59,22.78-34.88,39.92-31.45,25.08,7.24,13.84,52.28-12.29,28.19-26.12-24.09-6.37-96.76,32.1-88.38,38.47,8.38,35.86,60.13,3.71,49.01-32.15-11.12-21.78-87.4,26.45-87.4s54.82,56.59,20.66,36.21c-56.91-38.96,27.31-93.09,60.8-65.63,24.76,20.31,11.81,58.48-10.28,38.1-42.56-35.81,37.33-101.33,70.48-48.38,26.9,42.98-14.54,56.54-20.57,21.33-9.13-60.57,82.57-62.61,89.21,4.45,3.95,39.87-55.03,14.36-25.97-27.68,22.68-32.8,95.55-19.64,89.18,44.95-4.02,40.76-51.52,1.85-19.9-29.71,31.62-31.56,89.65,29.71,72.73,73.9-16.93,44.19-55.14-14.86-21.4-31.24,50.07-31.69,103.02,75.09,61.94,99.02-44.83,26.12-40.72-43.29-4.55-43.85,53.66-.83,52.01,118.6,9.55,116.57-51.98-2.48-16.71-67.66,19.81-32,38.62,37.7-30.14,51.06-52.48,113.28-9.77,27.22,17.27,56.63,59.43,15.24"/></g><path class="p" d="M314.26,15.75c.75-1.8,1.8-2.7,3.15-2.7.9,0,1.65.23,2.25.67l17.33,10.35-4.72-19.58c-.3-1.35-.11-2.44.56-3.26.67-.82,1.69-1.24,3.04-1.24h6.75c1.35,0,2.36.42,3.04,1.24.67.83.86,1.91.56,3.26l-4.73,19.58,17.33-10.35c.75-.45,1.5-.67,2.25-.67,1.5,0,2.55.9,3.15,2.7l2.25,6.53c.45,1.2.37,2.25-.23,3.15-.6.9-1.58,1.43-2.92,1.58l-20.25,1.8,15.3,13.05c1.2.9,1.76,1.91,1.69,3.04-.08,1.12-.71,2.06-1.91,2.81l-5.4,4.05c-.75.6-1.58.9-2.47.9-1.35,0-2.4-.82-3.15-2.48l-7.88-18.67-7.88,18.67c-.75,1.65-1.8,2.48-3.15,2.48-.9,0-1.73-.3-2.48-.9l-5.4-4.05c-1.2-.75-1.84-1.69-1.91-2.81-.08-1.12.49-2.14,1.69-3.04l15.3-13.05-20.25-1.8c-1.35-.15-2.33-.67-2.92-1.58-.6-.9-.67-1.95-.22-3.15l2.25-6.53Z"/><path class="p" d="M422.92,322.91c.75,1.8,1.8,2.7,3.15,2.7.9,0,1.65-.23,2.25-.67l17.33-10.35-4.72,19.58c-.3,1.35-.11,2.44.56,3.26.67.82,1.69,1.24,3.04,1.24h6.75c1.35,0,2.36-.42,3.04-1.24.67-.83.86-1.91.56-3.26l-4.73-19.58,17.33,10.35c.75.45,1.5.67,2.25.67,1.5,0,2.55-.9,3.15-2.7l2.25-6.53c.45-1.2.37-2.25-.23-3.15-.6-.9-1.58-1.43-2.92-1.58l-20.25-1.8,15.3-13.05c1.2-.9,1.76-1.91,1.69-3.04-.08-1.12-.71-2.06-1.91-2.81l-5.4-4.05c-.75-.6-1.58-.9-2.47-.9-1.35,0-2.4.82-3.15,2.48l-7.88,18.67-7.88-18.67c-.75-1.65-1.8-2.48-3.15-2.48-.9,0-1.73.3-2.48.9l-5.4,4.05c-1.2.75-1.84,1.69-1.91,2.81-.08,1.12.49,2.14,1.69,3.04l15.3,13.05-20.25,1.8c-1.35.15-2.33.67-2.92,1.58-.6.9-.67,1.95-.22,3.15l2.25,6.53Z"/><path class="p" d="M42.64,95.36c-.74-1.8-.64-3.18.32-4.14.64-.64,1.33-1.01,2.07-1.11l19.57-4.93-17.18-10.5c-1.17-.74-1.8-1.64-1.91-2.7-.1-1.06.32-2.07,1.27-3.02l4.77-4.77c.96-.96,1.96-1.38,3.02-1.27,1.06.11,1.96.74,2.7,1.91l10.5,17.18,4.93-19.57c.21-.85.58-1.54,1.11-2.07,1.06-1.06,2.44-1.17,4.14-.32l6.21,3.02c1.17.53,1.85,1.33,2.07,2.39.21,1.06-.1,2.12-.95,3.18l-13.05,15.59,20.05-1.59c1.48-.21,2.6.11,3.34.96.74.85.95,1.96.64,3.34l-.96,6.68c-.11.96-.48,1.75-1.11,2.39-.96.96-2.28,1.12-3.98.48l-18.77-7.64,7.64,18.77c.64,1.7.48,3.02-.48,3.98-.64.64-1.43,1.01-2.39,1.11l-6.68.95c-1.38.32-2.49.11-3.34-.64-.85-.74-1.17-1.85-.96-3.34l1.59-20.05-15.59,13.05c-1.06.85-2.12,1.17-3.18.95-1.06-.21-1.85-.9-2.39-2.07l-3.02-6.21Z"/><path class="r" d="M264.48,422.43c4.7,2.75,12.76,3.48,12.76,3.48l.02-5.26c-9.42,2.5-12.79,1.78-12.79,1.78Z"/><path class="k" d="M264.48,422.43l12.27-326.32s-19.62,250.06-18.91,284.04c.71,33.98,6.65,42.28,6.65,42.28Z"/><path class="i" d="M264.82,413.28l11.92-317.17s32.91,86.48,29.17,174.44c-3.74,87.96-41.09,142.74-41.09,142.74Z"/><path class="j" d="M288.02,168.89l-10.76,251.76s14.94-126.2,14.21-152.52c-.73-26.32-3.46-99.24-3.46-99.24Z"/><path class="j" d="M181.69,242.12s-28.26,142.95-29.78,145.27,5.49-97.87,29.78-145.27Z"/><path class="l" d="M149.69,398.2l30.69-149.47s5.7,55.4-30.69,149.47Z"/></g></g></svg>