<?xml version="1.0" encoding="UTF-8"?><svg xmlns="http://www.w3.org/2000/svg" xmlns:xlink="http://www.w3.org/1999/xlink" viewBox="0 0 484.58 157.62"><defs><style>.g{fill:#939598;}.g,.h{mix-blend-mode:overlay;}.i{fill:#fff9ed;}.j{isolation:isolate;}.k{fill:#d1d3d4;mix-blend-mode:multiply;}.h{fill:url(#c);}.l{fill:#86c8bd;}</style><linearGradient id="c" x1="28.93" y1="97.33" x2="131.98" y2="143.07" gradientUnits="userSpaceOnUse"><stop offset="0" stop-color="#fff" stop-opacity="0"/><stop offset="1" stop-color="#fff" stop-opacity=".4"/></linearGradient></defs><g class="j"><g id="b"><path class="l" d="M479.74,117.34l.81-5.24,4.03-3.22-2.82-10.07s-3.22-4.83-3.22-6.04-.4-5.64-.4-5.64l-.81-2.01-1.61-9.26,6.44-6.44s0-1.21-.4-2.42c-.4-1.21-.81-6.44-.81-6.44l-2.82-4.03-1.21-6.85.4-6.04.4-2.42-.4-4.43-1.21-5.24.4-4.83,1.61-3.22-.4-2.01-2.01-3.22v-4.83l1.61-6.85-2.42-3.63-.4-2.94H11.7l-2.84,6.57-2.42,9.67,4.83,4.03c-2.42,3.22-4.83,9.67-4.83,9.67l2.42,7.25s2.42,2.42.81,4.83c-1.61,2.42-3.22,12.08-3.22,12.08l3.22,6.44-4.03,11.28-1.61,10.47,3.22,3.22,3.22,2.42-4.03,5.64-4.03,2.42-2.42,7.25s0,3.22,1.61,8.06-1.61,1.61,1.61,4.83c3.22,3.22,5.64,7.25,5.64,7.25v7.25l-6.44,4.83,3.22,2.42,1.61,7.25.81,4.03,3.65,8.46h462.8l3.63-.4,2.42-4.03.4-4.43-1.21-3.22,1.61-8.46,1.61-7.25s-4.03-5.24-4.03-6.44.81-6.04.81-6.04Z"/><ellipse class="i" cx="73.68" cy="27.91" rx="9.28" ry="9.26"/><ellipse class="i" cx="135.41" cy="27.91" rx="9.28" ry="9.26"/><ellipse class="i" cx="197.14" cy="27.91" rx="9.28" ry="9.26"/><ellipse class="i" cx="258.88" cy="27.91" rx="9.28" ry="9.26"/><ellipse class="i" cx="320.61" cy="27.91" rx="9.28" ry="9.26"/><ellipse class="i" cx="382.34" cy="27.91" rx="9.28" ry="9.26"/><ellipse class="i" cx="444.07" cy="27.91" rx="9.28" ry="9.26"/><ellipse class="i" cx="105.91" cy="62.99" rx="9.28" ry="9.26"/><ellipse class="i" cx="167.65" cy="62.99" rx="9.28" ry="9.26"/><ellipse class="i" cx="229.38" cy="62.99" rx="9.28" ry="9.26"/><ellipse class="i" cx="291.11" cy="62.99" rx="9.28" ry="9.26"/><ellipse class="i" cx="352.84" cy="62.99" rx="9.28" ry="9.26"/><ellipse class="i" cx="414.58" cy="62.99" rx="9.28" ry="9.26"/><ellipse class="i" cx="44.18" cy="62.99" rx="9.28" ry="9.26"/><ellipse class="i" cx="73.68" cy="96.31" rx="9.28" ry="9.26"/><ellipse class="i" cx="135.41" cy="96.31" rx="9.28" ry="9.26"/><ellipse class="i" cx="197.14" cy="96.31" rx="9.28" ry="9.26"/><ellipse class="i" cx="258.88" cy="96.31" rx="9.28" ry="9.26"/><ellipse class="i" cx="320.61" cy="96.31" rx="9.28" ry="9.26"/><ellipse class="i" cx="382.34" cy="96.31" rx="9.28" ry="9.26"/><ellipse class="i" cx="444.07" cy="96.31" rx="9.28" ry="9.26"/><ellipse class="i" cx="105.91" cy="131.38" rx="9.28" ry="9.26"/><ellipse class="i" cx="167.65" cy="131.38" rx="9.28" ry="9.26"/><ellipse class="i" cx="229.38" cy="131.38" rx="9.28" ry="9.26"/><ellipse class="i" cx="291.11" cy="131.38" rx="9.28" ry="9.26"/><ellipse class="i" cx="352.84" cy="131.38" rx="9.28" ry="9.26"/><ellipse class="i" cx="414.58" cy="131.38" rx="9.28" ry="9.26"/><ellipse class="i" cx="44.18" cy="131.38" rx="9.28" ry="9.26"/><polygon class="k" points="475.71 75.85 433.3 80.97 476.86 82.43 475.71 75.85"/><polygon class="g" points="482.16 69.4 387.5 85.92 452.35 78.67 475.71 75.85 482.16 69.4"/><path class="k" d="M174.21,41.01l42.9,90.03s-17.52-62.84-42.9-90.03Z"/><path class="g" d="M217.11,131.03l-50.35-105.94,10.88,41.89s24.97,50.75,39.47,64.05Z"/><path class="k" d="M254.57,58.53l22.96,89.12-11.48-63.44s-.91-12.39-11.48-27.19"/><path class="g" d="M277.53,147.65l-30.11-118.83s10.47,64.35,15.05,82.47c4.58,18.13,15.05,36.35,15.05,36.35Z"/><path class="k" d="M10.47,87.93l-2.42,3.39c10.27,9.53,95.77,45.54,95.77,45.54L10.47,87.93Z"/><path class="h" d="M103.82,136.87L12.96,89.21s21.68,1.74,39,11.61c17.32,9.87,79.96,49.34,79.96,49.34l-28.1-13.3Z"/></g></g></svg>