<?xml version="1.0" encoding="UTF-8"?><svg xmlns="http://www.w3.org/2000/svg" viewBox="0 0 497.17 118.61"><defs><style>.f{opacity:.85;}.g{mix-blend-mode:overlay;}.g,.h{fill:#8dc692;}.i{fill:#1bbcb6;}.j{isolation:isolate;}.h{mix-blend-mode:multiply;}.k{fill:#86c8bd;}</style></defs><g class="j"><g id="b"><g class="f"><polygon class="i" points="0 7.23 482.54 0 482.54 22.75 497.17 52.6 497.17 107.23 0 118.61 11.37 38.15 0 7.23"/><path class="k" d="M30.29,38.92c9.59-.26,17.15-8.24,16.89-17.82-.17-6.18-3.55-11.5-8.5-14.45l-18.16.27c-4.98,3.17-8.23,8.78-8.06,15.11.26,9.59,8.24,17.15,17.82,16.89Z"/><path class="k" d="M79.01,37.62c9.59-.26,17.15-8.24,16.89-17.82-.16-5.8-3.15-10.85-7.61-13.89l-19.94.3c-4.47,3.25-7.33,8.57-7.17,14.52.26,9.59,8.24,17.15,17.82,16.89Z"/><path class="k" d="M127.73,36.31c9.59-.26,17.15-8.24,16.89-17.82-.15-5.45-2.8-10.25-6.81-13.32l-21.48.32c-4.04,3.28-6.57,8.33-6.42,13.93.26,9.59,8.24,17.15,17.82,16.89Z"/><path class="k" d="M176.46,35c9.59-.26,17.15-8.24,16.89-17.82-.14-5.13-2.5-9.67-6.13-12.76l-22.85.34c-3.63,3.28-5.87,8.07-5.73,13.35.26,9.59,8.24,17.15,17.82,16.89Z"/><path class="k" d="M225.18,33.7c9.59-.26,17.15-8.24,16.89-17.82-.13-4.82-2.22-9.13-5.47-12.19l-24.12.36c-3.27,3.25-5.25,7.78-5.12,12.76.26,9.59,8.24,17.15,17.82,16.89Z"/><path class="k" d="M273.91,32.39c9.59-.26,17.15-8.24,16.89-17.82-.12-4.54-1.99-8.61-4.92-11.62l-25.24.38c-2.93,3.2-4.68,7.49-4.55,12.18.26,9.59,8.24,17.15,17.82,16.89Z"/><path class="k" d="M322.63,31.09c9.59-.26,17.15-8.24,16.89-17.82-.11-4.25-1.75-8.1-4.37-11.06l-26.29.39c-2.62,3.13-4.17,7.19-4.05,11.59.26,9.59,8.24,17.15,17.82,16.89Z"/><path class="k" d="M371.36,29.78c9.59-.26,17.15-8.24,16.89-17.82-.11-3.99-1.56-7.62-3.9-10.49l-27.24.41c-2.33,3.05-3.68,6.88-3.57,11.01.26,9.59,8.24,17.15,17.82,16.89Z"/><path class="k" d="M420.08,28.47c9.59-.26,17.15-8.24,16.89-17.82-.1-3.73-1.38-7.14-3.45-9.92l-28.1.42c-2.07,2.95-3.26,6.55-3.16,10.43.26,9.59,8.24,17.15,17.82,16.89Z"/><path class="k" d="M468.81,27.17c5.71-.15,10.69-3.06,13.74-7.4V0l-28.82.43c-1.82,2.83-2.84,6.22-2.75,9.84.26,9.59,8.24,17.15,17.82,16.89Z"/><path class="k" d="M31.45,82.26c9.59-.26,17.15-8.24,16.89-17.82-.26-9.59-8.24-17.15-17.82-16.89-9.59.26-17.15,8.24-16.89,17.82.26,9.59,8.24,17.15,17.82,16.89Z"/><path class="k" d="M80.17,80.95c9.59-.26,17.15-8.24,16.89-17.82-.26-9.59-8.24-17.15-17.82-16.89-9.59.26-17.15,8.24-16.89,17.82.26,9.59,8.24,17.15,17.82,16.89Z"/><path class="k" d="M128.9,79.65c9.59-.26,17.15-8.24,16.89-17.82-.26-9.59-8.24-17.15-17.82-16.89-9.59.26-17.15,8.24-16.89,17.82.26,9.59,8.24,17.15,17.82,16.89Z"/><path class="k" d="M177.62,78.34c9.59-.26,17.15-8.24,16.89-17.82-.26-9.59-8.24-17.15-17.82-16.89-9.59.26-17.15,8.24-16.89,17.82.26,9.59,8.24,17.15,17.82,16.89Z"/><path class="k" d="M226.35,77.04c9.59-.26,17.15-8.24,16.89-17.82-.26-9.59-8.24-17.15-17.82-16.89-9.59.26-17.15,8.24-16.89,17.82.26,9.59,8.24,17.15,17.82,16.89Z"/><path class="k" d="M275.07,75.73c9.59-.26,17.15-8.24,16.89-17.82-.26-9.59-8.24-17.15-17.82-16.89-9.59.26-17.15,8.24-16.89,17.82.26,9.59,8.24,17.15,17.82,16.89Z"/><path class="k" d="M323.79,74.42c9.59-.26,17.15-8.24,16.89-17.82-.26-9.59-8.24-17.15-17.82-16.89-9.59.26-17.15,8.24-16.89,17.82s8.24,17.15,17.82,16.89Z"/><path class="k" d="M372.52,73.12c9.59-.26,17.15-8.24,16.89-17.82-.26-9.59-8.24-17.15-17.82-16.89-9.59.26-17.15,8.24-16.89,17.82.26,9.59,8.24,17.15,17.82,16.89Z"/><path class="k" d="M421.24,71.81c9.59-.26,17.15-8.24,16.89-17.82-.26-9.59-8.24-17.15-17.82-16.89-9.59.26-17.15,8.24-16.89,17.82.26,9.59,8.24,17.15,17.82,16.89Z"/><path class="k" d="M469.97,70.51c9.59-.26,17.15-8.24,16.89-17.82-.26-9.59-8.24-17.15-17.82-16.89-9.59.26-17.15,8.24-16.89,17.82s8.24,17.15,17.82,16.89Z"/><path class="k" d="M31.68,90.88c-9.59.26-17.15,8.24-16.89,17.82.09,3.54,1.25,6.8,3.14,9.49l28.89-.66c1.79-2.82,2.79-6.18,2.69-9.76-.26-9.59-8.24-17.15-17.82-16.89Z"/><path class="k" d="M80.4,89.57c-9.59.26-17.15,8.24-16.89,17.82.1,3.62,1.3,6.95,3.27,9.68l28.62-.65c1.87-2.86,2.92-6.29,2.83-9.96-.26-9.59-8.24-17.15-17.82-16.89Z"/><path class="k" d="M129.13,88.27c-9.59.26-17.15,8.24-16.89,17.82.1,3.71,1.36,7.1,3.42,9.87l28.34-.65c1.95-2.89,3.06-6.39,2.96-10.15-.26-9.59-8.24-17.15-17.82-16.89Z"/><path class="k" d="M177.85,86.96c-9.59.26-17.15,8.24-16.89,17.82.1,3.79,1.43,7.26,3.56,10.06l28.05-.64c2.04-2.93,3.2-6.5,3.1-10.34-.26-9.59-8.24-17.15-17.82-16.89Z"/><path class="k" d="M226.58,85.66c-9.59.26-17.15,8.24-16.89,17.82.1,3.88,1.49,7.41,3.71,10.24l27.76-.64c2.12-2.97,3.34-6.61,3.24-10.54-.26-9.59-8.24-17.15-17.82-16.89Z"/><path class="k" d="M275.3,84.35c-9.59.26-17.15,8.24-16.89,17.82.11,3.96,1.55,7.57,3.86,10.43l27.48-.63c2.21-3,3.48-6.72,3.38-10.73-.26-9.59-8.24-17.15-17.82-16.89Z"/><path class="k" d="M324.03,83.04c-9.59.26-17.15,8.24-16.89,17.82.11,4.05,1.61,7.73,4.01,10.62l27.19-.62c2.3-3.03,3.62-6.83,3.51-10.93-.26-9.59-8.24-17.15-17.82-16.89Z"/><path class="k" d="M372.75,81.74c-9.59.26-17.15,8.24-16.89,17.82.11,4.14,1.66,7.89,4.16,10.81l26.91-.62c2.38-3.06,3.76-6.94,3.65-11.12-.26-9.59-8.24-17.15-17.82-16.89Z"/><path class="k" d="M421.47,80.43c-9.59.26-17.15,8.24-16.89,17.82.11,4.22,1.73,8.05,4.32,11l26.58-.61c2.48-3.09,3.93-7.04,3.81-11.32-.26-9.59-8.24-17.15-17.82-16.89Z"/><path class="k" d="M470.2,79.13c-9.59.26-17.15,8.24-16.89,17.82.12,4.32,1.81,8.22,4.5,11.18l26.24-.6c2.58-3.12,4.1-7.15,3.98-11.51-.26-9.59-8.24-17.15-17.82-16.89Z"/><polygon class="h" points="482.54 22.75 426.9 41.01 488.93 35.78 482.54 22.75"/><polygon class="g" points="496.37 50.97 426.9 41.01 488.93 35.78 496.37 50.97"/><polygon class="g" points="11.37 38.15 29.82 68.24 10.6 43.62 11.37 38.15"/></g></g></g></svg>