<?xml version="1.0" encoding="UTF-8"?><svg xmlns="http://www.w3.org/2000/svg" viewBox="0 0 503.18 143.16"><defs><style>.f{opacity:.9;}.g{fill:#939598;mix-blend-mode:overlay;}.h{fill:#1bbcb6;}.i{isolation:isolate;}.j{fill:#d1d3d4;}.j,.k{mix-blend-mode:multiply;}.k{fill:#e6e7e8;}.l{fill:#05878a;}.m{fill:#86c8bd;}</style></defs><g class="i"><g id="b"><g class="f"><path class="l" d="M503.18,15.93l-162.95-10.06-.78,10.32L78.22,9.18l-5.41-9.18-8.29,6.9L0,2.47l4.12,23.27S.09,68.37,2.87,75.98c1.99,5.46,3.19,42.83,3.71,63.51l77.69,1,250.95,1.29.86-7.26,154.18,8.65,7.72-48.92-3.4-20.3,8.26-44.32.34-13.69Z"/><path class="h" d="M8.59,43.96l8.99,4.73-1.72-10.02,7.28-7.09-10.06-1.46-4.5-9.11-4.5,9.11-.37.05c-.34,4.01-.83,10.29-1.23,16.99l6.09-3.2Z"/><polygon class="h" points="56.86 30.12 52.36 21.01 47.87 30.12 37.81 31.59 45.09 38.68 43.37 48.69 52.36 43.96 61.36 48.69 59.64 38.68 66.92 31.59 56.86 30.12"/><polygon class="h" points="100.63 30.12 96.13 21.01 91.63 30.12 81.58 31.59 88.85 38.68 87.14 48.69 96.13 43.96 105.13 48.69 103.41 38.68 110.68 31.59 100.63 30.12"/><polygon class="h" points="144.4 30.12 139.9 21.01 135.4 30.12 125.35 31.59 132.62 38.68 130.91 48.69 139.9 43.96 148.89 48.69 147.18 38.68 154.45 31.59 144.4 30.12"/><polygon class="h" points="188.17 30.12 183.67 21.01 179.17 30.12 169.12 31.59 176.39 38.68 174.67 48.69 183.67 43.96 192.66 48.69 190.95 38.68 198.22 31.59 188.17 30.12"/><polygon class="h" points="231.93 30.12 227.44 21.01 222.94 30.12 212.88 31.59 220.16 38.68 218.44 48.69 227.44 43.96 236.43 48.69 234.71 38.68 241.99 31.59 231.93 30.12"/><polygon class="h" points="275.7 30.12 271.21 21.01 266.71 30.12 256.65 31.59 263.93 38.68 262.21 48.69 271.21 43.96 280.2 48.69 278.48 38.68 285.76 31.59 275.7 30.12"/><polygon class="h" points="319.47 30.12 314.98 21.01 310.48 30.12 300.42 31.59 307.7 38.68 305.98 48.69 314.98 43.96 323.97 48.69 322.25 38.68 329.53 31.59 319.47 30.12"/><path class="h" d="M18.81,126.31l-1.72-10.02,7.28-7.09-10.06-1.46-4.5-9.11-4.29,8.69c.23,5.36.43,10.9.6,16.2l3.69-1.94,8.99,4.73Z"/><polygon class="h" points="58.08 107.74 53.58 98.63 49.09 107.74 39.03 109.2 46.31 116.29 44.59 126.31 53.58 121.58 62.58 126.31 60.86 116.29 68.14 109.2 58.08 107.74"/><polygon class="h" points="97.35 121.58 106.35 126.31 104.63 116.29 111.9 109.2 101.85 107.74 97.35 98.63 92.85 107.74 82.8 109.2 90.08 116.29 88.36 126.31 97.35 121.58"/><polygon class="h" points="145.62 107.74 141.12 98.63 136.62 107.74 126.57 109.2 133.84 116.29 132.13 126.31 141.12 121.58 150.11 126.31 148.4 116.29 155.67 109.2 145.62 107.74"/><polygon class="h" points="189.39 107.74 184.89 98.63 180.39 107.74 170.34 109.2 177.61 116.29 175.9 126.31 184.89 121.58 193.88 126.31 192.17 116.29 199.44 109.2 189.39 107.74"/><polygon class="h" points="233.16 107.74 228.66 98.63 224.16 107.74 214.11 109.2 221.38 116.29 219.66 126.31 228.66 121.58 237.65 126.31 235.93 116.29 243.21 109.2 233.16 107.74"/><polygon class="h" points="276.92 107.74 272.43 98.63 267.93 107.74 257.87 109.2 265.15 116.29 263.43 126.31 272.43 121.58 281.42 126.31 279.7 116.29 286.98 109.2 276.92 107.74"/><polygon class="h" points="320.69 107.74 316.2 98.63 311.7 107.74 301.64 109.2 308.92 116.29 307.2 126.31 316.2 121.58 325.19 126.31 323.47 116.29 330.75 109.2 320.69 107.74"/><polygon class="h" points="31.7 80.69 40.69 85.42 38.97 75.4 46.25 68.31 36.2 66.85 31.7 57.73 27.2 66.85 17.15 68.31 24.42 75.4 22.7 85.42 31.7 80.69"/><polygon class="h" points="75.47 57.73 70.97 66.85 60.91 68.31 68.19 75.4 66.47 85.42 75.47 80.69 84.46 85.42 82.74 75.4 90.02 68.31 79.96 66.85 75.47 57.73"/><polygon class="h" points="119.24 57.73 114.74 66.85 104.68 68.31 111.96 75.4 110.24 85.42 119.24 80.69 128.23 85.42 126.51 75.4 133.79 68.31 123.73 66.85 119.24 57.73"/><polygon class="h" points="163.01 57.73 158.51 66.85 148.45 68.31 155.73 75.4 154.01 85.42 163.01 80.69 172 85.42 170.28 75.4 177.56 68.31 167.5 66.85 163.01 57.73"/><polygon class="h" points="206.77 57.73 202.28 66.85 192.22 68.31 199.5 75.4 197.78 85.42 206.77 80.69 215.77 85.42 214.05 75.4 221.33 68.31 211.27 66.85 206.77 57.73"/><polygon class="h" points="250.54 57.73 246.05 66.85 235.99 68.31 243.27 75.4 241.55 85.42 250.54 80.69 259.54 85.42 257.82 75.4 265.1 68.31 255.04 66.85 250.54 57.73"/><polygon class="h" points="294.31 57.73 289.81 66.85 279.76 68.31 287.04 75.4 285.32 85.42 294.31 80.69 303.31 85.42 301.59 75.4 308.86 68.31 298.81 66.85 294.31 57.73"/><polygon class="h" points="333.58 66.85 323.53 68.31 330.8 75.4 329.09 85.42 334.43 82.6 335.99 61.97 333.58 66.85"/><polygon class="m" points="339 41.66 347.71 46.91 346.57 36.81 354.25 30.15 344.29 28.11 340.33 18.75 339.09 20.93 337.47 42.36 339 41.66"/><polygon class="m" points="373.45 48.4 382.7 44.2 391.4 49.44 390.27 39.34 397.94 32.68 387.99 30.64 384.03 21.28 379.01 30.12 368.89 31 375.74 38.5 373.45 48.4"/><polygon class="m" points="417.14 50.93 426.39 46.73 435.1 51.97 433.96 41.87 441.64 35.21 431.68 33.17 427.72 23.81 422.7 32.65 412.58 33.53 419.44 41.03 417.14 50.93"/><polygon class="m" points="460.84 53.46 470.09 49.26 478.79 54.5 477.66 44.4 485.33 37.74 475.38 35.7 471.42 26.34 466.4 35.18 456.28 36.06 463.13 43.56 460.84 53.46"/><polygon class="m" points="499.97 38.59 500.97 39.68 501.19 38.48 499.97 38.59"/><polygon class="m" points="341.02 105.66 337.06 96.31 332.84 103.75 331.52 121.13 335.73 119.22 344.44 124.46 343.3 114.36 350.98 107.7 341.02 105.66"/><polygon class="m" points="384.72 108.2 380.75 98.84 375.74 107.67 365.61 108.55 372.47 116.05 370.17 125.95 379.43 121.75 388.13 126.99 387 116.9 394.67 110.24 384.72 108.2"/><polygon class="m" points="428.41 110.73 424.45 101.37 419.43 110.21 409.31 111.08 416.16 118.59 413.87 128.48 423.12 124.28 431.83 129.52 430.69 119.43 438.37 112.77 428.41 110.73"/><polygon class="m" points="472.11 113.26 468.15 103.9 463.13 112.74 453.01 113.62 459.86 121.12 457.57 131.02 466.82 126.82 475.52 132.06 474.39 121.96 482.06 115.3 472.11 113.26"/><polygon class="m" points="367.51 74.8 375.19 68.14 365.24 66.1 361.27 56.75 356.26 65.58 346.13 66.46 352.99 73.96 350.69 83.86 359.94 79.66 368.65 84.9 367.51 74.8"/><polygon class="m" points="411.21 77.34 418.89 70.68 408.93 68.64 404.97 59.28 399.95 68.11 389.83 68.99 396.68 76.49 394.39 86.39 403.64 82.19 412.35 87.43 411.21 77.34"/><polygon class="m" points="454.91 79.87 462.58 73.21 452.63 71.17 448.66 61.81 443.65 70.65 433.52 71.52 440.38 79.03 438.08 88.92 447.34 84.72 456.04 89.96 454.91 79.87"/><polygon class="m" points="495.15 70.93 492.36 64.34 487.34 73.18 477.22 74.06 484.07 81.56 481.78 91.46 491.03 87.26 497.46 91.13 494.59 73.94 495.15 70.93"/><polygon class="m" points="330.53 134.2 335.22 141.77 336.08 134.51 330.53 134.2"/><polygon class="j" points="339.45 16.19 330.53 134.2 335.22 141.77 329.85 135.71 335.1 16.07 339.45 16.19"/><path class="k" d="M336.62,129.97l16.92-107.13s-7.65,83.89-16.92,107.13Z"/><path class="g" d="M341.6,16.31l12.25.38.12,3.99s1.85-5.95,1.74-6.42l-14.11,2.06Z"/><polygon class="g" points="72.81 0 61.65 109.05 64.53 6.9 72.81 0"/><polygon class="j" points="78.23 9.18 64.68 79.45 72.81 0 78.23 9.18"/><path class="j" d="M199.67,36.72l9.88,87.65s5.18-39.54-9.88-87.65Z"/><path class="g" d="M209.55,124.36l-11.38-105.75s-1.71,42.72.51,58c2.22,15.28,10.87,47.75,10.87,47.75Z"/><path class="j" d="M494.59,73.94s-17.2,25.08-22.09,38.52l22.94-33.44-.85-5.07Z"/><path class="g" d="M472.5,112.46s12.82-26.93,22.09-38.52l-13.33,14.73-8.76,23.79Z"/><path class="g" d="M335.36,123.13l9.72-94.01s-7.15,47.63-7.89,59.23c-.74,11.6-1.83,34.79-1.83,34.79Z"/><path class="k" d="M343.85,41.07l-8.49,83.39s8.89-65.29,9.27-71.87c.38-6.58-.78-11.52-.78-11.52Z"/></g></g></g></svg>