<?xml version="1.0" encoding="UTF-8"?><svg xmlns="http://www.w3.org/2000/svg" viewBox="0 0 510.61 145.42"><defs><style>.f{opacity:.57;}.f,.g,.h,.i{fill:#d1d3d4;}.f,.h{mix-blend-mode:multiply;}.g{opacity:.11;}.g,.i{mix-blend-mode:overlay;}.h{opacity:.28;}.j{fill:#e35336;}.k{opacity:.88;}.l{isolation:isolate;}.i{opacity:.35;}</style></defs><g class="l"><g id="b"><g class="k"><polygon class="j" points="509.61 28.75 497.72 42.63 494.74 62.46 508.62 67.42 501.68 81.3 507.63 93.2 500.69 104.1 498.71 114.02 505.65 126.91 410.47 129.88 406.5 123.93 199.51 140.79 196.31 145.42 191.35 143.76 189.37 140.79 9.91 139.8 12.89 132.86 0 124.92 12.89 110.05 .99 107.08 1.98 87.25 7.93 73.37 4.96 61.47 4.96 44.62 8.92 30.74 9.91 25.78 6.94 11.9 171.52 0 175.49 6.94 226.05 7.93 265.71 5.95 490.78 7.93 510.61 7.93 505.65 19.83 509.61 28.75"/><path class="h" d="M167.56,19.83s3.53,13.88,3.97,16.08c.44,2.2,5.73,8.81,5.73,8.81l2.64,4.41.88,4.19v9.47l2.31,8.15,1.21,15.2v11.46l2.42,11.68s-.22,9.91,0,11.02c.22,1.1,2.64,20.49,2.64,20.49l.44-48.91-5.73-25.56s-1.32-15.86-2.2-18.07c-.88-2.2-7.93-13.66-8.37-16.3-.44-2.64-3.97-15.86-3.97-15.86l1.98-16.08-3.97,7.71v12.12Z"/><polygon class="f" points="197.52 112.59 196.64 100.8 195.65 92.87 194.82 86.26 192.84 74.53 190.69 61.8 186.4 50.23 182.1 36.19 178.46 26.44 175.16 16.03 174.83 9.47 175.49 6.94 171.52 0 173.51 7.11 174.5 16.52 179.13 32.06 181.11 38.67 190.36 66.1 193.67 89.56 196.64 118.98 192.01 131.53 191.35 143.76 196.31 145.42 199.51 140.79 199.51 118.76 197.52 112.59"/><path class="g" d="M171.52,0l-1.98,16.08s3.53,13.22,3.97,15.86,7.49,14.1,8.37,16.3,2.2,18.07,2.2,18.07l5.73,25.56-.44,48.91,1.98,2.97.66-12.23,4.63-12.56-2.97-29.41-3.3-23.46-9.25-27.43-1.98-6.61-4.63-15.53-.99-9.42L171.52,0Z"/><path class="f" d="M407.27,109.06l-.77-12.56v-12.56l-1.4-5.07-11.15-22.36s8.26,23.13,9.75,23.46c1.49.33,0,29.08,0,29.08l1.16,8.26,1.65,6.61,3.97,5.95-3.19-20.82Z"/><polygon class="i" points="408.59 105.21 406.5 79.54 398.93 66.52 405.1 78.88 406.5 83.94 406.5 96.5 407.27 109.06 410.47 129.88 408.59 105.21"/><path class="i" d="M488.63,56.51c.33-1.16,5.12-9.09,5.12-9.09l3.97-4.79-4.02,3.86-2.31,3.64-4.3,7.55-7.88,5.67-3.42,3.3-16.03,10.6,7.38-4.54s15.86-9.58,16.36-10.08c.5-.5,4.79-4.96,5.12-6.11Z"/><path class="f" d="M497.72,42.63l-3.97,4.79s-4.79,7.93-5.12,9.09c-.33,1.16-4.63,5.62-5.12,6.11s-16.36,10.08-16.36,10.08l18.67-9.42,4.79-5.62,6.15-8.68.95-6.36Z"/></g></g></g></svg>