<?xml version="1.0" encoding="UTF-8"?><svg xmlns="http://www.w3.org/2000/svg" viewBox="0 0 350.73 349.62"><defs><style>.f{fill:#bcbec0;}.f,.g{mix-blend-mode:overlay;opacity:.46;}.h{fill:#1bbcb6;}.i{fill:#e6e7e8;mix-blend-mode:multiply;opacity:.76;}.j{isolation:isolate;}.g{fill:#a7a9ac;}</style></defs><g class="j"><g id="e"><path class="h" d="M.56,158.73s.01.01.01,0c1.14-20.3,13.57-32.63,35-34.8,7.72-.77,15.38-1.29,22.93-1.54,3.3-.11,5.11-3.98,3.1-6.6-1.93-2.52-3.66-4.88-5.16-7.07-6.01-8.77-8.73-19.63-8.02-32.28l.77-13.75c.08-1.31.79-2.49,1.92-3.16l2.21-1.32c2.82-1.68,6.01-4.11,9.46-7.21l10.48-9.38c3.53-4.13,7.54-8.22,12.27-12.54l3.28-2.98c1.5-1.38,3.8-1.38,5.3,0l34.34,31.49c2.39,2.2,6.29.71,6.67-2.52,1.71-14.46,4.1-25.6,7.18-33.77C148.2,5.86,164.09-1.25,189.53.18c19.26,1.09,33.12,10.51,40.08,27.25,4.93,11.98,7.6,24.85,7.93,38.39.01.64.53,1.17,1.17,1.21h0c.47.03,4.94-.01,16.34-8.92,6.54-5.15,12.37-9.91,17.3-14.1,6.12-5.2,15.14-5.71,21.89-1.21,8.18,5.41,14.39,11.03,18.94,17.14,6.19,8.45,8.96,19.11,8.25,31.73-.71,12.64-4.38,23.52-11.01,34.11-.53.83-1.09,1.67-1.66,2.49-1.92,2.71-.24,6.76,3.09,6.96l35.18,1.98c2.16.13,3.83,1.98,3.7,4.15l-4.13,73.57c-.13,2.17-1.99,3.83-4.15,3.72l-56.01-3.16c-2.17-.13-4.04,1.54-4.15,3.72l-.31,5.33c-.04.86.19,1.71.68,2.44l25.22,36.95c2.32,3.41,3.49,7.56,3.27,11.66l-.43,7.5c-.61,11.01-5.51,21.1-13.76,28.42-8.27,7.33-18.87,10.95-29.9,10.23-12.23-.79-22.47-4.68-30.46-11.51-2.91-2.5-6.15-5.52-9.73-9.1-2.13-2.12-5.77-1.27-6.76,1.57-.5,1.43-1.04,2.94-1.61,4.49-5.09,13.94-6.36,20.47-6.54,23.5l-.11,2c-.06,1.04-.53,2.02-1.31,2.71l-14.78,13.23c-.78.7-1.8,1.04-2.84.99l-59.54-3.34c-2.17-.13-3.83-1.99-3.7-4.15l2.32-41.22c.18-3.27-3.51-5.34-6.3-3.66-16.71,10.09-33.33,14.69-49.66,13.73-22.36-1.29-39.52-20.58-38.25-43,.7-12.55,4.59-23,11.54-31.11,4.54-5.32,10.78-11.65,18.97-19.22,1.43-1.34,1.75-3.6.19-4.8-1.54-1.18-3.17-1.67-4.62-1.95-8.07-1.53-16.48-3.38-25.05-5.52-9.25-2.23-17.85-6.05-25.52-11.4-4.27-2.96-11.55-6.97-13.23-18.12-.04-.22-.04-.46-.04-.68l.54-16.43s.01-.01.01-.01h0Z"/><path class="i" d="M238.7,99.11l-24.2,70.54c6.98,18.2,13.96,36.4-1.09,41.71-15.05,5.31-23.11,28.83-23.11,28.83l-8.07,23.51-8.07,23.51-23.11,28.83,8.07-23.51,8.07-23.51c-6.98-18.2,31.18-52.34,31.18-52.34l8.07-23.51-6.98-18.2,1.09-41.71,38.16-34.14Z"/><path class="f" d="M198.37,216.68l8.07-23.51-6.98-18.2,1.09-41.71,38.16-34.14,3.98-7.13.55-12.91s-17.93,25.05-19.79,25.43c-1.86.38-9.56,2.49-15.21,9.94-5.66,7.45-11.48,13.14-17.85,22.65-6.36,9.51,2.51,37.87,2.51,37.87l-2.94,19.81-9.23,28.09-12.08,19.41-8.48,23.58-1.05,26.69,8.07-23.51c-6.98-18.2,31.18-52.34,31.18-52.34Z"/><path class="g" d="M284.74,51.49s-4.34,28.24-8.1,42.13c-3.77,13.89-17.95,40.13-17.95,40.13,0,0-2.16,14.3-1.89,25.27.26,10.98-4.2,28-4.2,28l11.25-31.15,16.53-41.85,4.35-62.53Z"/><polygon class="i" points="280.39 114.02 252.6 187.03 283.45 116.88 284.09 83.41 283.66 67 280.39 114.02"/><path class="f" d="M106.68,162.41l-1.9,33.1-16.59,37.61s-5.99,28.82-9.07,38.18c-3.08,9.36-6.39,31.18-6.39,31.18l14.72-40.15,10.75-40.93,13.84-29.14,1.81-44.68,19.78-32.08-27.44,37.69.49,9.22Z"/><polygon class="i" points="113.85 147.58 112.04 192.26 98.21 221.41 87.46 262.34 79.18 284.91 90.02 263.46 98.17 235.13 115.55 192.26 115.62 151.8 122.93 132.86 113.85 147.58"/></g></g></svg>