<?xml version="1.0" encoding="UTF-8"?><svg xmlns="http://www.w3.org/2000/svg" xmlns:xlink="http://www.w3.org/1999/xlink" viewBox="0 0 556.22 138.62"><defs><style>.h{opacity:.85;}.i{fill:#bcbec0;mix-blend-mode:overlay;opacity:.54;}.j{fill:#f4eae0;}.k{fill:#ffb0a1;}.l{fill:url(#c);mix-blend-mode:screen;opacity:.53;}.m{fill:url(#d);opacity:.51;}.m,.n{mix-blend-mode:multiply;}.o{isolation:isolate;}.n{fill:#d1d3d4;}</style><linearGradient id="c" x1="259.1" y1="76.42" x2="294.24" y2="64.31" gradientUnits="userSpaceOnUse"><stop offset="0" stop-color="#231f20" stop-opacity="0"/><stop offset=".04" stop-color="#383435" stop-opacity=".07"/><stop offset=".15" stop-color="#6c696a" stop-opacity=".23"/><stop offset=".27" stop-color="#999798" stop-opacity=".38"/><stop offset=".39" stop-color="#bebdbd" stop-opacity=".5"/><stop offset=".51" stop-color="#dbdada" stop-opacity=".59"/><stop offset=".65" stop-color="#efefef" stop-opacity=".65"/><stop offset=".8" stop-color="#fbfbfb" stop-opacity=".69"/><stop offset="1" stop-color="#fff" stop-opacity=".7"/></linearGradient><linearGradient id="d" x1="281.07" y1="68.85" x2="299.27" y2="62.58" xlink:href="#c"/></defs><g class="o"><g id="b"><g class="h"><path class="j" d="M548.7,98.97l7.52-8.76-6.43-13.42-1.09-4.73-10.68-16.17,10.68-15.39-10.68-18.63,11.77-11.18-11.77-10.69H9.3v7.54s-2.56,7.66,0,10.95c2.56,3.29,5.73,16.68,5.73,16.68l-3.43,8.34-3.43,4.81v7.56l6.87,8.33-9.49,12.57,9.49,13.42-4.75,5.14-.98,6.68.98,9.47-4.75,16.32-5.54,10.81,549.79-5.31-1.09-25.54v-8.8Z"/><polygon class="k" points="513.1 133.18 544.54 117.2 513.1 101.21 544.54 85.23 513.1 69.25 538.37 56.41 538.02 55.88 541.06 51.5 513.1 37.29 539.24 24 538.02 21.87 540.68 19.34 513.1 5.33 523.58 0 510.34 0 499.86 5.33 531.3 21.31 499.86 37.29 531.3 53.27 499.86 69.25 531.3 85.23 499.86 101.21 531.3 117.2 499.86 133.18 501.03 133.78 514.02 133.65 513.1 133.18"/><polygon class="k" points="460.09 133.18 491.54 117.2 460.09 101.21 491.54 85.23 460.1 69.25 491.54 53.27 460.1 37.29 491.54 21.31 460.1 5.33 470.58 0 457.34 0 446.85 5.33 478.3 21.31 446.85 37.29 478.3 53.27 446.85 69.25 478.3 85.23 446.85 101.21 478.3 117.2 446.85 133.18 449.01 134.28 462.01 134.16 460.09 133.18"/><polygon class="k" points="407.09 133.18 438.53 117.2 407.09 101.21 438.53 85.23 407.09 69.25 438.53 53.27 407.09 37.29 438.54 21.31 407.09 5.33 417.58 0 404.33 0 393.85 5.33 425.29 21.31 393.85 37.29 425.29 53.27 393.85 69.25 425.29 85.23 393.85 101.21 425.29 117.2 393.85 133.18 397 134.78 409.99 134.66 407.09 133.18"/><polygon class="k" points="354.08 133.18 385.53 117.2 354.09 101.21 385.53 85.23 354.09 69.25 385.53 53.27 354.09 37.29 385.53 21.31 354.09 5.33 364.57 0 351.33 0 340.84 5.33 372.29 21.31 340.84 37.29 372.29 53.27 340.84 69.25 372.29 85.23 340.85 101.21 372.29 117.2 340.85 133.18 344.98 135.29 357.97 135.16 354.08 133.18"/><polygon class="k" points="301.08 133.18 332.52 117.2 301.08 101.21 332.53 85.23 301.08 69.25 332.53 53.27 301.08 37.29 332.53 21.31 301.08 5.33 311.57 0 298.32 0 287.84 5.33 319.28 21.31 287.84 37.29 319.28 53.27 287.84 69.25 319.28 85.23 287.84 101.21 319.28 117.2 287.84 133.18 292.97 135.79 305.96 135.66 301.08 133.18"/><polygon class="k" points="248.08 133.18 279.52 117.2 248.08 101.21 279.52 85.23 248.08 69.25 279.52 53.27 248.08 37.29 279.52 21.31 248.08 5.33 258.56 0 245.32 0 234.83 5.33 266.28 21.31 234.84 37.29 266.28 53.27 234.84 69.25 266.28 85.23 234.84 101.21 266.28 117.2 234.84 133.18 240.95 136.29 253.94 136.17 248.08 133.18"/><polygon class="k" points="195.07 133.18 226.52 117.2 195.07 101.21 226.52 85.23 195.07 69.25 226.52 53.27 195.07 37.29 226.52 21.31 195.07 5.33 205.56 0 192.31 0 181.83 5.33 213.27 21.31 181.83 37.29 213.27 53.27 181.83 69.25 213.27 85.23 181.83 101.21 213.28 117.2 181.83 133.18 188.94 136.79 201.93 136.67 195.07 133.18"/><polygon class="k" points="142.07 133.18 173.51 117.2 142.07 101.21 173.51 85.23 142.07 69.25 173.51 53.27 142.07 37.29 173.51 21.31 142.07 5.33 152.55 0 139.31 0 128.83 5.33 160.27 21.31 128.83 37.29 160.27 53.27 128.83 69.25 160.27 85.23 128.83 101.21 160.27 117.2 128.83 133.18 136.92 137.3 149.91 137.17 142.07 133.18"/><polygon class="k" points="89.06 133.18 120.51 117.2 89.06 101.21 120.51 85.23 89.06 69.25 120.51 53.27 89.06 37.29 120.51 21.31 89.06 5.33 99.55 0 86.3 0 75.82 5.33 107.27 21.31 75.82 37.29 107.27 53.27 75.82 69.25 107.27 85.23 75.82 101.21 107.27 117.2 75.82 133.18 84.9 137.8 97.89 137.67 89.06 133.18"/><polygon class="k" points="36.06 133.18 67.5 117.2 36.06 101.21 67.5 85.23 36.06 69.25 67.5 53.27 36.06 37.29 67.5 21.31 36.06 5.33 46.54 0 33.3 0 22.82 5.33 54.26 21.31 22.82 37.29 54.26 53.27 22.82 69.25 54.26 85.23 22.82 101.21 54.26 117.2 22.82 133.18 32.89 138.3 45.88 138.18 36.06 133.18"/><polygon class="n" points="15.03 64.21 84.26 56.15 104.84 57.79 132.92 56.15 83.08 61.56 60.16 62.57 5.54 76.78 15.03 64.21"/><polygon class="i" points="8.17 55.88 80.7 52.38 102.32 55.78 114.46 54.89 139.91 52.91 166.02 48.42 132.92 56.15 104.84 57.79 84.26 56.15 15.03 64.21 8.17 55.88"/><polygon class="n" points="556.22 90.2 522.2 89.86 482.24 98.14 469.2 98.14 446.85 104.47 502.81 97.16 548.7 98.97 556.22 90.2"/><polygon class="i" points="549.79 76.78 548.7 72.06 528.66 81.52 512.31 84.69 482.44 89.86 460.62 97.74 417.49 108.69 386.24 110.93 427.78 109.61 446.85 104.47 469.2 98.14 482.24 98.14 522.2 89.86 556.22 90.2 549.79 76.78"/><path class="l" d="M306.85,123.75l-45.91-111.74s-20.21,40.68-5.78,77.46c14.44,36.78,51.69,34.29,51.69,34.29Z"/><path class="m" d="M305.01,73.41c-8.9-23.14-44.07-61.41-44.07-61.41l45.91,111.74s7.06-27.19-1.84-50.34Z"/></g></g></g></svg>