<?xml version="1.0" encoding="UTF-8"?>
<svg id="refined_design" xmlns="http://www.w3.org/2000/svg" version="1.1" viewBox="0 0 67.3 67.3">
  <!-- Generator: Adobe Illustrator 29.5.1, SVG Export Plug-In . SVG Version: 2.1.0 Build 141)  -->
  <defs>
    <style>
      .st0 {
        fill: #1bbcb6;
      }
    </style>
  </defs>
  <path class="st0" d="M0,32.6h0c0-3.9,2.3-6.4,6.4-7.1,1.5-.2,3-.4,4.4-.5.6,0,.9-.8.5-1.3s-.8-.9-1.1-1.3c-1.3-1.6-1.9-3.7-1.9-6.1v-2.7c0-.3.1-.5.3-.6l.4-.3c.5-.4,1.1-.9,1.7-1.5l1.9-1.9c.6-.8,1.4-1.7,2.2-2.5l.6-.6c.3-.3.7-.3,1,0l7,5.7c.5.4,1.2,0,1.3-.6.2-2.8.5-5,1-6.6,1.1-3.2,4.1-4.7,9-4.7s6.5,1.7,8,4.8c1.1,2.3,1.7,4.7,1.9,7.3,0,.1,0,.2.2.2h0s1,0,3.1-1.9c1.2-1.1,2.3-2,3.2-2.9,1.1-1.1,2.9-1.3,4.2-.5,1.6,1,2.9,2,3.8,3.1,1.3,1.6,1.9,3.6,1.9,6s-.6,4.6-1.8,6.7c0,.2-.2.3-.3.5-.3.5,0,1.3.7,1.3h6.8c.4,0,.8.3.8.8v14.2c0,.4-.3.8-.8.8h-10.8c-.4,0-.8.3-.8.8v1c0,.2,0,.3.2.5l5.3,6.9c.5.6.8,1.4.8,2.2v1.5c0,2.1-.8,4.1-2.3,5.6s-3.5,2.3-5.7,2.3-4.4-.7-6-1.9c-.6-.5-1.2-1-2-1.6-.4-.4-1.1-.2-1.3.4,0,.3-.2.6-.3.9-.8,2.7-1,4-1,4.6v.4c0,.2,0,.4-.2.5l-2.7,2.7c0,0-.3.2-.5.2h-11.5c-.4,0-.8-.3-.8-.8v-8c0-.6-.7-1-1.2-.6-3.1,2.1-6.3,3.2-9.4,3.2s-7.8-3.5-7.8-7.9.6-4.5,1.9-6.1c.8-1.1,2-2.4,3.4-3.9.3-.3.3-.7,0-.9s-.6-.3-.9-.3c-1.6-.2-3.2-.5-4.9-.8-1.8-.3-3.5-1-5-1.9-.9-.5-2.5-1.2-2.9-3.4h0v-3.4Z"/>
</svg>