<?xml version="1.0" encoding="UTF-8"?>
<svg id="refined_design" xmlns="http://www.w3.org/2000/svg" version="1.1" viewBox="0 0 54.9 279.1">
  <!-- Generator: Adobe Illustrator 29.5.1, SVG Export Plug-In . SVG Version: 2.1.0 Build 141)  -->
  <defs>
    <style>
      .st0 {
        fill: #1bbcb6;
      }

      .st1 {
        fill: #333;
      }
    </style>
  </defs>
  <path class="st1" d="M38.3,241.6c.4,10.8-3,24.7-9.5,33.4-1.9,2.6-7.8,6.2-10.4,2.6-4.1-5.7-4.9-24.5-5.1-31.9.1-10.3.3-44.7.2-77.5h21.2c0,11.3.3,30.7.1,38.5-4.3,12.2-9.7,27-7.9,40.1,1.2,9,4.3,4.2,5.6-1.6.5-2.1,1.2-12.3,3.1-12.8,2.1-.5,2.8,7.7,2.8,9.1h0Z"/>
  <path class="st0" d="M13.5,168.2c0-11.1-.2-34-.4-46.6-5.1-39.4-6.4-58.5-6.3-67.8.3-12.7.3-38.1,7.9-48.1,5.1-6.7,17.9-8.5,21.4.3,4.4,10.9,4.3,32.5,4.5,44.7,0,9.4-1.1,26.5-6.1,65,0,16.8,0,41.3.2,52.5H13.5Z"/>
</svg>