<?xml version="1.0" encoding="UTF-8"?>
<svg id="refined_design" xmlns="http://www.w3.org/2000/svg" version="1.1" xmlns:xlink="http://www.w3.org/1999/xlink" viewBox="0 0 112.3 122.5">
  <!-- Generator: Adobe Illustrator 29.5.1, SVG Export Plug-In . SVG Version: 2.1.0 Build 141)  -->
  <defs>
    <style>
      .st0 {
        fill: #fff;
      }

      .st1 {
        mask: url(#mask);
      }

      .st2 {
        filter: url(#luminosity-invert-noclip);
      }

      .st3 {
        fill: none;
        stroke: #ffd166;
        stroke-miterlimit: 10;
        stroke-width: 2.7px;
      }

      .st4 {
        fill: #333;
      }

      .st5 {
        fill: #86c8bd;
      }
    </style>
    <filter id="luminosity-invert-noclip" x="2.7" y="0" width="106.9" height="88.2" color-interpolation-filters="sRGB" filterUnits="userSpaceOnUse">
      <feColorMatrix result="cm" values="-1 0 0 0 1 0 -1 0 0 1 0 0 -1 0 1 0 0 0 1 0"/>
      <feFlood flood-color="#fff" result="bg"/>
      <feBlend in="cm" in2="bg"/>
    </filter>
    <mask id="mask" x="2.7" y="0" width="106.9" height="88.2" maskUnits="userSpaceOnUse">
      <g class="st2">
        <path class="st0" d="M107,88.2c5.9-23.8,6.2-63.4-44.6-67.4C9.5,16.6,2.5,62.8,2.7,75.6"/>
      </g>
    </mask>
  </defs>
  <g class="st1">
    <path class="st4" d="M69.7,4.9c-.9.2-1.7.6-2.5,1.1-.8.5-1.5,1.1-2.2,1.6-.7.5-1.5.6-2.4.2,0-1.6,0-2.9-.2-3.9-.1-.9-.6-1.8-1.4-2.6-1.6-1.6-3.3-1.6-4.9,0s-2.5,4.1-2.5,7.4l-4.9-4.9-4.1,4.1v1.7c.4.4.9,1.2,1.6,2.5.7,1.2,1.2,2.1,1.6,2.5-1.6,0-2.9,0-3.9.2-.9.1-1.8.6-2.6,1.4-1.6,1.6-1.6,3.3,0,4.9l.9.9,5.7.7,1.7,1.7-4.9,4.9,4.9,4.9,4.9-4.9c-.4,1.2-.5,2.4-.1,3.6.3,1.1.9,2.1,1.7,3s1.7,1.3,2.6,1.4c.9,0,2,0,3.2-.5,0-.8,0-1.9.1-3.2,0-1.3.3-2.2.7-2.6l.7-.7c1.2,1.2,2.6,2.1,4.1,2.6,1.5.5,2.9.2,4.1-1s2.2-3.1,1.5-4.2c-.6-1.2-1.9-2.8-4-4.9l7.4-.7c0-.7,0-1.3-.1-1.8,0-.5,0-1,0-1.6s0-1.1.1-1.5l-.9-.9c-.8-.8-1.7-1.3-2.6-1.4-.9-.1-2.2-.2-3.9-.2,1.2-1.2,2.4-2.6,3.5-4.1,1.1-1.5,1-2.9-.2-4.1s-2-1.5-2.9-1.3Z"/>
  </g>
  <g>
    <path class="st4" d="M16.7,48.2c-1.3,1.4-2.3,2.7-3.2,4.1-5.7,8.3-6.9,18-5.9,26.6.5-3.4,1.5-6.6,3.1-9.6,1.2-2.3,2.7-4.4,4.5-6.4l1.5-14.7Z"/>
    <path class="st4" d="M103.7,37.6c-8.2-11.4-22.1-18-41.1-19.5-18.8-1.5-33.8,3-44.8,13.3C6.8,41.8,2.1,56.2.6,66.9c0,.3,0,.6-.1.8,0,0,0,0,0,0-.1,1-.2,2.1-.3,3.1,0,.3,0,.5,0,.7,0,.3,0,.5,0,.8,0,1.2,0,2.3,0,3.2h0c.1,6.7,1.4,12.9,3.9,18.5,2.6,5.9,6.4,10.9,11.2,15.1,4.9,4.2,10.8,7.5,17.7,9.8,6.9,2.3,14.5,3.5,23,3.5s16-1.2,23-3.5c6.9-2.3,12.8-5.6,17.7-9.8,2.9-2.5,5.3-5.2,7.4-8.3,4.9-12.2,5.9-31.3-3.1-46.2-1.3-2.1-2.7-4.1-4.4-5.9l.6,14.6c1.5,1.8,2.9,3.7,3.9,5.8,2.3,4.4,3.5,9.2,3.5,14.3s-1.2,10-3.5,14.3c-2.3,4.4-5.6,8.2-9.9,11.4-4.3,3.2-9.4,5.7-15.3,7.5-5.9,1.8-12.6,2.7-19.9,2.7s-14-.9-19.9-2.7c-5.9-1.8-11-4.3-15.3-7.5-4.3-3.2-7.6-7-9.9-11.4-.7-1.3-1.2-2.6-1.7-3.9-5.1-11.1-7.5-29,2.2-43.4,3.7-5.5,10-11.5,20.6-15.3h0s0,0,0,0c7.9-2.8,18.1-4.4,31.5-3.7,22.7,1.3,34.2,12.4,39.7,21.6,6.6,10.8,8.2,23.4,6.9,34.5.7-2.5,1.2-5.1,1.5-7.8,1.9-12.4,1.9-29.3-7.6-42.5ZM96.4,40.4c-4.9-4.2-10.8-7.5-17.7-9.8-6.9-2.3-14.6-3.5-23-3.5s-16.1,1.2-23,3.5c-4.6,1.6-8.8,3.6-12.5,6,.4-.4.8-.8,1.2-1.2,9.8-9.2,23.5-13.2,40.7-11.9,17.4,1.4,29.9,7.2,37.1,17.3,1.6,2.2,2.9,4.6,3.9,7.1-2-2.7-4.2-5.2-6.8-7.5Z"/>
    <path class="st4" d="M48.8,48.1l-.4-13.4c-5.3.5-9.9,1.4-13.8,2.7l.2,13.5c.4-.1.8-.3,1.2-.4,4-1.2,8.3-2,12.9-2.4Z"/>
    <path class="st4" d="M80,52l.2-14c-4-1.5-8.4-2.6-13.1-3.1l.2,13.8c2.9.4,5.7,1.1,8.4,1.9,1.5.5,2.9.9,4.3,1.5Z"/>
    <path class="st4" d="M82.7,53.2c3,1.4,5.8,3,8.3,4.8,1.1.8,2.1,1.7,3.1,2.6l-.6-14.5c-3.1-2.8-6.6-5.1-10.5-6.9l-.2,14Z"/>
    <path class="st4" d="M64.6,48.3l-.2-13.7c-.4,0-.9,0-1.3-.1-4.3-.2-8.3-.2-12,0l.4,13.4c1.4,0,2.8-.1,4.3-.1,3.1,0,6,.2,8.8.5Z"/>
    <path class="st4" d="M18.2,59.9c.8-.7,1.5-1.3,2.4-1.9,3.3-2.5,7.1-4.5,11.4-6.1l-.2-13.5c-5,1.9-9,4.3-12.1,7l-1.5,14.6Z"/>
  </g>
  <path class="st5" d="M62.2,23.5c17.4,1.4,29.9,7.2,37.1,17.3,1.6,2.2,2.9,4.6,3.9,7.1-2-2.7-4.2-5.2-6.8-7.5-4.9-4.2-10.8-7.5-17.7-9.8-6.9-2.3-14.6-3.5-23-3.5s-16.1,1.2-23,3.5c-4.6,1.6-8.8,3.6-12.5,6,.4-.4.8-.8,1.2-1.2,9.8-9.2,23.5-13.2,40.7-11.9Z"/>
  <path class="st4" d="M34,79.2c-2.7,0-4.8-.8-6.4-2.3-1.6-1.5-2.4-3.6-2.4-6.1s.8-4.5,2.4-6.1c1.6-1.5,3.7-2.3,6.4-2.3s4.8.8,6.4,2.3c1.6,1.5,2.4,3.6,2.4,6.1s-.8,4.5-2.4,6.1c-1.6,1.5-3.7,2.3-6.4,2.3Z"/>
  <path class="st4" d="M71.2,79.2c-2.7,0-4.8-.8-6.4-2.3-1.6-1.5-2.4-3.6-2.4-6.1s.8-4.5,2.4-6.1c1.6-1.5,3.7-2.3,6.4-2.3s4.8.8,6.4,2.3c1.6,1.5,2.4,3.6,2.4,6.1s-.8,4.5-2.4,6.1c-1.6,1.5-3.7,2.3-6.4,2.3Z"/>
  <path class="st3" d="M15.7,102.4c-2.3,2-4.8,2.1-7,1.6s-3.7-3-3.4-5.3,2.1-4.2,4.3-4.9c.8-.3,1.8-.4,2.6-.2,2.3.8,2.4,4.5.4,5.8s-5,.2-6.2-1.9c-1.2-2.1-1-4.8,0-7,.5-1.1,1.2-2.2,2.3-2.7s2.6-.3,3.2.7c.7,1.2-.1,2.9-1.4,3.5-1.9,1-4.4.1-5.7-1.5-1.3-1.7-1.7-4-1.4-6.1.3-2.3,1.4-4.6,3.3-6.1,1.9-1.5,4.5-2,6.7-.9s3.4,3.7,2.6,5.9c-.2.5-.5,1-.9,1.4-1.1,1-2.7,1-4,.4s-2.2-1.7-3-3c-1.2-2-1.9-4.5-1.2-6.7s2.9-4.1,5.2-3.7,3.9,3.4,2.5,5.3c-1.6,2.2-5.4,1-6.8-1.3-1.9-3.1-1.1-7.5,1.5-10.2,2.6-2.6,6-4,9.7-3.6,1.4.1,2.4.6,3.4,1.6,1,1,1.4,2.5.6,3.7-1.1,1.5-2.7,1.4-4.1.2-2.5-2.1-3.3-6-1.8-8.9s5.2-4.4,8.3-3.5c1.4.4,2.7,1.5,2.6,2.9-.1,1.1-1.2,1.9-2.3,2.1-2.9.7-6.1-2-5.8-5,.2-3.3,3.7-5.4,6.9-6.3,2.6-.7,5.4-1,8.1-.8,1.8.1,3.8.5,5.1,1.8s1.7,3.6.4,4.9c-1.4,1.3-4,.5-4.8-1.3s0-3.9,1.5-5.2c1.5-1.3,3.4-1.7,5.3-1.9,1.5-.1,3.2,0,4.5.7,1.3.8,2.3,2.4,2,3.9-.4,1.9-2.6,2.8-4.5,2.8-.6,0-1.2,0-1.7-.4-1.3-1-.3-3.2,1-4.3,2.4-2.1,5.5-3.4,8.7-3.7,2.1-.2,4.7-.2,6.7.5s3.6,7.5,1,7.6c-1.1,0-3.9-4.1-1.7-6.6,1.4-1.6,5.4-1.3,7.5-1.1,3.2.3,6.2,1.3,9,2.9,1.7,1,3.4,2.5,3.1,4.4-.3,2.2-2.9,3.1-5,3.5-1.4.3-3.5,0-3.4-1.3,0-.6.5-1.2,1.1-1.5,4.6-3.3,11.2-2.2,15.9.9,1,.7,2,1.5,2.5,2.6s0,2.7-1.1,3.1c-1.6.6-3.1-1.4-2.7-3,.4-1.6,1.4-2.4,3-2.9,4-1.2,8-.4,10.2,1.8,1.8,1.8,1.1,6.5.2,7.9-.4.5-2.3,2.3-2.9,2.6-2,1-3.4,1.8-4,.6-.6-1.2.1-3.7,3-4.9s5.1-1.4,6.6,0c2.4,2.3,2.3,5.4,2,7.1-1.3,6.2-3.5,9.5-5.2,8.3s-.9-4.5,1.8-5.1,5.4.4,7.3,2.4c2.3,2.3,3.2,8.4,1.2,11-2,2.6-4.6,3.8-7.4,2.3-1.2-.6-2-2-1.4-3.2s1.7-1.8,2.3-2c4.5-1,6,1.1,8.1,5.2.6,1.2.7,4-.3,5.4-.6.9-1.5,1.6-2.5,2-3.8,1.5-11,1.8-10.1-1.4s6.5.2,6.9,3.3-1.9,6-4.7,7.3c-1.1.5-2.4.9-3.5.5s-2.1-1.6-1.8-2.8c.2-.7.9-1.3,1.6-1.6,3.3-1.5,7.6,1.7,7.4,5.4-.2,3.6-4.2,6.4-7.8,5.7"/>
</svg>