<?xml version="1.0" encoding="UTF-8"?>
<svg id="Layer_1" xmlns="http://www.w3.org/2000/svg" version="1.1" xmlns:xlink="http://www.w3.org/1999/xlink" viewBox="0 0 317.1 90">
  <!-- Generator: Adobe Illustrator 29.5.1, SVG Export Plug-In . SVG Version: 2.1.0 Build 141)  -->
  <defs>
    <style>
      .st0 {
        fill: #fff9ed;
      }

      .st1 {
        fill: none;
      }

      .st2 {
        fill: #1bbcb6;
      }

      .st3 {
        fill: #333;
      }

      .st4 {
        clip-path: url(#clippath);
      }

      .st5 {
        fill: #ffd166;
      }
    </style>
    <clipPath id="clippath">
      <rect class="st1" width="317.1" height="90"/>
    </clipPath>
  </defs>
  <g class="st4">
    <g>
      <path class="st2" d="M321.2,94.2H-3.8v-54.6c28.3-11,49.4-2.4,58.3,4.4,12.5-6.4,30.6-9,43.4-4,16.5-14,49.2-12.6,66.2,3.6,29.9-10.7,54.1,19.7,80.9,17.6.2-.3,2.1,10.4,2.4,16.6,6.3-13.2,18-11.2,25.3-17.5,3.2-3.8,5.8-11,8.6-13.6,2.8-2.6,8.4,5.1,8.7,5.3.5.4,2,.2,4.1-1.4,8.8-6.6,17.4-10.7,25.5-13.2-.3,18.9-.4,37.9,1.6,56.8Z"/>
      <path class="st0" d="M241.6,6.1c-11,6.3-11.3,15.8-11,17.6s-1.4,7.5,3,15.9,7.5,13.5,9.3,18,3.4,21.3,4.5,20.2,7.3-7.8,8.8-9.4,17-7.5,17-7.5l8.6-13.9,5.9-1s9.5-15.6,10.2-17.8,3.1-11,0-13-13.5-5.4-16-3.9-11.7,6.8-11.7,6.8c0,0-3-6.6-5.7-9s-12.7-8.8-22.9-3Z"/>
      <path class="st3" d="M293.9,48.2c-2.1,1.6-3.6,1.8-4.1,1.4-1.6-1.5-.8-4.5,2.3-8.9,4.7-6.8,9.6-15.8,9.6-19.1s-1.2-6.2-3.4-8.4c-2.9-2.8-7.5-4.3-12.6-4.3-5.4.1-10.5,1.8-14.9,4.7-.1-.3-.3-.6-.4-.9-3.4-6.4-10.1-10.4-18-10.7-8.1-.2-15.5,3.6-19.5,10-9.1,14.6-4,24.7,4.7,38.3,2,3.1,3.4,6.3,4.4,9.3-8.1.4-24.8-7.3-35.3-12.1-5.3-2.5-9.9-4.6-12.8-5.5-10.5-3.4-21.3-3.5-30-.7-3.8-3.5-8.3-6.4-13.5-8.7-17.2-7.4-38.8-5.6-51.6,4.2-.4.2-.8.5-1.1.8-7-2.6-15-3.3-23.8-2.1-7,1-13.7,3.2-19.6,6.1-.4-.4-.9-.7-1.3-1-7.5-5.4-29.9-14.1-56.8-3.4v4.4c25.6-11,47-3.1,54.4,2-8.4,5-14.6,11.7-16.6,18.7-1.5,5.2-1.4,13,7.4,20.4,3.2,3,6.2,3.9,8.6,3.9l-.4.2c1.2,0,2.3-.3,3.2-.6,5.3-1.9,9.3-8.4,10.5-17,1.1-7.7-.2-17.5-6.2-24.6,5.2-2.5,11.1-4.3,17.1-5.1,7.3-1,14.1-.5,20,1.3-5.8,6.5-8.1,14.9-6.7,24.3,1.8,11.1,9.4,16.6,15.9,18.1,6.4,1.5,12.6-.5,15.8-5.1,2.5-3.5,5.4-11.5-3.4-25.5-3.5-5.7-8.4-10.1-14.2-13.1,11.8-8.6,31.3-9.9,46.9-3.2,4.2,1.8,7.8,4.1,10.9,6.7-4.2,2-7.8,4.8-10.2,8.3-10.2,14.8-4.9,24.4-2.2,27.8,4.9,6,13.6,8.4,20.3,5.7,6.5-2.6,9.7-9.1,8.8-17.9-.8-8.6-4-16.2-9.2-22.3,7.6-1.9,16.8-1.6,25.7,1.2,2.7.8,7.2,2.9,12.4,5.3,15.9,7.2,29.8,13.2,38.1,12.4.8,3.4,1.2,6.4,1.4,8.7.4,3.8.7,6,2.7,6.5,2,.6,3.5-1.5,4.4-2.7,4.2-5.7,7.1-8.1,7.9-8.5l-2-3.5c-1.6.9-4.8,3.9-8.9,9.3,0-.5-.2-1.1-.2-1.6-.6-5.5-1.7-14.6-7.5-23.7-8.9-13.9-12.2-21.7-4.6-34,3.3-5.2,9.4-8.3,16-8.1,6.4.3,11.9,3.5,14.6,8.6.2.5.4,1,.6,1.6-.7.6-1.4,1.3-2,2-4.6,5-7.3,11.5-6.9,16.4.2,2.5,1.5,3.3,2.3,3.5,1.6.5,3.3-.4,5.2-2.6,3.2-3.8,6.5-11.2,5.8-17.8,3.3-2.5,7.9-4.7,14-4.8,4,0,7.6,1.1,9.7,3.2,1.4,1.5,2.2,1.5,2.2,5.6s-6.7,13.7-8.9,16.8c-4.4,6.3-5,11.1-1.7,14.1,1.1,1,4,2.7,9.2-1.1,8-6,15.8-9.8,23.2-12.2v-4.3c-8.2,2.4-16.9,6.6-25.8,13.2h0ZM59.7,68.6c-1,6.9-4.2,12.5-7.9,13.8-2.4.9-5,0-7.8-2.6-5.8-4.9-7.9-10.4-6.2-16.3,1.8-6.3,7.9-12.4,16-17,5.7,6.1,6.9,15.1,5.9,22.1ZM112.7,54.6c5.5,8.8,6.8,16.4,3.6,21-2.3,3.3-6.8,4.7-11.6,3.6-5.2-1.2-11.3-5.7-12.9-14.8-1.6-10.6,2.3-17.6,6.8-22.1,5.9,2.6,10.6,6.8,14.1,12.3ZM172.2,67.2c.7,6.9-1.5,11.9-6.3,13.8-5.1,2.1-11.8.2-15.6-4.5-4.6-5.7-3.7-14.1,2.4-23,2.3-3.3,5.8-5.9,10.1-7.6h0c5.3,5.7,8.6,13,9.4,21.3h0ZM266.4,27c-1.2,3.1-2.7,5.4-3.8,6.5,0-3,1.7-7.6,5.2-11.7-.2,1.7-.7,3.4-1.4,5.2h0Z"/>
      <path class="st5" d="M257.3,47.3c-.7.6-1.1,1.3-1,2.1,0,.8.5,1.5,1.3,2.1l12.5,8.7-14.8,2.8c-1.1,0-1.9.6-2.2,1.3-.4.8-.3,1.6.2,2.5l2,4.7c.3.7.7,1.2,1.3,1.5.9.5,1.9.4,3-.4l12.1-9.2-1.9,15.1c-.1,1.4.2,2.3,1.1,2.8s1.2.4,1.9.3l5-.6c1.1,0,1.8-.4,2.3-1.1s.5-1.6,0-2.6l-5.1-14.2,13.8,6.4c.9.4,1.8.4,2.5,0s1.2-1,1.3-2l1-5.1c.3-1.4,0-2.4-1-2.9s-1.1-.4-1.7-.4l-15.1.3,10.4-11c.7-.8,1-1.5.9-2.3s-.6-1.4-1.5-1.9l-4.4-2.5c-.9-.5-1.7-.6-2.4-.3-.7.3-1.3.9-1.6,1.9l-4.2,14.5-7.4-13.2c-.2-.5-.6-.9-1.2-1.3-.9-.5-1.9-.3-3.1.6l-3.9,3.4h0Z"/>
    </g>
  </g>
</svg>