<?xml version="1.0" encoding="UTF-8"?><svg xmlns="http://www.w3.org/2000/svg" viewBox="0 0 524.45 146.69"><defs><style>.f{opacity:.9;}.g{fill:#d80f0f;}.h,.i{fill:#fff;}.j{isolation:isolate;}.i{mix-blend-mode:overlay;}.k{fill:#bcbec0;mix-blend-mode:multiply;opacity:.53;}</style></defs><g class="j"><g id="b"><g class="f"><path class="g" d="M519.85,91.35l-11.55-23.64,11.55-18.27V10.75l-7.22-10.75L5.12,4.3v17.82l.42,16.36L0,68.78v6.45c0,3.22,2.77,15.05,2.77,15.05l2.77,22.25,5.1,20.74-5.32,4.82,294.4-4.82,220.13,13.43v-23.1l4.6-22.89-4.6-9.35Z"/><polygon class="h" points="404.02 79.7 424.57 80.63 425.24 67.15 404.7 66.22 405.2 56.16 425.75 57.19 426.46 43.11 392.35 41.41 389.42 100.09 402.97 100.77 404.02 79.7"/><path class="h" d="M471.08,73.13c1.54-2.83,2.39-6.04,2.57-9.62.16-3.24-.23-6.27-1.18-9.08-.95-2.81-2.45-5.08-4.52-6.81-2.07-1.73-4.61-2.67-7.64-2.82l-25.83-1.29-2.93,58.68,13.56.68,1.07-21.41,5.03.25,6.42,21.78,15.21.76-8.16-25.03c2.73-1.23,4.86-3.26,6.39-6.09ZM458.51,67.42c-.79,1.01-1.72,1.49-2.78,1.44l-8.89-.45.54-10.83,8.89.45c1.06.05,1.94.61,2.62,1.67.68,1.06.99,2.36.91,3.89-.08,1.53-.51,2.81-1.3,3.83Z"/><path class="h" d="M510.68,47.32l-15.77-.79-18.33,57.91,13.86.69,2.19-8.19,14.78.74,1.37,8.36,14.36.72-3.19-15.19-.11-.23-11.55-23.64,5-7.91-2.62-12.48ZM496.12,83.96l5.52-20.67h.25s3.37,21.13,3.37,21.13l-9.14-.46Z"/><path class="h" d="M10.13,41.34L.44,78.97c.78,4.68,2.33,11.31,2.33,11.31l1.23,9.85,4.86-.02,1.74-8.29,14.8-.07,1.82,8.28,14.37-.06-15.68-58.69-15.79.07Z"/><path class="h" d="M66.88,67.06l.05,11.95,9.58-.04c0,2.28-.76,4.14-2.31,5.6-1.55,1.46-3.43,2.19-5.64,2.2-3.19.01-5.62-1.16-7.26-3.51-1.65-2.36-2.48-5.7-2.5-10.02l-.02-5.47c-.02-4.32.79-7.67,2.41-10.04,1.63-2.37,4.04-3.56,7.23-3.58,2.21,0,4.1.74,5.66,2.24,1.56,1.5,2.35,3.48,2.36,5.93l12.96-.06c-.02-4.78-.99-8.84-2.91-12.16-1.92-3.32-4.5-5.83-7.74-7.52-3.24-1.69-6.89-2.53-10.94-2.52-7.37.03-13.04,2.64-17.01,7.81-3.97,5.17-5.93,12.74-5.89,22.7.04,10.08,1.84,17.66,5.38,22.74,3.55,5.08,8.82,7.6,15.82,7.57,6.22-.03,11.25-2.33,15.08-6.9l1.38,5.8,7-.03-.14-32.79-22.54.1Z"/><rect class="h" x="99.69" y="40.92" width="13.57" height="58.76" transform="translate(-.31 .47) rotate(-.25)"/><polygon class="h" points="137.84 84.51 137.64 40.78 124.07 40.84 124.33 99.6 159.58 99.44 159.52 84.41 137.84 84.51"/><polygon class="h" points="203.44 85.15 180.04 85.26 180 76.29 203.53 76.2 203.47 62.71 179.94 62.8 179.9 54.68 202.87 54.58 202.81 40.49 166.26 40.65 166.52 99.41 203.5 99.25 203.44 85.15"/><path class="h" d="M322.02,49.79v-19.6h-17.27l-3.52,5.91,3.8.25-6.97,8.62,5.45-1.14-10.9,16.1,5.07-11.66h-5.07l5.07-8.62h-5.07l2.82-9.46h-18.03v19.6c0,15.35,9.35,27.89,21.12,28.69v24.21c-10.41.1-18.67,1.45-18.67,3.12h39.71c0-1.66-8.26-3.02-18.67-3.12v-24.21c11.77-.79,21.12-13.33,21.12-28.69Z"/><polygon class="h" points="519.85 22.84 519.85 22.12 519.85 16.73 323.82 12.1 5.12 16.72 5.12 22.12 5.14 22.83 323.79 18.21 519.85 22.84"/><polygon class="h" points="519.85 134.29 519.85 128.17 302.95 115.53 302.83 115.52 7.67 121.19 9.17 127.28 302.71 121.64 519.85 134.29"/><polygon class="i" points="288.29 133.26 299.72 133.26 323.86 17.19 288.29 133.26"/><path class="i" d="M482.13,75.42l-21.76,16.73-8.87,6.05-26.6,6.85,29.82-4.36s13.3-6.93,14.51-7.33,39.06-25.66,39.06-25.66l11.55-18.27-37.72,25.99Z"/><polygon class="k" points="511.98 75.23 454.73 100.69 508.3 67.71 511.98 75.23"/><polygon class="k" points="299.72 133.26 306.08 133.65 323.86 17.19 299.72 133.26"/><polygon class="i" points="49.61 78.86 41.59 61.93 5.12 19.12 5.54 38.48 46.56 84.9 99.56 107.87 67.23 88.53 49.61 78.86"/><polygon class="k" points="5.54 38.48 46.56 84.9 80.46 99.6 49.5 88.12 43.86 85.91 4.57 43.79 5.54 38.48"/><polygon class="k" points="266.52 25.26 241.81 128.96 262.22 63.49 266.52 25.26"/><polygon class="i" points="266.52 20.42 266.52 25.26 247.59 104.7 255.64 56.29 268.54 12.1 273.98 8.33 269.95 13.77 266.52 20.42"/><polygon class="i" points="65.61 54.54 110.96 94.98 130.69 118.83 147.23 128.96 124.07 104.7 113.34 87.72 65.61 54.54"/><polygon class="k" points="110.96 94.98 80.46 67.78 95.24 84.7 106.42 93.77 114.79 107.87 127.95 115.52 110.96 94.98"/></g></g></g></svg>