<?xml version="1.0" encoding="UTF-8"?><svg xmlns="http://www.w3.org/2000/svg" xmlns:xlink="http://www.w3.org/1999/xlink" viewBox="0 0 452.88 130.23"><defs><style>.j{fill:url(#f);opacity:.36;}.j,.k,.l,.m{mix-blend-mode:overlay;}.n{opacity:.74;}.o{opacity:.76;}.o,.p,.l{fill:#d1d3d4;}.o,.p,.q{mix-blend-mode:multiply;}.p{opacity:.32;}.k{fill:url(#c);}.k,.m{opacity:.21;}.r{fill:#1bbcb6;}.l{opacity:.4;}.s{isolation:isolate;}.q{fill:url(#e);opacity:.15;}.m{fill:url(#d);}</style><linearGradient id="c" x1="529.75" y1="-263.74" x2="525.62" y2="-277.94" gradientTransform="translate(637.4 -502.92) rotate(90) scale(1 -1)" gradientUnits="userSpaceOnUse"><stop offset="0" stop-color="#231f20" stop-opacity="0"/><stop offset=".04" stop-color="#383435" stop-opacity=".07"/><stop offset=".15" stop-color="#6c696a" stop-opacity=".23"/><stop offset=".27" stop-color="#999798" stop-opacity=".38"/><stop offset=".39" stop-color="#bebdbd" stop-opacity=".5"/><stop offset=".51" stop-color="#dbdada" stop-opacity=".59"/><stop offset=".65" stop-color="#efefef" stop-opacity=".65"/><stop offset=".8" stop-color="#fbfbfb" stop-opacity=".69"/><stop offset="1" stop-color="#fff" stop-opacity=".7"/></linearGradient><linearGradient id="d" x1="-34.18" y1="-2520.82" x2="-37.38" y2="-2531.83" gradientTransform="translate(61.1 -2499.46) scale(1 -1)" xlink:href="#c"/><linearGradient id="e" x1="502.92" y1="-255.82" x2="524.48" y2="-255.82" gradientTransform="translate(637.4 -502.92) rotate(90) scale(1 -1)" gradientUnits="userSpaceOnUse"><stop offset="0" stop-color="#231f20"/><stop offset="1" stop-color="#fff" stop-opacity="0"/></linearGradient><linearGradient id="f" x1="895.89" y1="-1776.24" x2="964.73" y2="-1776.24" gradientTransform="translate(603.65 -1913.13) rotate(33.3) scale(1 -1)" gradientUnits="userSpaceOnUse"><stop offset="0" stop-color="#fff" stop-opacity=".7"/><stop offset=".2" stop-color="#fbfbfb" stop-opacity=".69"/><stop offset=".35" stop-color="#efefef" stop-opacity=".65"/><stop offset=".49" stop-color="#dbdada" stop-opacity=".59"/><stop offset=".61" stop-color="#bebdbd" stop-opacity=".5"/><stop offset=".73" stop-color="#999798" stop-opacity=".38"/><stop offset=".85" stop-color="#6c696a" stop-opacity=".23"/><stop offset=".96" stop-color="#383435" stop-opacity=".07"/><stop offset="1" stop-color="#231f20" stop-opacity="0"/></linearGradient></defs><g class="s"><g id="b"><g class="n"><path class="r" d="M290.04,117.75h-1.9s-.35-1.64-.35-1.64l-6.38-1.8-14.63,8.78-1.23-8.72L15.78,123.62l-6.02-20.74v-36.85s9.76-4.9,9.76-4.9L0,24.82,9.22,0h347.69s22.35,5.48,22.35,5.48L386.02,0l33.48,12.29,24.81,87.66,1.89,1.65,6.68,28.63c-18.64-1.11-162.85-12.48-162.85-12.48Z"/><polygon class="l" points="266.78 123.1 301.38 73.89 315.18 65.93 331.01 47.03 307.81 67.14 289.87 81.82 265.55 114.38 266.78 123.1"/><polygon class="o" points="281.41 114.31 283.69 106.12 289.28 98.63 303.75 76.83 322.71 60.53 340.66 36.31 331.01 47.03 315.18 65.93 301.38 73.89 266.78 123.1 281.41 114.31"/><polygon class="l" points="287.78 116.11 295.4 112.09 313.43 99.32 326.38 89.19 311.65 103.07 288.13 117.75 287.78 116.11"/><polygon class="o" points="288.13 117.75 311.65 103.07 290.04 117.75 288.13 117.75"/><path class="k" d="M359.37,44.62L356.91,0l22.35,5.48-16.51,39.58c-.65,1.55-3.29,1.21-3.38-.44Z"/><path class="m" d="M48.41,32.2l-43.47,1.8L0,24.82l3.62-9.75,45.29,14.2c1.79.56,1.39,2.85-.51,2.93Z"/><path class="p" d="M379.25,5.48l-13.74,32.94,4.28-6.72c.8-1.26,1.72-2.47,2.82-3.56.71-.7,1.67-1.8,2.62-3.4l1.9-3.19,1.14-10.9.97-5.17Z"/><polygon class="q" points="386.02 0 377.14 21.56 378.27 10.78 379.25 5.48 386.02 0"/><path class="j" d="M376.39,64.64s1.98,7.81,8.65,9.94c6.67,2.13,14.05,4.09,20.64,9.38,6.59,5.29,32.14,12.53,32.14,12.53l-25.47-13.71-35.97-18.15Z"/><polygon class="o" points="66.59 47.03 46.78 55.8 19.52 61.13 62.27 45.01 109.76 40.38 66.59 47.03"/><polygon class="l" points="9.76 66.03 48.81 58.44 67.6 48.53 113.31 41.26 145.94 37.52 109.76 40.38 66.59 47.03 46.78 55.8 19.52 61.13 9.76 66.03"/><polygon class="o" points="412.36 82.79 376.39 64.64 412.89 82.09 444.39 100.03 412.36 82.79"/></g></g></g></svg>