<?xml version="1.0" encoding="UTF-8"?><svg xmlns="http://www.w3.org/2000/svg" xmlns:xlink="http://www.w3.org/1999/xlink" viewBox="0 0 506.55 164.71"><defs><style>.k{fill:url(#g);}.k,.l,.m,.n{mix-blend-mode:multiply;}.k,.n{opacity:.26;}.o{opacity:.6;}.o,.l,.p{fill:#d1d3d4;}.o,.p{mix-blend-mode:overlay;}.q{fill:url(#f);}.q,.r{mix-blend-mode:screen;opacity:.21;}.l{opacity:.57;}.m{fill:url(#d);opacity:.41;}.n{fill:url(#e);}.r{fill:url(#c);}.p{opacity:.16;}.s{isolation:isolate;}.t{fill:#9a7aa0;}</style><linearGradient id="c" x1="250.54" y1="91.19" x2="379.51" y2="91.19" gradientUnits="userSpaceOnUse"><stop offset="0" stop-color="#231f20" stop-opacity="0"/><stop offset=".04" stop-color="#383435" stop-opacity=".07"/><stop offset=".15" stop-color="#6c696a" stop-opacity=".23"/><stop offset=".27" stop-color="#999798" stop-opacity=".38"/><stop offset=".39" stop-color="#bebdbd" stop-opacity=".5"/><stop offset=".51" stop-color="#dbdada" stop-opacity=".59"/><stop offset=".65" stop-color="#efefef" stop-opacity=".65"/><stop offset=".8" stop-color="#fbfbfb" stop-opacity=".69"/><stop offset="1" stop-color="#fff" stop-opacity=".7"/></linearGradient><linearGradient id="d" x1="330.79" y1="91.74" x2="404.9" y2="91.74" gradientUnits="userSpaceOnUse"><stop offset="0" stop-color="#231f20"/><stop offset=".07" stop-color="#484546" stop-opacity=".83"/><stop offset=".33" stop-color="#aeadad" stop-opacity=".36"/><stop offset=".62" stop-color="#ebebeb" stop-opacity=".09"/><stop offset="1" stop-color="#fff" stop-opacity="0"/></linearGradient><linearGradient id="e" x1="37.77" y1="69.37" x2="48.62" y2="39.91" gradientUnits="userSpaceOnUse"><stop offset="0" stop-color="#fff" stop-opacity="0"/><stop offset=".38" stop-color="#ebebeb" stop-opacity=".09"/><stop offset=".67" stop-color="#aeadad" stop-opacity=".36"/><stop offset=".93" stop-color="#484546" stop-opacity=".83"/><stop offset="1" stop-color="#231f20"/></linearGradient><linearGradient id="f" x1="315.15" y1="86.2" x2="395.17" y2="86.2" xlink:href="#c"/><linearGradient id="g" x1="469.14" y1="77.97" x2="462.68" y2="56.73" xlink:href="#e"/></defs><g class="s"><g id="b"><path class="t" d="M501.16,72.25l.97-16.16-2.8-7.78,1.83-1.66V8.59s-71.42.5-74.96,0-120.01,0-120.01,0l-63.09-.22L194.97,0l-42.75,4.35L6.41,8.59l3.22,16.51-3.77,15.91s1.28,14.67,1.88,21.98-5.21,19.74-5.21,19.74v15.95s1.66,13.66-1.24,20.02c-2.9,6.35,0,18.18,0,18.18l1.24,13.3,135.21,13.44s84.61,2.49,89.58,0c4.98-2.49,97.83-13.44,97.83-13.44h10.37l55.18,14.55h87.17l24.11-14.55v-9.52l4.57-18.52-4.57-36.2-.82-13.67Z"/><path class="r" d="M227.32,163.61c1.88-.94,16.37-3.1,33.64-5.41,17.76-2.68,39.36-5.65,56.51-7.11,4.79-.58,7.68-.92,7.68-.92h10.37l20.76-131.39-128.97,144.83Z"/><path class="m" d="M384.49,71.07l-28.21-52.29-13.73,86.9-7.03,44.49,55.18,14.55v-82.56c-1.08-4.17-3.22-7.99-6.21-11.09Z"/><polygon class="p" points="210.54 117.73 217 104.07 225.3 94.23 247.25 61.79 252.52 59.61 210.54 117.73"/><path class="l" d="M207.31,121.93l3.23-4.2,41.98-58.13,9.23-7.65-6.23,9.84s-3,10.21-3,11.66-45.21,48.48-45.21,48.48Z"/><polygon class="l" points="237.15 7.33 192.38 110.89 192.38 127.89 194.87 113.37 207.72 91.29 218.51 72.32 236.34 31.67 243.1 8.36 237.15 7.33"/><polygon class="p" points="228.48 5.82 187.4 108.4 189.48 127.89 187.4 145.1 180.14 153.62 189.68 145.93 192.38 127.89 192.38 110.89 237.15 7.33 228.48 5.82"/><polygon class="n" points="9.62 25.1 65.06 59.04 78.74 78.81 61.74 60.7 7.38 34.57 9.62 25.1"/><polygon class="p" points="66.82 57.18 9.62 25.1 65.06 59.04 78.74 78.81 66.82 57.18"/><path class="q" d="M335.52,150.17l20.76-131.39-12.07,22.3-5.14,13.79-6.22,12.03,2.71,24.06s-4.99,15.9-5.71,18.52-28.3,9.92-28.3,9.92l-4.85,34.23,28.45-3.45h10.37Z"/><path class="p" d="M335.52,150.17l20.76-131.39-1.66,23.02s-24.43,79.43-19.1,108.37Z"/><polygon class="k" points="499.33 48.31 427.32 70.86 502.13 56.09 499.33 48.31"/><polygon class="o" points="427.32 70.86 499.33 48.31 501.16 46.65 427.32 70.86"/></g></g></svg>