<?xml version="1.0" encoding="UTF-8"?><svg xmlns="http://www.w3.org/2000/svg" viewBox="0 0 444.64 133.54"><defs><style>.f{opacity:.76;}.f,.g,.h{fill:#d1d3d4;}.f,.h{mix-blend-mode:multiply;}.i{fill:#ffb0a1;}.g{mix-blend-mode:overlay;opacity:.4;}.j{isolation:isolate;}.h{opacity:.33;}.k{opacity:.7;}</style></defs><g class="j"><g id="b"><g class="k"><path class="i" d="M3.12,132.59l88,.95,7.59-3.19,72.91.79,9.61-11.64,253.79,6.03,9.61-123.35S151.04-1.72,139.28.92c-11.76,2.64-24.78,9.72-24.78,9.72L0,2.91l3.12,129.68Z"/><polygon class="g" points="171.63 131.13 181.23 119.49 203.29 72.93 214.82 53.15 191.65 83.77 171.63 131.13"/><path class="f" d="M212.54,60.99l-8.86,16.89s-3.76,11-8.11,20.77c-4.35,9.78-14.33,20.84-14.33,20.84l22.06-46.56,11.53-19.78,6.62-8.81-8.9,16.65Z"/><path class="g" d="M98.71,130.35l-7.59,3.19s1.19-30.87,6.69-63.98c3.52-21.23,8.81-43.38,16.7-58.91,0,0,13.02-7.08,24.78-9.72-24.37,42.08-40.57,129.43-40.57,129.43Z"/><path class="h" d="M91.12,133.54s3.21-83.14,23.38-122.9l-10.83-.73c-4.05,11.31-9.75,54.12-11.82,70.1-5.23,40.41-.73,53.53-.73,53.53Z"/><path class="f" d="M98.71,130.35s6.59-35.56,17.7-72.24c0,.01-3.14,43.61-17.7,72.24Z"/><polygon class="g" points="153.81 74.35 179.91 52.62 206.78 28.64 177.21 50.08 153.81 74.35"/><path class="h" d="M191.6,48.39c-1.04,1.08-6.04,1.37-12.15,5.57-6.11,4.2-17.55,13.64-17.55,13.64l18.01-14.99,26.87-23.98,8.65-4.46s-22.79,23.13-23.83,24.21Z"/></g></g></g></svg>