<?xml version="1.0" encoding="UTF-8"?><svg xmlns="http://www.w3.org/2000/svg" viewBox="0 0 496.37 106.42"><defs><style>.f{opacity:.85;}.g{fill:#939598;mix-blend-mode:overlay;}.h{fill:#5a175d;}.i{isolation:isolate;}.j{fill:#d1d3d4;mix-blend-mode:multiply;}.k{fill:#9a7aa0;}</style></defs><g class="i"><g id="b"><g class="f"><polygon class="k" points="2.46 0 496.37 0 488.93 57.38 496.37 106.42 20.21 106.42 0 57.38 2.46 0"/><path class="h" d="M494.35,15.6l-19.66.12-.33-15.72h-3.08l.33,15.74-14.03.09-.33-15.83h-3.08l.33,15.85-15.37.1-.34-15.95h-3.08l.34,15.97-14.03.09-.34-16.06h-3.08l.34,16.08-14.03.09-.34-16.16h-3.08l.34,16.18-14.03.09-.34-16.27h-3.08l.34,16.29-14.03.09-.34-16.38h-3.08l.34,16.4-15.37.1-.35-16.49h-3.08l.35,16.51-14.03.09-.35-16.6h-3.08l.35,16.62-14.03.09-.35-16.71h-3.08l.35,16.73-14.03.09-.35-16.82h-3.08l.35,16.84-14.03.09-.36-16.92h-3.08l.36,16.94-15.37.1-.36-17.04h-3.08l.36,17.06-14.03.09-.36-17.15h-3.08l.36,17.17-14.03.09-.36-17.26h-3.08l.36,17.27-14.03.09-.37-17.36h-3.08l.37,17.38-14.03.09-.37-17.47h-3.08l.37,17.49-15.37.1-.37-17.59h-3.08l.37,17.61-14.03.09-.37-17.69h-3.08l.37,17.71-14.03.09-.37-17.8h-3.08l.37,17.82-14.03.09-.38-17.91h-3.08l.38,17.93-14.03.09-.38-18.02h-3.08l.38,18.04-15.37.1-.38-18.13h-3.08l.38,18.15-14.03.09-.38-18.24h-3.08l.38,18.26-14.03.09-.39-18.35h-3.08l.39,18.37-14.03.09-.39-18.45h-3.08l.39,18.47-14.03.09-.39-18.56h-3.08l.39,18.58-18.43.12-.13,3.08,18.63-.12.3,14.03-19.53.12-.13,3.08,19.72-.12.29,14.03-20.62.13-.13,3.08,20.82-.13.29,14.03-15.97.1,1.27,3.07,14.77-.09.29,14.03-9.29.06,1.27,3.07,8.09-.05.34,16.32h3.08l-.34-16.34,14.03-.09.35,16.43h3.08l-.35-16.45,14.03-.09.35,16.54h3.08l-.35-16.56,14.03-.09.35,16.64h3.08l-.35-16.66,14.03-.09.35,16.75h3.08l-.35-16.77,15.37-.1.35,16.87h3.08l-.35-16.89,14.03-.09.36,16.98h3.08l-.36-16.99,14.03-.09.36,17.08h3.08l-.36-17.1,14.03-.09.36,17.19h3.08l-.36-17.21,14.03-.09.36,17.3h3.08l-.36-17.32,15.37-.1.37,17.41h3.08l-.37-17.43,14.03-.09.37,17.52h3.08l-.37-17.54,14.03-.09.37,17.63h3.08l-.37-17.65,14.03-.09.37,17.74h3.08l-.37-17.76,14.03-.09.38,17.84h3.08l-.38-17.86,15.37-.1.38,17.96h3.08l-.38-17.98,14.03-.09.38,18.07h3.08l-.38-18.09,14.03-.09.38,18.17h3.08l-.38-18.19,14.03-.09.38,18.28h3.08l-.38-18.3,14.03-.09.39,18.39h3.08l-.39-18.41,15.37-.1.39,18.51h3.08l-.39-18.52,14.03-.09.39,18.61h3.08l-.39-18.63,14.03-.09.39,18.72h3.08l-.39-18.74,14.03-.09.4,18.83h3.08l-.4-18.85,14.03-.09.4,18.94h3.08l-.4-18.95,15.37-.1.4,19.05h3.08l-.4-19.07,14.03-.09.4,19.16h3.08l-.4-19.18,17.25-.11-.47-3.08-16.85.11-.3-14.03,15.02-.09-.47-3.08-14.61.09-.29-14.03,14.03-.09.4-3.08-14.5.09-.29-14.03,16.61-.1.4-3.08-17.08.11-.29-14.03,19.19-.12.4-3.08ZM23.24,21.64l14.03-.09.29,14.03-14.03.09-.29-14.03ZM23.6,38.75l14.03-.09.29,14.03-14.03.09-.3-14.03ZM23.96,55.86l14.03-.09.29,14.03-14.03.09-.29-14.03ZM24.61,86.99l-.29-14.03,14.03-.09.29,14.03-14.03.09ZM40.35,21.53l14.03-.09.3,14.03-14.03.09-.29-14.03ZM40.71,38.64l14.03-.09.29,14.03-14.03.09-.29-14.03ZM41.06,55.75l14.03-.09.29,14.03-14.03.09-.29-14.03ZM41.72,86.89l-.29-14.03,14.03-.09.29,14.03-14.03.09ZM57.45,21.43l14.03-.09.29,14.03-14.03.09-.29-14.03ZM57.81,38.54l14.03-.09.29,14.03-14.03.09-.29-14.03ZM58.17,55.64l14.03-.09.29,14.03-14.03.09-.29-14.03ZM58.83,86.78l-.29-14.03,14.03-.09.29,14.03-14.03.09ZM74.56,21.32l14.03-.09.3,14.03-14.03.09-.29-14.03ZM74.92,38.43l14.03-.09.29,14.03-14.03.09-.29-14.03ZM75.28,55.54l14.03-.09.29,14.03-14.03.09-.29-14.03ZM75.94,86.67l-.29-14.03,14.03-.09.3,14.03-14.03.09ZM91.67,21.21l15.37-.1.29,14.03-15.37.1-.29-14.03ZM92.03,38.32l15.37-.1.29,14.03-15.37.1-.29-14.03ZM92.39,55.43l15.37-.1.29,14.03-15.37.1-.29-14.03ZM93.04,86.56l-.29-14.03,15.37-.1.29,14.03-15.37.1ZM110.12,21.1l14.03-.09.3,14.03-14.03.09-.29-14.03ZM110.48,38.2l14.03-.09.29,14.03-14.03.09-.29-14.03ZM110.84,55.31l14.03-.09.29,14.03-14.03.09-.29-14.03ZM111.49,86.45l-.29-14.03,14.03-.09.3,14.03-14.03.09ZM127.23,20.99l14.03-.09.29,14.03-14.03.09-.29-14.03ZM127.59,38.1l14.03-.09.29,14.03-14.03.09-.29-14.03ZM127.95,55.2l14.03-.09.29,14.03-14.03.09-.29-14.03ZM128.6,86.34l-.29-14.03,14.03-.09.29,14.03-14.03.09ZM144.34,20.88l14.03-.09.29,14.03-14.03.09-.29-14.03ZM144.7,37.99l14.03-.09.29,14.03-14.03.09-.29-14.03ZM145.06,55.1l14.03-.09.29,14.03-14.03.09-.29-14.03ZM145.71,86.23l-.29-14.03,14.03-.09.3,14.03-14.03.09ZM161.44,20.77l14.03-.09.29,14.03-14.03.09-.29-14.03ZM161.8,37.88l14.03-.09.29,14.03-14.03.09-.29-14.03ZM162.16,54.99l14.03-.09.29,14.03-14.03.09-.29-14.03ZM162.82,86.13l-.29-14.03,14.03-.09.29,14.03-14.03.09ZM178.55,20.67l15.37-.1.29,14.03-15.37.1-.29-14.03ZM178.91,37.77l15.37-.1.29,14.03-15.37.1-.29-14.03ZM179.27,54.88l15.37-.1.29,14.03-15.37.1-.29-14.03ZM179.93,86.02l-.29-14.03,15.37-.1.29,14.03-15.37.1ZM197,20.55l14.03-.09.29,14.03-14.03.09-.29-14.03ZM197.36,37.66l14.03-.09.29,14.03-14.03.09-.29-14.03ZM197.72,54.77l14.03-.09.29,14.03-14.03.09-.29-14.03ZM198.37,85.9l-.29-14.03,14.03-.09.3,14.03-14.03.09ZM214.11,20.44l14.03-.09.29,14.03-14.03.09-.29-14.03ZM214.47,37.55l14.03-.09.29,14.03-14.03.09-.29-14.03ZM214.83,54.66l14.03-.09.29,14.03-14.03.09-.29-14.03ZM215.48,85.8l-.29-14.03,14.03-.09.29,14.03-14.03.09ZM231.22,20.33l14.03-.09.29,14.03-14.03.09-.29-14.03ZM231.58,37.44l14.03-.09.29,14.03-14.03.09-.29-14.03ZM231.94,54.55l14.03-.09.29,14.03-14.03.09-.29-14.03ZM232.59,85.69l-.29-14.03,14.03-.09.29,14.03-14.03.09ZM248.32,20.23l14.03-.09.29,14.03-14.03.09-.3-14.03ZM248.68,37.34l14.03-.09.29,14.03-14.03.09-.29-14.03ZM249.04,54.44l14.03-.09.29,14.03-14.03.09-.29-14.03ZM249.7,85.58l-.29-14.03,14.03-.09.29,14.03-14.03.09ZM265.43,20.12l15.37-.1.29,14.03-15.37.1-.29-14.03ZM265.79,37.23l15.37-.1.29,14.03-15.37.1-.29-14.03ZM266.15,54.34l15.37-.1.29,14.03-15.37.1-.29-14.03ZM266.81,85.47l-.29-14.03,15.37-.1.29,14.03-15.37.1ZM283.88,20l14.03-.09.29,14.03-14.03.09-.3-14.03ZM284.24,37.11l14.03-.09.29,14.03-14.03.09-.29-14.03ZM284.6,54.22l14.03-.09.29,14.03-14.03.09-.29-14.03ZM285.26,85.36l-.29-14.03,14.03-.09.29,14.03-14.03.09ZM300.99,19.9l14.03-.09.29,14.03-14.03.09-.29-14.03ZM301.35,37l14.03-.09.29,14.03-14.03.09-.29-14.03ZM301.71,54.11l14.03-.09.29,14.03-14.03.09-.29-14.03ZM302.36,85.25l-.29-14.03,14.03-.09.29,14.03-14.03.09ZM318.1,19.79l14.03-.09.29,14.03-14.03.09-.3-14.03ZM318.46,36.9l14.03-.09.29,14.03-14.03.09-.29-14.03ZM318.82,54.01l14.03-.09.29,14.03-14.03.09-.29-14.03ZM319.47,85.14l-.3-14.03,14.03-.09.29,14.03-14.03.09ZM335.21,19.68l14.03-.09.29,14.03-14.03.09-.29-14.03ZM335.57,36.79l14.03-.09.29,14.03-14.03.09-.29-14.03ZM335.93,53.9l14.03-.09.29,14.03-14.03.09-.29-14.03ZM336.58,85.03l-.29-14.03,14.03-.09.29,14.03-14.03.09ZM352.32,19.57l15.37-.1.29,14.03-15.37.1-.29-14.03ZM352.67,36.68l15.37-.1.29,14.03-15.37.1-.29-14.03ZM353.03,53.79l15.37-.1.29,14.03-15.37.1-.29-14.03ZM353.69,84.93l-.3-14.03,15.37-.1.29,14.03-15.37.1ZM370.76,19.46l14.03-.09.29,14.03-14.03.09-.3-14.03ZM371.12,36.57l14.03-.09.29,14.03-14.03.09-.29-14.03ZM371.48,53.67l14.03-.09.29,14.03-14.03.09-.29-14.03ZM372.14,84.81l-.3-14.03,14.03-.09.29,14.03-14.03.09ZM387.87,19.35l14.03-.09.29,14.03-14.03.09-.29-14.03ZM388.23,36.46l14.03-.09.29,14.03-14.03.09-.29-14.03ZM388.59,53.57l14.03-.09.3,14.03-14.03.09-.29-14.03ZM389.25,84.7l-.29-14.03,14.03-.09.29,14.03-14.03.09ZM404.98,19.24l14.03-.09.29,14.03-14.03.09-.29-14.03ZM405.34,36.35l14.03-.09.29,14.03-14.03.09-.29-14.03ZM405.7,53.46l14.03-.09.29,14.03-14.03.09-.29-14.03ZM406.35,84.6l-.3-14.03,14.03-.09.29,14.03-14.03.09ZM422.09,19.14l14.03-.09.29,14.03-14.03.09-.29-14.03ZM422.45,36.24l14.03-.09.29,14.03-14.03.09-.29-14.03ZM422.81,53.35l14.03-.09.3,14.03-14.03.09-.29-14.03ZM423.46,84.49l-.29-14.03,14.03-.09.29,14.03-14.03.09ZM439.2,19.03l15.37-.1.29,14.03-15.37.1-.29-14.03ZM439.56,36.14l15.37-.1.29,14.03-15.37.1-.29-14.03ZM439.92,53.24l15.37-.1.3,14.03-15.37.1-.29-14.03ZM440.57,84.38l-.3-14.03,15.37-.1.29,14.03-15.37.1ZM457.65,18.91l14.03-.09.29,14.03-14.03.09-.29-14.03ZM458,36.02l14.03-.09.29,14.03-14.03.09-.29-14.03ZM458.36,53.13l14.03-.09.3,14.03-14.03.09-.29-14.03ZM459.02,84.26l-.3-14.03,14.03-.09.29,14.03-14.03.09Z"/><polygon class="j" points="488.93 57.38 409.51 81.45 489.99 64.33 488.93 57.38"/><polygon class="g" points="425.25 76.68 489.72 51.28 488.93 57.38 425.25 76.68"/><polygon class="g" points="0 57.38 107.28 88.09 .18 53.21 0 57.38"/><polygon class="j" points="0 57.38 4.62 68.58 85.3 81.8 0 57.38"/></g></g></g></svg>