<?xml version="1.0" encoding="UTF-8"?>
<svg xmlns="http://www.w3.org/2000/svg" version="1.1" xmlns:xlink="http://www.w3.org/1999/xlink" viewBox="0 0 498.7 429.8">
  <!-- Generator: Adobe Illustrator 29.5.1, SVG Export Plug-In . SVG Version: 2.1.0 Build 141)  -->
  <defs>
    <style>
      .st0 {
        mix-blend-mode: overlay;
        opacity: .5;
      }

      .st0, .st1, .st2 {
        fill: #bcbec0;
      }

      .st3 {
        mask: url(#mask);
      }

      .st4 {
        fill: #ffb0a1;
      }

      .st5 {
        fill: #fff9ed;
      }

      .st6 {
        isolation: isolate;
      }

      .st7 {
        fill: none;
        stroke: #fff9ed;
        stroke-width: 5.5px;
      }

      .st8 {
        fill: #333;
      }

      .st1 {
        opacity: .5;
      }

      .st1, .st2 {
        mix-blend-mode: multiply;
      }

      .st2 {
        opacity: .2;
      }

      .st9 {
        fill: #9a7aa0;
      }

      .st10 {
        fill: #eadda7;
      }

      .st11 {
        fill: url(#linear-gradient);
        mix-blend-mode: screen;
        opacity: .2;
      }

      .st12 {
        fill: #ffd166;
      }

      .st13 {
        filter: url(#luminosity-noclip);
      }
    </style>
    <filter id="luminosity-noclip" x="0" y="-5.4" width="498.7" height="389.4" color-interpolation-filters="sRGB" filterUnits="userSpaceOnUse">
      <feFlood flood-color="#fff" result="bg"/>
      <feBlend in="SourceGraphic" in2="bg"/>
    </filter>
    <mask id="mask" x="0" y="-5.4" width="498.7" height="389.4" maskUnits="userSpaceOnUse">
      <g class="st13">
        <path d="M342.6,0c1.4,0,2.4.4,3,1.2.7.8.9,1.9.6,3.3l-4.7,19.6,17.3-10.4c.7-.4,1.5-.7,2.2-.7,1.5,0,2.5.9,3.2,2.7l2.2,6.5c.4,1.2.4,2.2-.2,3.1-.6.9-1.6,1.4-2.9,1.6l-20.2,1.8,15.3,13c1.2.9,1.8,1.9,1.7,3,0,1.1-.7,2.1-1.9,2.8l-5.4,4c-.8.6-1.6.9-2.5.9-1.4,0-2.4-.8-3.2-2.5l-7.9-18.7-7.9,18.7c-.8,1.7-1.8,2.5-3.1,2.5s-1.7-.3-2.5-.9l-5.4-4c-1.2-.7-1.8-1.7-1.9-2.8,0-1.1.5-2.1,1.7-3l15.3-13-20.2-1.8c-1.3-.1-2.3-.7-2.9-1.6-.6-.9-.7-1.9-.2-3.1l2.2-6.5c.7-1.8,1.8-2.7,3.1-2.7s1.6.2,2.2.7l17.3,10.4-4.7-19.6c-.3-1.3-.1-2.4.6-3.3C333.5.4,334.5,0,335.9,0h6.8M342.6-5.4h-6.8c-3,0-5.5,1.1-7.2,3.2-1.7,2.1-2.3,4.9-1.7,7.9h0s0,0,0,0l1.7,7-6-3.6c-1.5-1-3.3-1.6-5.2-1.6s-5.9.6-8.2,6.1v.2c0,0-.1.2-.1.2l-2.2,6.5c-1,2.8-.7,5.7.8,8,1.5,2.2,3.9,3.6,6.9,4h0s0,0,0,0l7.3.7-5.3,4.5c-3.5,2.7-3.8,5.9-3.7,7.7.2,2.8,1.7,5.2,4.2,6.9l5.2,3.9c1.7,1.3,3.7,2,5.8,2,3.5,0,6.5-2.1,8.1-5.7h0c0,0,0-.1,0-.1l2.9-6.8,2.9,6.8h0c0,0,0,.1,0,.1,1.6,3.6,4.6,5.7,8.1,5.7s4.1-.7,5.8-2l5.2-3.9c2.5-1.7,4-4.1,4.2-6.9.1-1.7-.2-5-3.7-7.7l-5.3-4.5,7.3-.7h0s0,0,0,0c2.9-.3,5.4-1.7,6.9-4,1.6-2.4,1.9-5.2.8-8l-2.2-6.5c-1.3-4-4.5-6.4-8.3-6.4s-3.4.5-5.1,1.5l-6.2,3.7,1.7-7h0c0,0,0-.1,0-.1.7-3,0-5.8-1.7-7.9-1.7-2.1-4.3-3.2-7.3-3.2h0ZM458.9,286c.9,0,1.7.3,2.5.9l5.4,4c1.2.7,1.8,1.7,1.9,2.8,0,1.1-.5,2.1-1.7,3l-15.3,13,20.2,1.8c1.3.1,2.3.7,2.9,1.6.6.9.7,1.9.2,3.1l-2.2,6.5c-.6,1.8-1.7,2.7-3.2,2.7s-1.5-.2-2.2-.7l-17.3-10.4,4.7,19.6c.3,1.3.1,2.4-.6,3.3-.7.8-1.7,1.2-3,1.2h-6.8c-1.3,0-2.4-.4-3-1.2-.7-.8-.9-1.9-.6-3.3l4.7-19.6-17.3,10.4c-.6.4-1.3.7-2.2.7-1.3,0-2.4-.9-3.1-2.7l-2.2-6.5c-.5-1.2-.4-2.2.2-3.1.6-.9,1.6-1.4,2.9-1.6l20.2-1.8-15.3-13c-1.2-.9-1.8-1.9-1.7-3,0-1.1.7-2.1,1.9-2.8l5.4-4c.7-.6,1.6-.9,2.5-.9,1.3,0,2.4.8,3.1,2.5l7.9,18.7,7.9-18.7c.7-1.7,1.8-2.5,3.2-2.5M458.9,280.6c-3.5,0-6.5,2.1-8.1,5.7h0c0,0,0,.1,0,.1l-2.9,6.8-2.9-6.8h0c0,0,0-.1,0-.1-1.6-3.6-4.6-5.7-8.1-5.7s-4.1.7-5.8,2l-5.2,3.9c-2.6,1.7-4.1,4.1-4.2,6.9-.1,1.7.2,4.9,3.7,7.6l5.3,4.5-7.3.7h0s0,0,0,0c-2.9.3-5.4,1.7-6.9,4-1.6,2.3-1.8,5.2-.8,8l2.2,6.5v.2c0,0,.1.2.1.2,2.3,5.5,6.5,6.1,8.2,6.1s3.7-.5,5.2-1.6l6-3.6-1.7,7h0s0,0,0,0c-.7,3,0,5.8,1.7,7.9,1.7,2.1,4.3,3.2,7.3,3.2h6.8c3,0,5.5-1.1,7.2-3.2,1.7-2.1,2.3-4.9,1.7-7.9h0c0,0,0-.1,0-.1l-1.7-7,6.2,3.7c1.6,1,3.3,1.4,5,1.4,3.9,0,7-2.4,8.3-6.4l2.2-6.5c1-2.8.7-5.7-.8-8-1.5-2.2-3.9-3.7-6.9-4h0s0,0,0,0l-7.3-.7,5.3-4.5c3.5-2.7,3.8-5.9,3.7-7.6-.2-2.8-1.7-5.3-4.2-6.9l-5.2-3.9c-1.7-1.3-3.7-2-5.8-2h0ZM75.9,59.5c.6,0,1.3.2,2.1.6l6.2,3c1.2.5,1.9,1.3,2.1,2.4.2,1.1-.1,2.1-1,3.2l-13,15.6,20-1.6c.3,0,.6,0,.8,0,1.1,0,1.9.3,2.5,1,.7.8,1,2,.6,3.3l-1,6.7c-.1,1-.5,1.8-1.1,2.4-.6.6-1.3.9-2.1.9s-1.2-.1-1.9-.4l-18.8-7.6,7.6,18.8c.6,1.7.5,3-.5,4-.6.6-1.4,1-2.4,1.1l-6.7,1c-.4,0-.8.1-1.2.1-.9,0-1.6-.3-2.2-.8-.9-.7-1.2-1.9-1-3.3l1.6-20-15.6,13c-.8.7-1.7,1-2.5,1s-.4,0-.6,0c-1.1-.2-1.9-.9-2.4-2.1l-3-6.2c-.7-1.8-.6-3.2.3-4.1.6-.6,1.3-1,2.1-1.1l19.6-4.9-17.2-10.5c-1.2-.7-1.8-1.6-1.9-2.7-.1-1.1.3-2.1,1.3-3l4.8-4.8c.9-.9,1.8-1.3,2.7-1.3s.2,0,.3,0c1.1.1,2,.7,2.7,1.9l10.5,17.2,4.9-19.6c.2-.8.6-1.5,1.1-2.1.6-.6,1.3-.9,2.1-.9M75.9,54c-2.2,0-4.3.9-5.9,2.5-1.2,1.2-2.1,2.8-2.5,4.6l-1.8,7-3.7-6.1h0s0,0,0,0c-1.6-2.6-4-4.1-6.8-4.4-.3,0-.6,0-.9,0-1.7,0-4.2.5-6.6,2.9l-4.8,4.8c-2.1,2.1-3.1,4.7-2.8,7.4.3,2.7,1.8,5.1,4.4,6.8h0s0,0,0,0l6.1,3.7-6.8,1.7c-1.8.3-3.4,1.2-4.8,2.6-1.2,1.2-3.8,4.6-1.5,10.1v.2c0,0,.1.2.1.2l3,6.2c1.3,2.7,3.5,4.5,6.2,5.1.6.1,1.1.2,1.7.2,1.5,0,3.7-.4,6-2.2h0s0,0,0,0l5.6-4.7-.6,7c-.6,4.4,1.5,6.9,2.8,8,1.6,1.4,3.6,2.1,5.8,2.1s1.4,0,2.1-.2l6.4-.9c2.1-.3,4.1-1.2,5.5-2.7,2.5-2.5,3.1-6,1.7-9.7h0c0,0,0-.1,0-.1l-2.8-6.8,6.8,2.8h0s0,0,0,0c1.3.5,2.6.7,3.8.7,2.3,0,4.4-.8,6-2.5,1.5-1.5,2.4-3.4,2.7-5.5l.9-6.4c.6-3,0-5.8-1.9-7.9-1.6-1.9-4-2.9-6.6-2.9s-.9,0-1.4,0l-7,.6,4.7-5.6h0s0,0,0,0c1.8-2.3,2.6-5,2-7.7-.6-2.8-2.4-5-5.1-6.2l-6.1-3c-1.5-.7-3-1.1-4.5-1.1h0Z"/>
      </g>
    </mask>
    <linearGradient id="linear-gradient" x1="195.5" y1="250.9" x2="252.3" y2="264.5" gradientTransform="translate(32.3 23) rotate(-5.9)" gradientUnits="userSpaceOnUse">
      <stop offset="0" stop-color="#fff" stop-opacity=".7"/>
      <stop offset=".2" stop-color="#fbfbfb" stop-opacity=".7"/>
      <stop offset=".3" stop-color="#efefef" stop-opacity=".7"/>
      <stop offset=".5" stop-color="#dbdada" stop-opacity=".6"/>
      <stop offset=".6" stop-color="#bebdbd" stop-opacity=".5"/>
      <stop offset=".7" stop-color="#999798" stop-opacity=".4"/>
      <stop offset=".9" stop-color="#6c696a" stop-opacity=".2"/>
      <stop offset="1" stop-color="#383435" stop-opacity="0"/>
      <stop offset="1" stop-color="#231f20" stop-opacity="0"/>
    </linearGradient>
  </defs>
  <g class="st6">
    <g id="Layer_4">
      <g>
        <path class="st5" d="M276.8,93.8v2.3c-17.1-2.8-34.8-3.5-53-1.6-100.4,10.5-174.1,93.7-164.5,186,9.6,92.3,98.8,158.6,199.3,148.2s12.5-1.6,18.6-2.8v-5.3c84.6-20.3,144.9-93.8,139.1-176.4-5.3-75.2-63.7-134.8-139.5-150.4Z"/>
        <path class="st8" d="M329.6,186c-.5.2-1,.2-1.6.2-1.2,0-2.2-.3-3-.9-.8-.6-1.8-1.5-3-2.7-1,.4-1.5,1-1.6,1.9-.1.9-.3,1.9-.5,2.8-.2,1-.5,1.9-1,2.6-.5.8-1.5,1.2-3.1,1.2s-2.9-1-3.2-2.9c-.3-2-.5-3.8-.5-5.7-1.2,1.2-2.2,2.1-3,2.7-.8.6-1.8.9-3,.9h-1.3c-.2-.4-.6-.8-1-1.2l-1.2-1.2c-.5-.4-1-.8-1.5-1.3l4.9-6c-3,0-5.2-.2-6.6-.6-1.3-.4-2-1.9-2-4.3s.8-3.1,2.3-3.8c1.5-.7,3.2-1.1,5-1.1v-1.1c0-.6-.5-1.4-1.4-2.5-.3-.3-.5-.6-.8-.9-.6,0-1.2,0-1.8,0-16.2,0-29.2,13.1-29.2,29.2s13.1,29.2,29.2,29.2,29.2-13.1,29.2-29.2-.2-3.7-.5-5.5h0Z"/>
        <path class="st8" d="M173.8,234.7c-.5.2-1.1.3-1.8.3-1.2,0-2.2-.3-3-.9-.8-.6-1.8-1.5-3-2.7-1,.4-1.5,1-1.6,1.9-.1.9-.3,1.9-.5,2.8-.2,1-.5,1.9-1,2.6-.5.8-1.5,1.2-3.1,1.2s-2.9-1-3.2-2.9c-.3-2-.5-3.8-.5-5.7-1.2,1.2-2.2,2.1-3,2.7-.8.6-1.8.9-3,.9h-1.3c-.2-.4-.6-.8-1-1.2l-1.2-1.2c-.5-.4-1-.8-1.5-1.3l4.9-6c-3,0-5.2-.2-6.6-.6-1.3-.4-2-1.9-2-4.3s.8-3.1,2.3-3.8c1.5-.7,3.2-1.1,5-1.1v-1.1c0-.6-.5-1.4-1.4-2.5-.6-.7-1.1-1.3-1.6-1.8-.3,0-.6,0-.9,0-16.2,0-29.2,13.1-29.2,29.2s13.1,29.2,29.2,29.2,29.2-13.1,29.2-29.2-.1-3.1-.4-4.6h0Z"/>
        <g class="st3">
          <path class="st7" d="M28.6,293.8C57.8,260.3-.4,235,2.9,206.1c3.7-32.6,22.8-34.9,39.9-31.4,25.1,7.2,13.8,52.3-12.3,28.2-26.1-24.1-6.4-96.8,32.1-88.4,38.5,8.4,35.9,60.1,3.7,49-32.2-11.1-21.8-87.4,26.5-87.4s54.8,56.6,20.7,36.2c-56.9-39,27.3-93.1,60.8-65.6,24.8,20.3,11.8,58.5-10.3,38.1-42.6-35.8,37.3-101.3,70.5-48.4,26.9,43-14.5,56.5-20.6,21.3-9.1-60.6,82.6-62.6,89.2,4.4,3.9,39.9-55,14.4-26-27.7,22.7-32.8,95.6-19.6,89.2,45-4,40.8-51.5,1.8-19.9-29.7,31.6-31.6,89.7,29.7,72.7,73.9-16.9,44.2-55.1-14.9-21.4-31.2,50.1-31.7,103,75.1,61.9,99-44.8,26.1-40.7-43.3-4.5-43.9,53.7-.8,52,118.6,9.5,116.6-52-2.5-16.7-67.7,19.8-32,38.6,37.7-30.1,51.1-52.5,113.3-9.8,27.2,17.3,56.6,59.4,15.2"/>
        </g>
        <path class="st4" d="M314.3,15.8c.7-1.8,1.8-2.7,3.1-2.7s1.6.2,2.2.7l17.3,10.4-4.7-19.6c-.3-1.3-.1-2.4.6-3.3C333.5.4,334.5,0,335.9,0h6.8C344,0,345,.4,345.6,1.2c.7.8.9,1.9.6,3.3l-4.7,19.6,17.3-10.4c.7-.4,1.5-.7,2.2-.7,1.5,0,2.5.9,3.2,2.7l2.2,6.5c.4,1.2.4,2.2-.2,3.1-.6.9-1.6,1.4-2.9,1.6l-20.2,1.8,15.3,13c1.2.9,1.8,1.9,1.7,3,0,1.1-.7,2.1-1.9,2.8l-5.4,4c-.8.6-1.6.9-2.5.9-1.4,0-2.4-.8-3.2-2.5l-7.9-18.7-7.9,18.7c-.8,1.7-1.8,2.5-3.1,2.5s-1.7-.3-2.5-.9l-5.4-4c-1.2-.7-1.8-1.7-1.9-2.8,0-1.1.5-2.1,1.7-3l15.3-13-20.2-1.8c-1.3-.1-2.3-.7-2.9-1.6-.6-.9-.7-1.9-.2-3.1l2.2-6.5Z"/>
        <path class="st9" d="M422.9,322.9c.7,1.8,1.8,2.7,3.1,2.7s1.6-.2,2.2-.7l17.3-10.4-4.7,19.6c-.3,1.3-.1,2.4.6,3.3.7.8,1.7,1.2,3,1.2h6.8c1.4,0,2.4-.4,3-1.2.7-.8.9-1.9.6-3.3l-4.7-19.6,17.3,10.4c.7.4,1.5.7,2.2.7,1.5,0,2.5-.9,3.2-2.7l2.2-6.5c.4-1.2.4-2.2-.2-3.1-.6-.9-1.6-1.4-2.9-1.6l-20.2-1.8,15.3-13c1.2-.9,1.8-1.9,1.7-3,0-1.1-.7-2.1-1.9-2.8l-5.4-4c-.8-.6-1.6-.9-2.5-.9-1.4,0-2.4.8-3.2,2.5l-7.9,18.7-7.9-18.7c-.8-1.7-1.8-2.5-3.1-2.5s-1.7.3-2.5.9l-5.4,4c-1.2.7-1.8,1.7-1.9,2.8,0,1.1.5,2.1,1.7,3l15.3,13-20.2,1.8c-1.3.1-2.3.7-2.9,1.6-.6.9-.7,1.9-.2,3.1l2.2,6.5Z"/>
        <path class="st12" d="M42.6,95.4c-.7-1.8-.6-3.2.3-4.1.6-.6,1.3-1,2.1-1.1l19.6-4.9-17.2-10.5c-1.2-.7-1.8-1.6-1.9-2.7-.1-1.1.3-2.1,1.3-3l4.8-4.8c1-1,2-1.4,3-1.3,1.1.1,2,.7,2.7,1.9l10.5,17.2,4.9-19.6c.2-.8.6-1.5,1.1-2.1,1.1-1.1,2.4-1.2,4.1-.3l6.2,3c1.2.5,1.9,1.3,2.1,2.4.2,1.1-.1,2.1-1,3.2l-13,15.6,20-1.6c1.5-.2,2.6.1,3.3,1,.7.9,1,2,.6,3.3l-1,6.7c-.1,1-.5,1.8-1.1,2.4-1,1-2.3,1.1-4,.5l-18.8-7.6,7.6,18.8c.6,1.7.5,3-.5,4-.6.6-1.4,1-2.4,1.1l-6.7,1c-1.4.3-2.5.1-3.3-.6-.9-.7-1.2-1.9-1-3.3l1.6-20-15.6,13c-1.1.9-2.1,1.2-3.2,1-1.1-.2-1.9-.9-2.4-2.1l-3-6.2Z"/>
        <g>
          <path class="st10" d="M264.5,422.4c4.7,2.8,12.8,3.5,12.8,3.5v-5.3c-9.4,2.5-12.8,1.8-12.8,1.8Z"/>
          <path class="st1" d="M264.5,422.4l12.3-326.3s-19.6,250.1-18.9,284c.7,34,6.6,42.3,6.6,42.3Z"/>
          <path class="st11" d="M264.8,413.3l11.9-317.2s32.9,86.5,29.2,174.4c-3.7,88-41.1,142.7-41.1,142.7Z"/>
          <path class="st0" d="M288,168.9l-10.8,251.8s14.9-126.2,14.2-152.5c-.7-26.3-3.5-99.2-3.5-99.2Z"/>
          <path class="st0" d="M181.7,242.1s-28.3,142.9-29.8,145.3c-1.5,2.3,5.5-97.9,29.8-145.3Z"/>
          <path class="st2" d="M149.7,398.2l30.7-149.5s5.7,55.4-30.7,149.5Z"/>
        </g>
      </g>
    </g>
  </g>
</svg>