<?xml version="1.0" encoding="UTF-8"?><svg xmlns="http://www.w3.org/2000/svg" xmlns:xlink="http://www.w3.org/1999/xlink" viewBox="0 0 503.6 139.05"><defs><style>.i{opacity:.85;}.j{opacity:.54;}.j,.k,.l,.m{mix-blend-mode:overlay;}.j,.n{fill:#bcbec0;}.k{fill:url(#e);opacity:.56;}.o{opacity:.76;}.o,.p,.n{mix-blend-mode:multiply;}.o,.m{fill:#d1d3d4;}.l{fill:url(#c);opacity:.21;}.p{fill:url(#d);opacity:.15;}.q{fill:#1bbcb6;}.m{opacity:.4;}.r{isolation:isolate;}.n{opacity:.53;}.s{fill:#05878a;}</style><linearGradient id="c" x1="110.02" y1="29.48" x2="120.46" y2="29.48" gradientTransform="translate(30.05 7.32) rotate(-1.45)" gradientUnits="userSpaceOnUse"><stop offset="0" stop-color="#fff" stop-opacity=".7"/><stop offset=".2" stop-color="#fbfbfb" stop-opacity=".69"/><stop offset=".35" stop-color="#efefef" stop-opacity=".65"/><stop offset=".49" stop-color="#dbdada" stop-opacity=".59"/><stop offset=".61" stop-color="#bebdbd" stop-opacity=".5"/><stop offset=".73" stop-color="#999798" stop-opacity=".38"/><stop offset=".85" stop-color="#6c696a" stop-opacity=".23"/><stop offset=".96" stop-color="#383435" stop-opacity=".07"/><stop offset="1" stop-color="#231f20" stop-opacity="0"/></linearGradient><linearGradient id="d" x1="113.69" y1="26.38" x2="126.25" y2="26.38" gradientTransform="translate(30.05 7.32) rotate(-1.45)" gradientUnits="userSpaceOnUse"><stop offset="0" stop-color="#231f20"/><stop offset="1" stop-color="#fff" stop-opacity="0"/></linearGradient><linearGradient id="e" x1="7.3" y1="86.94" x2="5.52" y2="46.23" gradientTransform="translate(30.05 7.32) rotate(-1.45)" gradientUnits="userSpaceOnUse"><stop offset="0" stop-color="#231f20" stop-opacity="0"/><stop offset=".04" stop-color="#383435" stop-opacity=".07"/><stop offset=".15" stop-color="#6c696a" stop-opacity=".23"/><stop offset=".27" stop-color="#999798" stop-opacity=".38"/><stop offset=".39" stop-color="#bebdbd" stop-opacity=".5"/><stop offset=".51" stop-color="#dbdada" stop-opacity=".59"/><stop offset=".65" stop-color="#efefef" stop-opacity=".65"/><stop offset=".8" stop-color="#fbfbfb" stop-opacity=".69"/><stop offset="1" stop-color="#fff" stop-opacity=".7"/></linearGradient></defs><g class="r"><g id="b"><g class="i"><path class="s" d="M0,11.28l44.94-1.69S143.24-2.38,148.96.43s109.31,1.11,109.31,1.11l103.55,9.69L501.67,3.01l-3.24,18.72,3.7,11.12.22,14.08-3.32,13.64.59,16.58,3.82,13.59-3.76,12.68.2,12.89,3.71,12.09-282.7,10.66-149.72-4.8-58.26,2.2,6.82-14.93-4.67-12.36-3.95-6.71.59-3.42,8.74-15.13s.56-4.94-.13-8.29c-.69-3.35-11.7-10.97-11.7-10.97l4.28-13.44.35-18.86-3.99-9.3L0,11.28Z"/><path class="q" d="M362.75,88.98l-104.12-.61c-.31.01-31.08,1.05-37.88,1.09-9.99.07-67.68-1.42-71.02-1.98.03,0,.25.05.54.19-2.88-1.41-74.82-.38-79.29.12-4.91.55-26.13,1.67-26.31,1.68l-28.06,1.06-4.59,7.94,32.8-1.24c.88-.05,21.58-1.13,26.63-1.7,10.12-1.15,73.82-.91,77.15-.41-.03,0-.26-.04-.56-.19,2.37,1.17,72.01,2.31,72.68,2.3,6.86-.05,36.74-1.05,37.91-1.1l104.15.61,140.25-6.27-.03-1.29-1.8-6.4-138.46,6.19Z"/><path class="q" d="M71.47,74.25c14.98-1.69,73.2-2.59,76.95-1.88,0,0-.18-.04-.43-.16,2.83,1.39,65.51,2.22,72.64,2.17,10.02-.07,36.36-.88,37.91-.93l103.84,2.88h.09s136.88-6.59,136.88-6.59l-.28-7.76-136.59,6.58-103.82-2.87h-.14c-.28,0-27.65.86-37.87.93-16.39.11-67.43-1.08-70.84-1.81.19.04.32.11.4.15-3.21-1.58-68.4.33-79.22,1.55-7.4.83-26.14,2.01-26.27,2.02l-29.59,1.12c2.52,2.14,4.87,4.47,5.18,5.96.1.5.18,1.05.23,1.6l24.36-.92c.77-.05,19.04-1.2,26.57-2.04Z"/><path class="q" d="M44.99,55.35c.16-.01,16.5-1.26,26.5-2.39,19.28-2.17,72.68-4.28,76.78-3.34-.05-.01-.07-.03-.11-.04,5.03,1.61,61.19,2.05,72.4,1.97,13.25-.09,36.22-.71,37.86-.76l103.7,5.14h.12s139.68-7.22,139.68-7.22l.43-1.78-.03-2.08-.09-3.92-139.93,7.24-103.67-5.14h-.18c-.24,0-24.22.66-37.86.76-20.72.14-67.09-.71-70.68-1.64.12.03.21.08.27.11-3.74-1.83-63.38,1.2-79.16,2.98-9.91,1.12-26.16,2.36-26.23,2.37l-30.8,1.16-1.03-.72-.06,3.17-1.48,4.64,1.05.73,32.53-1.23Z"/><path class="q" d="M13.52,27.82l-2.43-.5,2.15,5.02-.06,3.27,31.77-1.2h.13c.14-.02,13.96-1.33,26.42-2.74,26.73-3.02,72.47-5.89,76.6-4.81,6.02,2.16,71.71,1.85,72.37,1.84,16.44-.11,36.15-.55,37.82-.59l103.56,7.41h.15s138.48-7.64,138.48-7.64l-2.04-6.14.27-1.53-136.61,7.54-103.52-7.41h-.22c-.21,0-20.8.47-37.85.59-29.12.2-67.06-.41-70.53-1.48-5.52-2.06-60.71,2.42-78.94,4.48-11.97,1.35-25.21,2.62-26.27,2.72l-31.24,1.18Z"/><path class="q" d="M362.91,109.39l-104.19,1.66c-.34.01-34.51,1.24-37.89,1.26-5.55.04-68.79-1.86-71.23-2.14v.08c-8.17-1.02-78.04-1.19-78.64-1.17-2,.23-19.71,1.04-26.34,1.33l-23.99.9-3.28.12-1.39.05,2.9,7.66,25.9-.98c.98-.04,24.12-1.07,26.68-1.36,4.42-.51,74.43.74,77.37,1.06v-.09c7.72.87,71.36,2.3,72,2.3,3.45-.02,36.62-1.22,37.98-1.26l104.21-1.66,136.82-5.64-.12-7.76-136.77,5.63Z"/><polygon class="n" points="361.82 11.23 376.64 43.94 380.46 62.03 386.85 82.59 378.4 43.88 364.77 11.12 361.82 11.23"/><polygon class="j" points="386.85 82.59 388.65 95.77 384.76 82.67 378.55 63.85 376.64 43.94 380.46 62.03 386.85 82.59"/><path class="l" d="M139.92.1l3.28,66.92c.05,1.11,1.32,1.13,1.41.03L150.39.79s0,0,0,0c-.68-.11-1.16-.23-1.43-.37-.91-.45-4.19-.52-9.04-.32Z"/><polygon class="p" points="148.96 .43 145.14 61.07 156.19 1.34 148.96 .43"/><path class="k" d="M8.61,64.64s11.01,7.62,11.7,10.97c.69,3.35.13,8.29.13,8.29l-8.74,15.13-.06.36c14.75-2.41,56.76-10.16,55.81-19.95-1.14-11.87-58.84-14.8-58.84-14.8Z"/><polygon class="o" points="11.12 102.45 28.29 105.13 56.37 108.3 66.3 113.94 42.94 110.14 20.47 106.54 11.12 102.45"/><polygon class="m" points="11.12 102.45 56.37 108.3 66.3 113.94 82.06 115.09 91.75 120.56 82.03 113.34 66.87 111.82 56.21 105.92 11.43 100.65 11.12 102.45"/><polygon class="j" points="220.9 139.05 226.19 112.17 228.79 93.88 231.02 72.48 225.2 56.31 229.31 75.64 225.92 103.24 219.54 128.03 218.53 138.97 220.9 139.05"/><polygon class="o" points="231.02 72.48 228.79 93.88 226.19 112.17 220.9 139.05 227.88 111.35 229.59 89.85 231.08 76.5 231.02 72.48"/><polygon class="j" points="455.83 103.7 481.94 67.99 498.27 22.3 481.86 59.01 468.67 74.61 455.83 103.7"/><polygon class="o" points="455.83 103.7 481.94 67.99 492.74 37.76 482.61 69.59 467.16 91.73 457.91 109.09 454.41 120.1 455.83 103.7"/></g></g></g></svg>