<?xml version="1.0" encoding="UTF-8"?><svg xmlns="http://www.w3.org/2000/svg" xmlns:xlink="http://www.w3.org/1999/xlink" viewBox="0 0 463.49 156.81"><defs><style>.i{fill:#d1d3d4;opacity:.32;}.i,.j,.k,.l,.m{mix-blend-mode:overlay;}.n{fill:#dba400;}.j{fill:url(#c);}.j,.l,.m{opacity:.21;}.o{fill:#bcbec0;}.o,.p,.q{mix-blend-mode:multiply;}.k{fill:#f1f2f2;opacity:.2;}.r{isolation:isolate;}.l{fill:url(#d);}.p,.q{fill:#e6e7e8;}.q{opacity:.64;}.m{fill:url(#e);}</style><linearGradient id="c" x1="250.8" y1="30.34" x2="282.82" y2="27.09" gradientUnits="userSpaceOnUse"><stop offset="0" stop-color="#fff" stop-opacity=".7"/><stop offset=".2" stop-color="#fbfbfb" stop-opacity=".69"/><stop offset=".35" stop-color="#efefef" stop-opacity=".65"/><stop offset=".49" stop-color="#dbdada" stop-opacity=".59"/><stop offset=".61" stop-color="#bebdbd" stop-opacity=".5"/><stop offset=".73" stop-color="#999798" stop-opacity=".38"/><stop offset=".85" stop-color="#6c696a" stop-opacity=".23"/><stop offset=".96" stop-color="#383435" stop-opacity=".07"/><stop offset="1" stop-color="#231f20" stop-opacity="0"/></linearGradient><linearGradient id="d" x1="374.31" y1="126.74" x2="392.79" y2="126.74" xlink:href="#c"/><linearGradient id="e" x1="4.27" y1="127.23" x2="82" y2="127.23" gradientUnits="userSpaceOnUse"><stop offset="0" stop-color="#fff" stop-opacity=".7"/><stop offset=".2" stop-color="#fbfbfb" stop-opacity=".69"/><stop offset=".35" stop-color="#efefef" stop-opacity=".65"/><stop offset=".49" stop-color="#dbdada" stop-opacity=".59"/><stop offset=".61" stop-color="#bebdbd" stop-opacity=".5"/><stop offset=".73" stop-color="#999798" stop-opacity=".38"/><stop offset=".85" stop-color="#6c696a" stop-opacity=".23"/><stop offset=".96" stop-color="#383435" stop-opacity=".07"/><stop offset="1" stop-color="#231f20" stop-opacity="0"/></linearGradient></defs><g class="r"><g id="b"><path class="n" d="M451.99,143.81l-6.08-11.79,7.24-10.88,2.01-.11-.62-9.59-6.83-13.17s-.17-2.64,2.26-6.12c2.43-3.48,5.59-7.65,5.59-7.65l4.01-8.25-13.57-4.43,15.31-9.62-10.96-5.27c-2.03-1.05-3.03-14.78-3.52-20.07-5.34-.4-10.71-.74-16.12-1.19-17.58-1.45-35.09-4.09-52.26-8.15-4.98-1.18-9.9-2.44-14.8-3.69h0s-.01,0-.02,0c-10.93-2.8-21.78-5.59-32.96-7.49-23.58-5.51-52.51-5.58-60.52-9.08-14.13-6.18-27.36-7.26-27.36-7.26l-49.58,1.21-30.08,1.95-45.47,8.92L10.01,17.06,0,30.99l11.63,11.2-3.56,29.29.6,9.33-4.73,11.22.67,10.36,6.37,14.2-6.73,7.07,2.57,12.97,24.15,4.96-19.22,12.13,162.86-7.23,56.54-25.79,9.58,3.69,84.63,12.34,22.91,1.6,44.49,13.95,63.37,4.53,7.33-9.77-11.5-3.24Z"/><path class="o" d="M252.76,109.07c.7-.29,9.26-6.25,14.97-10.24l-14.15,9.19-2.36,1.37-8.57,6.17-11.48,5.14,14.26-5.87s6.27-5.32,7.33-5.76Z"/><path class="q" d="M231.17,120.7l14.26-5.87s6.27-5.32,7.33-5.76,20.05-13.8,20.05-13.8l-18.55,15.26-6.85,6.72-6.66,7.15-9.58-3.69Z"/><path class="j" d="M270.17,7.26c-7.33-3.21-14.4-5.03-19.53-6.05,3.28,12.45,7.77,29.77,8.04,32.56.44,4.42,19.88,35.78,30.92,16.34,5.19-9.13,7.94-22.64,9.39-34.4-13.13-3.34-24.31-6.47-28.83-8.44Z"/><polygon class="q" points="354.09 140.15 355.86 130.49 351.19 88.97 354.09 74.55 348.29 86.76 349.68 124.39 348.29 138.34 354.09 140.15"/><polygon class="i" points="348.29 138.34 349.68 124.39 348.29 86.76 354.09 74.55 352.33 63.8 354.53 46.92 350.45 67.88 352.33 75.94 346.14 88.42 347.69 124.75 348.29 138.34"/><path class="l" d="M392.79,152.29s-1.59-43.88-6.89-50.5c-5.3-6.63-11.58,44.71-11.58,44.71l18.48,5.79Z"/><polygon class="m" points="11 116.59 34.74 126.74 49.31 130.05 82 137.86 41.36 131.82 28.11 129.17 4.27 123.66 11 116.59"/><polygon class="p" points="4.27 123.66 41.36 131.82 82 137.86 34.07 132.26 4.27 123.66"/><polygon class="k" points="117.67 12.08 124.45 37.73 129.7 43.48 138.89 74.55 131.61 35.53 117.67 12.08"/><polygon class="p" points="136.25 60.38 131.61 35.53 117.67 12.08 136.25 36.8 135.12 45.41 136.25 60.38"/><polygon class="q" points="446.01 71.82 438.57 78.41 428.3 85.66 412.4 91.29 431.61 86.99 441.33 83.45 447.07 74.55 447.07 72.17 446.01 71.82"/><polygon class="i" points="438.24 75.5 428.36 83.84 417.37 88.81 403.01 94.27 412.4 91.29 428.3 85.66 438.57 78.41 446.01 71.82 438.24 75.5"/><polygon class="i" points="174.64 146.49 242.66 115.56 251.23 109.39 252.91 108.68 267.74 98.83 272.82 95.27 290.85 91.29 271.73 94.57 246.35 109.77 219.05 122.19 181.66 142.17 174.64 146.49"/></g></g></svg>