<?xml version="1.0" encoding="UTF-8"?><svg xmlns="http://www.w3.org/2000/svg" viewBox="0 0 538.51 146.78"><defs><style>.f{opacity:.5;}.f,.g,.h,.i{fill:#bcbec0;}.f,.j,.h,.k{mix-blend-mode:overlay;}.l{fill:#074e67;}.m{fill:#1bbcb6;}.n{opacity:.86;}.n,.o,.i{mix-blend-mode:multiply;}.n,.k{fill:#e6e7e8;}.p{isolation:isolate;}.j{opacity:.54;}.o{fill:#d1d3d4;}.h{opacity:.61;}.k{opacity:.43;}.i{opacity:.94;}.q{opacity:.83;}.r{fill:#86c8bd;}</style></defs><g class="p"><g id="b"><g class="q"><path class="r" d="M194.92,2.03l-15.02,17.53s10.96,9.63,15.02.16c4.06-9.46,0-17.69,0-17.69Z"/><path class="m" d="M11.61,5.79L0,115.13l150.18,1.53s2.48,22.86,15.58,26.21c13.1,3.35,370.02,3.9,370.02,3.9l2.72-123.31-358.61-3.9S207.8-.26,188.21,0,11.61,5.79,11.61,5.79Z"/><path class="l" d="M537.72,59.23l.17-7.93c-12.42,1.52-24.98,1.57-37.56,1.02-.21-9.75-.56-19.51-.99-29.26l-7.87-.08c.42,9.64.77,19.28.98,28.92-8.5-.52-17-1.23-25.45-1.86-7.03-.53-14.06-1.01-21.09-1.49.52-8.68.9-17.36.73-26.05l-7.86-.08c.17,8.55-.19,17.08-.69,25.61-15.61-1.02-31.23-1.92-46.86-2.69.46-7.8.93-15.61,1.39-23.41l-7.86-.08c-.46,7.71-.92,15.42-1.37,23.14-5.27-.25-10.54-.5-15.81-.72-11.83-.49-23.66-.88-35.49-1.23-.14-7.25-.34-14.5-.59-21.75l-7.86-.08c.24,7.2.45,14.4.59,21.6-13.36-.36-26.73-.62-40.09-.8.32-7.07.57-14.14.79-21.21l-7.86-.08c-.22,7.07-.47,14.14-.79,21.2-16.65-.18-33.31-.22-49.96-.12.2-7.2.43-14.4.69-21.6l-7.86-.08c-.26,7.24-.49,14.48-.69,21.72-10.51.09-21.03.25-31.54.44.24-7.5.81-22.61.81-22.61l-7.83-.09s-.61,15.28-.85,22.86c-2.36.05-4.26.09-6.62.14l-2.42,7.91c3.05-.07,5.77-.12,8.82-.19-.32,11.17-.57,22.35-.72,33.52-6.04.03-12.08.07-18.11.1.52-1.76,1.05-3.55,1.59-5.37.69-6.35,1.42-12.69,2.18-19.04,1.15.07,2.29.15,3.44.22.78-2.6,1.56-5.18,2.34-7.71-1.62-.1-3.23-.22-4.85-.32.75-6.35,1.48-12.7,2.12-19.06,3.03-.1,6.03-.36,9.01-.81.99-3.1,1.92-5.92,2.75-8.39-3.61.82-7.3,1.24-11.01,1.39.72-8.1,1.25-16.2,1.49-24.33-2.46.07-5.09.15-7.87.24-.24,8.03-.77,16.05-1.48,24.06-4.8-.19-9.62-.63-14.36-1.02-5.92-.48-11.84-.85-17.77-1.17.27-6.93.41-13.87.38-20.81-2.59.09-5.21.17-7.86.26.03,6.72-.11,13.45-.37,20.17-7.18-.29-14.36-.48-21.55-.51-7.6-.03-15.19.08-22.77.35.39-6.18.81-12.36,1.24-18.53-2.66.09-5.29.18-7.88.27-.43,6.2-.85,12.41-1.25,18.61-12.14.58-24.25,1.51-36.33,2.81,1.12-6.76,2.34-13.51,3.6-20.24-2.9.1-5.59.19-8.03.28-1.29,6.95-2.54,13.92-3.68,20.9-4.61.55-9.22,1.14-13.82,1.79l-.83,7.8c.39.05.79.07,1.22.01,4.06-.58,8.12-1.13,12.19-1.63-1.14,7.41-2.21,14.83-3.18,22.26-4.2.51-8.4,1.06-12.6,1.63l-.85,7.98c4.14-.58,8.29-1.13,12.45-1.65-.96,7.9-1.81,15.81-2.57,23.72-4.06-.08-8.12-.18-12.19-.29l-.83,7.84c4.09.12,8.18.22,12.26.3-.57,6.44-1.05,12.89-1.48,19.34l7.86.08c.43-6.43.91-12.86,1.48-19.29,13.89.19,27.78.16,41.67-.08-.24,6.6-.44,13.2-.63,19.8l7.86.08c.19-6.68.4-13.36.64-20.03,14.68-.34,29.36-.91,44.02-1.73-.22,7.4-.27,14.81-.08,22.22l7.86.08c-.2-7.59-.13-15.18.09-22.77,9.6-.59,19.19-1.29,28.78-2.09-.7,7.78-1.21,15.57-1.47,23.36,1.14-3.94,3.63-12.53,6.74-23.12,6.78-.04,13.57-.07,20.35-.11-.09,8.45-.13,16.9-.13,25.36-9,.05-18,.1-27.01.15-.23,0-.43.04-.64.07.17,1.21.64,4.23,1.67,7.79,8.66-.05,17.33-.1,25.99-.14.03,6.29.08,12.58.15,18.86,2.33.09,4.97.18,7.87.27-.08-6.39-.13-12.78-.16-19.18,10.63-.06,21.25-.12,31.88-.18.05,6.68.14,13.37.24,20.05,2.55.04,5.17.09,7.86.13-.1-6.74-.19-13.48-.24-20.22,14.88-.08,29.75-.16,44.63-.25-.74,7-1.53,14-2.38,21,2.59.03,5.21.05,7.85.08.85-7.04,1.65-14.08,2.4-21.12,15.15-.08,30.3-.17,45.45-.25-.27,7.26-.6,14.52-.98,21.77,2.61.02,5.23.04,7.86.06.37-7.29.71-14.58.98-21.87,15.8-.09,31.59-.17,47.39-.26-.44,7.48-.89,14.95-1.33,22.43,2.63.01,5.25.03,7.86.04.45-7.5.89-15.01,1.34-22.51,16.86-.09,33.73-.19,50.59-.28.49,7.68,1.11,15.36,1.77,23.04,2.65.01,5.28.02,7.87.03-.66-7.7-1.29-15.4-1.78-23.11,12.51-.07,25.01-.14,37.52-.21,3.18-.02,6.35-.03,9.53-.05-.26,7.84-.59,15.68-.98,23.51,2.72,0,5.34.02,7.86.02.4-7.86.73-15.72.99-23.58,12.13-.07,24.25-.13,36.38-.2l.17-7.86c-12.1.07-24.2.13-36.3.2.23-8.45.35-16.9.41-25.36,12.15-.07,24.3-.13,36.45-.2l.17-7.86c-12.19.07-24.37.13-36.56.2,0-7.29-.07-14.58-.18-21.87,12.46.54,24.92.48,37.24-.94ZM64.16,88.11c-13.73.24-27.47.28-41.21.1.8-8.28,1.69-16.56,2.71-24.81,13.22-1.52,26.47-2.71,39.74-3.56-.47,9.42-.87,18.85-1.24,28.28ZM65.81,52.01c-13.06.83-26.1,1.97-39.11,3.42.98-7.42,2.05-14.82,3.21-22.21,12.34-1.35,24.72-2.33,37.12-2.93-.44,7.24-.84,14.48-1.22,21.72ZM116.03,86.21c-14.66.82-29.32,1.4-44,1.74.37-9.53.78-19.07,1.26-28.6,14.77-.81,29.57-1.2,44.36-1.19-.62,9.35-1.22,18.7-1.62,28.05ZM118.16,50.34c-14.83,0-29.66.38-44.47,1.19.38-7.19.78-14.37,1.21-21.55,10.79-.37,21.6-.49,32.4-.27,4.03.08,8.04.22,12.06.41-.34,6.75-.76,13.49-1.2,20.23ZM153.17,83.6c-9.74.82-19.5,1.54-29.25,2.14.4-9.18.98-18.36,1.59-27.54,10.15.1,20.3.38,30.44.86-.98,8.18-1.95,16.35-2.78,24.53ZM126.02,50.38c.44-6.62.85-13.23,1.19-19.85,8.65.5,17.29,1.14,25.95,1.76,1.94.14,3.87.24,5.79.32-.63,6.22-1.34,12.44-2.07,18.66-10.28-.5-20.57-.78-30.85-.88ZM217.59,116.81c-10.61.06-21.22.12-31.82.17,0-8.45.04-16.9.13-25.36,10.58-.06,21.16-.12,31.74-.17-.05,8.45-.08,16.9-.04,25.36ZM217.69,83.59c-10.57.06-21.15.12-31.72.17.15-11.22.41-22.43.73-33.64,10.52-.19,21.04-.31,31.56-.38-.27,11.28-.46,22.57-.56,33.85ZM270.97,116.51c-8.74.05-17.47.1-26.21.14-6.44.04-12.87.07-19.31.11-.04-8.45-.01-16.9.04-25.36,15.91-.09,31.82-.17,47.74-.26-.67,8.46-1.42,16.92-2.26,25.37ZM273.82,83.28c-9.69.05-19.38.11-29.07.16-6.4.04-12.8.07-19.2.11.11-11.29.3-22.58.57-33.87,16.59-.07,33.18,0,49.76.22-.56,11.14-1.24,22.27-2.06,33.39ZM323.76,116.22c-14.97.08-29.95.16-44.92.25.84-8.45,1.58-16.91,2.25-25.37,14.41-.08,28.82-.16,43.23-.24-.12,8.45-.29,16.91-.56,25.36ZM324.42,83c-14.24.08-28.49.16-42.73.23.82-11.07,1.5-22.16,2.05-33.25,13.53.2,27.06.49,40.59.87.14,10.71.18,21.43.09,32.14ZM379.18,115.92c-15.85.09-31.71.17-47.56.26.27-8.45.44-16.9.56-25.36,16.17-.09,32.34-.18,48.51-.27-.5,8.45-1,16.91-1.51,25.36ZM381.16,82.69c-16.29.09-32.58.18-48.87.27.09-10.62.05-21.24-.09-31.85,16.91.52,33.81,1.16,50.72,1.94-.59,9.88-1.17,19.76-1.76,29.65ZM387.05,115.87c.5-8.45,1-16.91,1.51-25.36,15.83-.09,31.66-.17,47.5-.26-.02,8.46.22,16.91.66,25.35-16.55.09-33.1.18-49.66.27ZM436.14,82.39c-15.71.09-31.42.17-47.12.26.58-9.74,1.16-19.48,1.74-29.22,15.61.76,31.22,1.62,46.83,2.59-.58,8.79-1.2,17.57-1.44,26.37ZM492.32,115.3c-15.92.09-31.84.17-47.76.26-.44-8.44-.67-16.89-.65-25.35,12.88-.07,25.75-.14,38.63-.21,3.4-.02,6.8-.04,10.19-.06-.06,8.45-.19,16.91-.41,25.36ZM444.01,82.34c.24-8.62.84-17.23,1.41-25.84,12.17.78,24.34,1.62,36.51,2.53,3.55.26,7.11.51,10.68.73.12,7.44.2,14.88.19,22.32-16.26.09-32.53.18-48.79.27Z"/><g class="j"><path class="g" d="M179.9,19.56c-8.01,22.57-29.64,97.67-29.64,97.68.39,2.86,2.51,15.73,9.5,22.24,2.16-32.67,18.96-105.42,21.15-119.9h-1Z"/></g><polygon class="f" points="473.58 40.56 512.02 132.63 480.55 79.13 473.58 40.56"/><polygon class="n" points="477.52 49.99 512.02 132.63 522.59 141.63 528.19 146.78 513.88 125.77 496.15 86.6 477.52 49.99"/><polygon class="i" points="347.89 37.95 368.62 91.45 394.34 111.77 398.48 121.72 395.58 108.45 369.87 82.34 347.89 37.95"/><polygon class="k" points="400.97 133.08 398.48 121.72 394.34 111.77 368.62 91.45 351.35 46.89 368.62 95.91 391.8 115.87 400.97 133.08"/><path class="o" d="M150.26,117.24c2.1-7.19,4.17-14.39,6.28-21.58,4.28-14.6,8.6-29.19,13.03-43.75,1.89-6.19,3.79-12.38,5.76-18.55,1.69-5.3,2.75-12.55,7.34-15.98,4.18-3.12,8.22-6.55,11.19-10.84,1.04-1.51,1.9-3.68.67-5.03-.49-.54-1.2-.79-1.89-1.03-.55-.19-1.13-.39-1.7-.26-.46.11-.85.41-1.22.71-3.88,3.14-8.86,6.01-12.01,9.89-4.03,4.96-5.64,13.27-7.41,19.35-2.01,6.93-3.81,13.93-5.54,20.94-3.61,14.65-13.73,50.76-16.85,65.52l2.28.02.07.57Z"/><path class="o" d="M150.26,117.24s19.59-68,28.38-94.03l-.08-.18s-2.89,4.04-7.04,17.53c-4.15,13.49-21.33,76.11-21.33,76.11l.07.57h0Z"/><polygon class="h" points="42.54 99.64 58.73 70.13 64.11 40.9 81.84 12.96 65.4 55.43 58.73 79.09 42.54 99.64"/><polygon class="o" points="65.4 55.43 58.73 79.09 42.54 99.64 34.09 110.06 58.2 87.95 63.48 70.87 76.52 26.69 65.4 55.43"/></g></g></g></svg>